<svg width="13240" height="3217" viewBox="0 0 13240 3217" fill="none" xmlns="http://www.w3.org/2000/svg">
<path d="M4596.16 1156.95V2207.76H4850.9L5402.84 1156.95" stroke="url(#paint0_linear_34_150)" stroke-width="150"/>
<path d="M1889.54 2250.22H3322.46" stroke="url(#paint1_linear_34_150)" stroke-width="150"/>
<path d="M1125.31 923.438L127.574 1549.68C88.655 1585.06 34.1686 1687.66 127.574 1815.03C220.979 1942.41 350.476 1903.49 403.549 1868.11L3009.83 218.085C3222.1 83.6962 3490.91 76.2962 3710.26 198.803L5349.78 1114.49M1125.31 923.438C1111.16 764.327 1061.63 551.94 1560.5 636.854C1518.04 859.753 1422.51 1084.77 1125.31 923.438Z" stroke="url(#paint2_linear_34_150)" stroke-width="150"/>
<path d="M5869.88 1135.72C5622.22 1135.72 5041.97 1135.72 4702.32 1135.72C4362.66 1135.72 4256.52 1440 4245.9 1592.14V2409.43L4638.63 3141.81H4033.62V2802.16C3888.56 2710.17 3528.38 2454.01 3248.17 2165.3C2897.9 1804.42 2579.47 1783.19 2537.01 1783.19C2494.55 1783.19 2091.21 1730.12 1889.54 2239.6C1728.21 2647.19 1284.53 2699.55 1082.86 2674.79L859.963 2929.53V3141.81H212.494L987.333 2165.3L1003.25 1809.73L1019.18 1454.15" stroke="url(#paint3_linear_34_150)" stroke-width="150"/>
<path d="M6991.88 1888.83V188.89H7587.33C7793.6 188.89 7950.05 228.586 8056.68 307.979C8163.32 386.594 8216.64 502.181 8216.64 654.74C8216.64 738.025 8195.23 811.58 8152.42 875.406C8109.61 938.453 8050.07 984.766 7973.79 1014.34C8060.97 1036.14 8129.46 1080.12 8179.28 1146.28C8229.87 1212.44 8255.17 1293.39 8255.17 1389.12C8255.17 1552.58 8203.02 1676.34 8098.72 1760.4C7994.42 1844.47 7845.75 1887.28 7652.71 1888.83H6991.88ZM7342.15 1148.61V1607.46H7642.21C7724.71 1607.46 7788.93 1588 7834.85 1549.08C7881.55 1509.38 7904.9 1454.9 7904.9 1385.62C7904.9 1229.95 7824.34 1150.95 7663.22 1148.61H7342.15ZM7342.15 901.092H7601.34C7778.03 897.978 7866.37 827.536 7866.37 689.766C7866.37 612.708 7843.8 557.445 7798.66 523.975C7754.29 489.727 7683.85 472.603 7587.33 472.603H7342.15V901.092Z" fill="black"/>
<path d="M8783.88 1888.83H8433.61V188.89H8783.88V1888.83Z" fill="black"/>
<path d="M9373.3 1607.46H10230.3V1888.83H8935.47V1683.35L9776.1 472.603H8936.64V188.89H10211.6V389.707L9373.3 1607.46Z" fill="black"/>
<path d="M11710.5 1077.39C11710.5 1244.74 11681 1391.46 11621.8 1517.55C11562.6 1643.65 11477.8 1740.94 11367.3 1809.44C11257.5 1877.94 11131.4 1912.18 10989 1912.18C10848.1 1912.18 10722.4 1878.33 10611.9 1810.61C10501.3 1742.89 10415.7 1646.37 10355 1521.06C10294.3 1394.96 10263.6 1250.19 10262.8 1086.73V1002.67C10262.8 835.32 10292.7 688.209 10352.7 561.336C10413.4 433.685 10498.6 336 10608.4 268.283C10718.9 199.787 10845 165.539 10986.7 165.539C11128.3 165.539 11254 199.787 11363.8 268.283C11474.3 336 11559.5 433.685 11619.5 561.336C11680.2 688.209 11710.5 834.931 11710.5 1001.5V1077.39ZM11355.6 1000.33C11355.6 822.088 11323.7 686.653 11259.9 594.028C11196 501.402 11105 455.09 10986.7 455.09C10869.1 455.09 10778.4 501.013 10714.6 592.86C10650.8 683.928 10618.5 817.807 10617.7 994.495V1077.39C10617.7 1250.97 10649.6 1385.62 10713.5 1481.36C10777.3 1577.1 10869.1 1624.97 10989 1624.97C11106.5 1624.97 11196.8 1579.05 11259.9 1487.2C11322.9 1394.57 11354.8 1259.92 11355.6 1083.23V1000.33Z" fill="black"/>
<path d="M13239.8 1888.83H12889.6L12207.7 770.327V1888.83H11857.5V188.89H12207.7L12890.7 1309.73V188.89H13239.8V1888.83Z" fill="black"/>
<path d="M9278.65 2632.25H8971.36V2955.65H8874.79V2223.36H9328.44V2302.83H8971.36V2553.29H9278.65V2632.25Z" fill="black"/>
<path d="M10007.4 2613.14C10007.4 2684.89 9995.35 2747.59 9971.2 2801.24C9947.06 2854.55 9912.86 2895.29 9868.6 2923.46C9824.35 2951.62 9772.71 2965.7 9713.7 2965.7C9656.03 2965.7 9604.9 2951.62 9560.3 2923.46C9515.71 2894.96 9481 2854.55 9456.19 2802.25C9431.72 2749.61 9419.14 2688.75 9418.47 2619.68V2566.87C9418.47 2496.46 9430.71 2434.26 9455.19 2380.28C9479.66 2326.3 9514.2 2285.06 9558.79 2256.56C9603.72 2227.72 9655.02 2213.3 9712.69 2213.3C9771.37 2213.3 9823 2227.55 9867.6 2256.05C9912.53 2284.22 9947.06 2325.29 9971.2 2379.27C9995.35 2432.92 10007.4 2495.45 10007.4 2566.87V2613.14ZM9911.35 2565.87C9911.35 2479.02 9893.92 2412.47 9859.05 2366.2C9824.18 2319.59 9775.39 2296.29 9712.69 2296.29C9651.67 2296.29 9603.55 2319.59 9568.35 2366.2C9533.48 2412.47 9515.54 2476.84 9514.53 2559.33V2613.14C9514.53 2697.3 9532.14 2763.52 9567.34 2811.8C9602.88 2859.75 9651.67 2883.72 9713.7 2883.72C9776.06 2883.72 9824.35 2861.09 9858.55 2815.83C9892.75 2770.23 9910.35 2705.01 9911.35 2620.18V2565.87Z" fill="black"/>
<path d="M10715.6 2613.14C10715.6 2684.89 10703.5 2747.59 10679.3 2801.24C10655.2 2854.55 10621 2895.29 10576.7 2923.46C10532.5 2951.62 10480.9 2965.7 10421.8 2965.7C10364.2 2965.7 10313 2951.62 10268.4 2923.46C10223.8 2894.96 10189.1 2854.55 10164.3 2802.25C10139.9 2749.61 10127.3 2688.75 10126.6 2619.68V2566.87C10126.6 2496.46 10138.9 2434.26 10163.3 2380.28C10187.8 2326.3 10222.3 2285.06 10266.9 2256.56C10311.9 2227.72 10363.2 2213.3 10420.8 2213.3C10479.5 2213.3 10531.1 2227.55 10575.7 2256.05C10620.7 2284.22 10655.2 2325.29 10679.3 2379.27C10703.5 2432.92 10715.6 2495.45 10715.6 2566.87V2613.14ZM10619.5 2565.87C10619.5 2479.02 10602.1 2412.47 10567.2 2366.2C10532.3 2319.59 10483.5 2296.29 10420.8 2296.29C10359.8 2296.29 10311.7 2319.59 10276.5 2366.2C10241.6 2412.47 10223.7 2476.84 10222.7 2559.33V2613.14C10222.7 2697.3 10240.3 2763.52 10275.5 2811.8C10311 2859.75 10359.8 2883.72 10421.8 2883.72C10484.2 2883.72 10532.5 2861.09 10566.7 2815.83C10600.9 2770.23 10618.5 2705.01 10619.5 2620.18V2565.87Z" fill="black"/>
<path d="M10860.4 2955.65V2223.36H11067.1C11130.8 2223.36 11187.2 2237.44 11236.1 2265.61C11285.1 2293.77 11322.8 2333.84 11349.3 2385.81C11376.1 2437.78 11389.7 2497.46 11390 2564.86V2611.63C11390 2680.7 11376.6 2741.22 11349.8 2793.19C11323.3 2845.17 11285.2 2885.07 11235.6 2912.89C11186.3 2940.72 11128.8 2954.97 11063.1 2955.65H10860.4ZM10957 2302.83V2876.68H11058.6C11133 2876.68 11190.8 2853.55 11232.1 2807.28C11273.7 2761.01 11294.4 2695.12 11294.4 2609.62V2566.87C11294.4 2483.72 11274.8 2419.17 11235.6 2373.24C11196.7 2326.97 11141.4 2303.5 11069.6 2302.83H10957Z" fill="black"/>
<defs>
<linearGradient id="paint0_linear_34_150" x1="5286.08" y1="1974.25" x2="4593.75" y2="1356.79" gradientUnits="userSpaceOnUse">
<stop/>
<stop offset="1" stop-opacity="0"/>
</linearGradient>
<linearGradient id="paint1_linear_34_150" x1="1900.15" y1="2250.22" x2="3396.76" y2="2250.2" gradientUnits="userSpaceOnUse">
<stop stop-opacity="0"/>
<stop offset="1"/>
</linearGradient>
<linearGradient id="paint2_linear_34_150" x1="2791.75" y1="63.6856" x2="5477.15" y2="1273.71" gradientUnits="userSpaceOnUse">
<stop/>
<stop offset="0.980289" stop-opacity="0"/>
</linearGradient>
<linearGradient id="paint3_linear_34_150" x1="849.348" y1="1613.36" x2="1157.16" y2="2706.63" gradientUnits="userSpaceOnUse">
<stop stop-opacity="0"/>
<stop offset="0.517995"/>
</linearGradient>
</defs>
</svg>
