<svg width="162" height="68" viewBox="0 0 162 68" fill="none" xmlns="http://www.w3.org/2000/svg">
<path d="M16.938 41.0152C17.6186 40.7394 18.1857 40.3455 18.6016 39.8727C19.4334 38.9273 19.8493 37.7455 19.8493 36.2091C19.8493 34.7121 19.4334 33.5697 18.6394 32.7818C18.2235 32.3485 17.6564 32.0727 16.938 31.9152V26.8333C17.5052 26.8727 18.0723 26.9515 18.6016 27.0697C20.0383 27.3455 21.286 27.8182 22.3824 28.4879C23.4788 29.1576 24.3484 30.103 25.029 31.2849C25.6717 32.4667 26.012 33.9636 26.012 35.7364C26.012 37.5485 25.6717 39.0849 24.9912 40.3455C24.3106 41.6455 23.441 42.7091 22.3446 43.5364C21.2482 44.403 19.9627 45.0727 18.526 45.5849C17.9967 45.7818 17.4674 45.9394 16.938 46.097V41.0152ZM16.938 53.0303C18.6772 52.597 20.303 52.0455 21.8909 51.4546C24.3484 50.4697 26.4657 49.2485 28.3183 47.7909C30.1709 46.3333 31.6076 44.5606 32.6662 42.4727C33.7248 40.3849 34.292 37.9818 34.292 35.1849C34.292 32.3879 33.8005 30.0636 32.7418 28.0939C31.6832 26.1636 30.2465 24.5879 28.4317 23.3667C26.6169 22.1455 24.4619 21.2394 22.0043 20.6485C20.4164 20.2546 18.715 20.0182 16.938 19.8606V25.1788C17.8454 25.2576 18.7528 25.4152 19.5846 25.6121C21.286 26.0061 22.7605 26.6364 23.9704 27.503C25.218 28.3303 26.1632 29.4333 26.8438 30.7727C27.5243 32.1121 27.8646 33.7273 27.8646 35.5788C27.8646 37.4303 27.5243 39.0849 26.806 40.5424C26.1254 42 25.1424 43.2212 23.9325 44.2455C22.6849 45.2697 21.2104 46.1364 19.5468 46.8061C18.715 47.1212 17.8454 47.4364 16.9758 47.6727V53.0303H16.938ZM14.0268 41.6455C14.2159 41.6061 14.4049 41.6061 14.6317 41.5667C15.5391 41.4485 16.2953 41.2909 16.938 41.0152V46.097C15.9928 46.3727 15.0098 46.5697 14.0268 46.6879C12.0986 46.9636 10.2082 47.2394 8.27998 47.5546C8.27998 40.6606 8.31779 33.8061 8.31779 26.9121C10.246 26.8333 12.1364 26.7546 14.0646 26.6758C15.0476 26.6364 15.9928 26.6758 16.938 26.7546V31.8364C16.2953 31.6788 15.5391 31.6394 14.6317 31.6788C14.4427 31.6788 14.2537 31.7182 14.0268 31.7182C14.0646 35.0667 14.0646 38.3758 14.0268 41.6455ZM16.938 19.9C15.9928 19.8212 15.0476 19.7818 14.1024 19.7818H0C0 35.8546 0 51.9273 0 68C4.6504 66.6212 9.3008 65.3606 13.989 64.2576C13.989 60.7121 14.0268 57.2061 14.0268 53.6606C15.0476 53.4636 16.0306 53.2667 16.9758 53.0303V47.7121C16.0306 47.9879 15.0476 48.1849 14.0268 48.3424C12.0986 48.6182 10.2082 48.9333 8.27998 49.2485C8.27998 52.9121 8.27998 56.5364 8.24217 60.2C7.67505 60.3182 7.10793 60.4758 6.54081 60.5939C6.54081 48.8546 6.57861 37.1152 6.57861 25.3758C9.07395 25.297 11.5693 25.2182 14.0646 25.1394C15.0476 25.1 15.9928 25.1394 16.938 25.2182V19.9Z" fill="#BCBCBC"/>
<path d="M45.1714 53.6879C45.21 43.9336 45.2485 34.2183 45.287 24.4639H44.3239V19.8208H52.0292C51.9907 32.3844 51.9137 44.9871 51.8751 57.5507C49.3709 57.7848 46.8281 58.0579 44.3239 58.37V53.766L45.1714 53.6879ZM44.3624 24.4639H43.5533C43.5148 34.2573 43.4763 44.0507 43.3992 53.844C43.7074 53.805 44.0156 53.766 44.3624 53.727V58.331C41.7811 58.6432 39.1998 58.9553 36.657 59.3455C36.734 46.1576 36.7726 32.9697 36.8496 19.7818H44.3624V24.4639Z" fill="#BCBCBC"/>
<path d="M80.0773 52.3501C80.2999 51.9132 80.5225 51.4763 80.7452 50.9997C77.6653 50.9997 74.5483 51.0394 71.4684 51.1586V39.2831C74.2514 34.239 76.9974 29.2346 79.7804 24.2302C76.9974 24.2302 74.2514 24.2302 71.4684 24.2302V19.7818H88.6861C83.6766 28.8771 78.6301 37.9327 73.5835 47.1471C78.3332 47.0677 83.12 47.028 87.8698 47.1074C86.4226 50.3245 84.9754 53.5416 83.4911 56.7587C79.4835 56.719 75.476 56.7984 71.4684 56.9176V52.4692C74.3256 52.3898 77.1829 52.3501 80.0773 52.3501ZM71.4313 25.5806V35.7879C73.3238 32.3722 75.1791 28.9565 77.0716 25.5806C75.2162 25.5806 73.3238 25.5806 71.4313 25.5806ZM71.4313 51.1586C69.242 51.238 67.0526 51.3174 64.8262 51.3969C67.0155 47.306 69.242 43.2548 71.4313 39.2831V51.1586ZM71.4313 24.2302V19.7818H60.8929C59.4086 23.0784 57.9243 26.4146 56.44 29.7509C60.4476 29.6715 64.418 29.592 68.4256 29.5523C63.379 38.7667 58.2954 48.1798 53.2117 58.1091C59.2972 57.5133 65.3457 57.1559 71.4313 56.9176V52.4692C68.3514 52.5487 65.2344 52.7075 62.1545 52.8664C65.2344 47.0677 68.3514 41.3881 71.4313 35.7482V25.5806C68.8338 25.5806 66.2734 25.6203 63.6759 25.6203C63.8614 25.1834 64.0841 24.7068 64.2696 24.2699C66.6816 24.2699 69.0564 24.2699 71.4313 24.2302Z" fill="#BCBCBC"/>
<path d="M112.128 53.1863C112.352 52.7566 112.576 52.3268 112.763 51.858C109.661 51.5845 106.558 51.3501 103.418 51.1547V39.1603C106.184 34.2766 108.913 29.3539 111.642 24.3139C108.913 24.2748 106.147 24.2358 103.418 24.2358V19.7818H120.613C115.641 29.3539 110.595 38.4571 105.549 47.3259C110.333 47.5994 115.118 47.9901 119.903 48.4589C118.445 51.7017 116.987 54.9445 115.567 58.1091C111.53 57.6403 107.492 57.2496 103.455 56.937V52.4831C106.371 52.7175 109.249 52.9128 112.128 53.1863ZM103.455 25.5641V35.6441C105.324 32.3622 107.156 29.0023 108.988 25.6423C107.156 25.6032 105.324 25.5641 103.455 25.5641ZM103.455 51.1938C101.25 51.0375 99.0444 50.9203 96.8389 50.8422C99.0444 46.9743 101.25 43.1064 103.455 39.1994V51.1938ZM103.455 24.2358V19.7818H92.6896C91.1944 22.9855 89.7365 26.1892 88.2413 29.3539C92.2784 29.3929 96.2782 29.432 100.315 29.5102C95.2689 38.5352 90.2225 47.3259 85.1387 56.1947C91.2691 56.2728 97.3622 56.5463 103.493 57.0152V52.5612C100.39 52.3659 97.2875 52.2096 94.1475 52.0924C97.2501 46.6617 100.39 41.231 103.493 35.7222V25.6423C100.839 25.6032 98.1846 25.6032 95.5679 25.5641C95.7548 25.1344 95.9417 24.7046 96.166 24.2358C98.5584 24.1967 101.026 24.1967 103.455 24.2358Z" fill="#BCBCBC"/>
<path d="M143.082 49.6574C142.103 47.0202 141.123 44.3829 140.105 41.8244V26.6701C143.535 35.4478 146.964 44.6191 150.356 54.4202C146.926 53.751 143.535 53.1606 140.105 52.6096V49.2244C141.123 49.3425 142.103 49.5 143.082 49.6574ZM140.143 58.6319C142.366 59.0649 144.59 59.4979 146.813 59.9702C147.303 61.3872 147.793 62.8436 148.283 64.3C152.88 65.4021 157.44 66.6223 162 68C156.498 50.2872 150.921 34.4244 145.306 19.8212H140.143V24.9382L141.311 24.9776C145.607 35.9595 149.866 47.65 154.086 60.2457C153.483 60.0883 152.88 59.9702 152.24 59.8128C151.825 58.5925 151.411 57.3723 150.996 56.1521C147.378 55.4042 143.761 54.7744 140.143 54.1447V58.6319ZM140.143 41.8244L140.105 41.7457C139.126 44.1468 138.146 46.5085 137.166 48.8308C138.146 48.9489 139.126 49.1063 140.143 49.2244V52.6096C136.714 52.0585 133.322 51.5861 129.893 51.1138C133.284 43.2414 136.676 35.0542 140.068 26.434L140.143 26.6701V41.8244ZM140.143 19.7818H134.754C129.252 33.6372 123.75 46.5085 118.248 58.7893C122.883 59.3798 127.481 60.0883 132.116 60.8755C132.606 59.734 133.058 58.5925 133.548 57.4117C135.772 57.7659 137.957 58.1596 140.143 58.5925V54.1053C136.525 53.5149 132.908 52.9638 129.29 52.4915C128.875 53.4361 128.461 54.4202 128.046 55.3649C127.443 55.2862 126.803 55.2074 126.2 55.0893C130.383 45.4851 134.603 35.4872 138.786 24.8595L140.143 24.8989V19.7818Z" fill="#BCBCBC"/>
<path d="M51.1189 14.1392V2.49752H54.0113V1.93356H50.8466V0H55.5766V4.22967H53.0585V16.0727H50.8126V14.1392H51.1189ZM50.8466 1.93356H47.682V2.49752H50.6084V14.1392H50.8807V16.0727H48.6348V4.22967H46.1167V0H50.8466V1.93356Z" fill="#BCBCBC"/>
<path d="M63.2628 11.2394C63.7041 11.2394 64.0719 11.1627 64.4764 10.9709C64.8441 10.8174 65.1751 10.5873 65.4693 10.2804C65.7635 9.97353 65.9842 9.66665 66.1313 9.24469C66.2784 8.8611 66.3887 8.43914 66.3887 7.97883C66.3887 7.51851 66.3152 7.13491 66.1313 6.71295C65.9842 6.32936 65.7635 5.98412 65.4693 5.67724C65.1751 5.37036 64.8809 5.1402 64.4764 4.98676C64.1086 4.83333 63.7041 4.71825 63.2628 4.71825V2.64682C63.9615 2.64682 64.6235 2.80026 65.2487 3.06878C65.8739 3.3373 66.3887 3.72089 66.8668 4.21957C67.3449 4.71825 67.6759 5.25528 67.9701 5.9074C68.2275 6.55951 68.3746 7.21163 68.3746 7.97883C68.3746 8.70766 68.2275 9.39813 67.9701 10.0502C67.7127 10.7024 67.3449 11.2394 66.8668 11.7381C66.3887 12.2368 65.8739 12.582 65.2487 12.8889C64.6235 13.1574 63.9983 13.3108 63.2628 13.3108V11.2394ZM63.2628 16.0727C64.3293 16.0727 65.3222 15.8809 66.2416 15.459C67.1978 15.037 68.0069 14.4616 68.7056 13.7328C69.4043 13.004 69.956 12.16 70.3605 11.1627C70.765 10.1653 70.9489 9.12962 70.9489 8.05554C70.9489 6.94311 70.765 5.9074 70.3605 4.94841C69.956 3.98941 69.4043 3.10714 68.7056 2.3783C68.0069 1.64947 67.1978 1.07407 66.2416 0.652114C65.2855 0.230157 64.2925 0.0383591 63.2628 0.0383591V2.1865C64.0351 2.1865 64.7706 2.33994 65.4326 2.64682C66.1313 2.9537 66.7197 3.37566 67.2346 3.91269C67.7494 4.44973 68.154 5.06348 68.4482 5.79232C68.7424 6.52115 68.8895 7.24999 68.8895 8.05554C68.8895 8.8611 68.7424 9.62829 68.4482 10.3188C68.154 11.0476 67.7494 11.6614 67.2346 12.1984C66.7197 12.7354 66.1313 13.1574 65.4326 13.4643C64.7338 13.7711 64.0351 13.9246 63.2628 13.9246V16.0727ZM60.1736 8.05554C60.1736 8.51586 60.2472 8.89946 60.4311 9.32142C60.5782 9.70501 60.7988 10.0503 61.093 10.3571C61.3872 10.664 61.6814 10.8942 62.086 11.0476C62.4537 11.201 62.8583 11.3161 63.2996 11.3161V13.3875C62.6008 13.3875 61.9389 13.2341 61.3137 12.9656C60.6885 12.6971 60.1736 12.3135 59.6955 11.8148C59.2175 11.3161 58.8865 10.7791 58.5923 10.127C58.3348 9.47485 58.1877 8.82274 58.1877 8.05554C58.1877 7.32671 58.3348 6.63623 58.5923 5.98412C58.8497 5.332 59.2175 4.79497 59.6955 4.29629C60.1736 3.79761 60.6885 3.45237 61.3137 3.1455C61.9389 2.87698 62.5641 2.72354 63.2996 2.72354V4.79497C62.8583 4.79497 62.4905 4.87168 62.086 5.06348C61.7182 5.21692 61.3872 5.44708 61.093 5.75396C60.7988 6.06084 60.5782 6.36771 60.4311 6.78967C60.2472 7.17327 60.1736 7.59523 60.1736 8.05554ZM63.2628 0C62.1963 0 61.2033 0.191798 60.284 0.613755C59.3278 1.03571 58.5187 1.61111 57.82 2.33994C57.1212 3.06878 56.5696 3.91269 56.1651 4.91005C55.7605 5.9074 55.5767 6.94311 55.5767 8.01718C55.5767 9.12962 55.7605 10.1653 56.1651 11.1243C56.5696 12.0833 57.1212 12.9656 57.82 13.6944C58.5187 14.4233 59.3278 14.9987 60.284 15.4206C61.2401 15.8426 62.2331 16.0344 63.2628 16.0344V13.8862C62.4905 13.8862 61.755 13.7328 61.093 13.4259C60.3943 13.119 59.8059 12.6971 59.291 12.16C58.7762 11.623 58.3716 11.0092 58.0774 10.2804C57.7832 9.55157 57.6361 8.82274 57.6361 8.01718C57.6361 7.21163 57.7832 6.44443 58.0774 5.75396C58.3716 5.02513 58.7762 4.41137 59.291 3.87433C59.8059 3.3373 60.3943 2.91534 61.093 2.60846C61.7918 2.30158 62.4905 2.14814 63.2628 2.14814V0Z" fill="#BCBCBC"/>
<path d="M76.5944 14.1392V2.49752H79.8367V1.93356H76.2892V0H81.5913V4.22967H78.7686V16.0727H76.2511V14.1392H76.5944ZM76.2892 1.93356H72.7418V2.49752H75.9841V14.1392H76.2892V16.0727H73.7717V4.22967H70.949V0H76.2511V1.93356H76.2892Z" fill="#BCBCBC"/>
<path d="M89.2774 11.2394C89.7187 11.2394 90.0865 11.1627 90.491 10.9709C90.8588 10.8174 91.1898 10.5873 91.484 10.2804C91.7782 9.97353 91.9989 9.66665 92.146 9.24469C92.2931 8.8611 92.4034 8.43914 92.4034 7.97883C92.4034 7.51851 92.3298 7.13491 92.146 6.71295C91.9989 6.32936 91.7782 5.98412 91.484 5.67724C91.1898 5.37036 90.8956 5.1402 90.491 4.98676C90.1233 4.83333 89.7187 4.71825 89.2774 4.71825V2.64682C89.9762 2.64682 90.6381 2.80026 91.2266 3.06878C91.8517 3.3373 92.3666 3.72089 92.8447 4.21957C93.3228 4.71825 93.6538 5.25528 93.948 5.9074C94.2054 6.55951 94.3525 7.21163 94.3525 7.97883C94.3525 8.70766 94.2054 9.39813 93.948 10.0502C93.6905 10.7024 93.3228 11.2394 92.8447 11.7381C92.3666 12.2368 91.8517 12.582 91.2266 12.8889C90.6014 13.1574 89.9762 13.3108 89.2774 13.3108V11.2394ZM89.2774 16.0727C90.3439 16.0727 91.3369 15.8809 92.2563 15.459C93.2124 15.037 94.0215 14.4616 94.7203 13.7328C95.419 13.004 95.9706 12.16 96.3752 11.1627C96.7797 10.1653 96.9636 9.12962 96.9636 8.05554C96.9636 6.94311 96.7797 5.9074 96.3752 4.94841C95.9706 3.98941 95.419 3.10714 94.7203 2.3783C94.0215 1.64947 93.2124 1.07407 92.2563 0.652114C91.3001 0.230157 90.3072 0.0383591 89.2774 0.0383591V2.1865C90.0497 2.1865 90.7852 2.33994 91.4472 2.64682C92.1459 2.9537 92.7344 3.37566 93.2492 3.91269C93.7641 4.44973 94.1686 5.06348 94.4628 5.79232C94.757 6.52115 94.9041 7.24999 94.9041 8.05554C94.9041 8.8611 94.757 9.62829 94.4628 10.3188C94.1686 11.0476 93.7641 11.6614 93.2492 12.1984C92.7344 12.7354 92.1459 13.1574 91.4472 13.4643C90.7485 13.7711 90.0497 13.9246 89.2774 13.9246V16.0727ZM86.1883 8.05554C86.1883 8.51586 86.2618 8.89946 86.4457 9.32142C86.5928 9.70501 86.8135 10.0503 87.1077 10.3571C87.4019 10.664 87.6961 10.8942 88.1006 11.0476C88.4684 11.201 88.8729 11.3161 89.3142 11.3161V13.3875C88.6155 13.3875 87.9535 13.2341 87.3283 12.9656C86.7031 12.6971 86.1883 12.3135 85.7102 11.8148C85.2321 11.3161 84.9011 10.7791 84.6069 10.127C84.3495 9.47485 84.2024 8.82274 84.2024 8.05554C84.2024 7.32671 84.3495 6.63623 84.6069 5.98412C84.8644 5.332 85.2321 4.79497 85.7102 4.29629C86.1883 3.79761 86.7031 3.45237 87.3283 3.1455C87.9535 2.87698 88.5787 2.72354 89.3142 2.72354V4.79497C88.8729 4.79497 88.5052 4.87168 88.1006 5.06348C87.7329 5.21692 87.4019 5.44708 87.1077 5.75396C86.8135 6.06084 86.5928 6.36771 86.4457 6.78967C86.2986 7.17327 86.1883 7.59523 86.1883 8.05554ZM89.2774 0C88.2109 0 87.218 0.191798 86.2986 0.613755C85.3792 1.03571 84.5334 1.61111 83.8346 2.33994C83.1359 3.06878 82.5843 3.91269 82.1797 4.91005C81.7752 5.9074 81.5913 6.94311 81.5913 8.01718C81.5913 9.12962 81.7752 10.1653 82.1797 11.1243C82.5843 12.0833 83.1359 12.9656 83.8346 13.6944C84.5334 14.4233 85.3424 14.9987 86.2986 15.4206C87.2548 15.8426 88.2477 16.0344 89.2774 16.0344V13.8862C88.5051 13.8862 87.7696 13.7328 87.1077 13.4259C86.4089 13.119 85.8205 12.6971 85.3057 12.16C84.7908 11.623 84.3863 11.0092 84.0921 10.2804C83.7978 9.55157 83.6508 8.82274 83.6508 8.01718C83.6508 7.21163 83.7978 6.44443 84.0921 5.75396C84.3863 5.02513 84.7908 4.41137 85.3057 3.87433C85.8205 3.3373 86.4089 2.91534 87.1077 2.60846C87.8064 2.30158 88.5051 2.14814 89.2774 2.14814V0Z" fill="#BCBCBC"/>
<path d="M100.383 3.81594L101.665 0.915826H101.024L100.383 2.36588V0H104.058L101.323 6.14366H100.383V3.81594ZM99.1004 5.26599H99.7415L100.383 3.81594V6.18182H96.9634L99.1859 0.0381588H100.383V2.40404L99.1004 5.26599Z" fill="#BCBCBC"/>
<path d="M108.583 13.8862C108.77 13.8479 108.957 13.8095 109.181 13.7711C109.592 13.6561 109.929 13.5026 110.228 13.2725C110.527 13.0423 110.789 12.7354 110.976 12.3902C111.163 12.045 111.237 11.5846 111.237 11.086C111.237 10.6256 111.125 10.2037 110.901 9.82009C110.677 9.43649 110.415 9.0529 110.078 8.6693C109.742 8.2857 109.368 7.94046 108.994 7.63359C108.844 7.48015 108.695 7.36507 108.545 7.21163V2.7619C108.657 2.7619 108.807 2.7619 108.919 2.7619C109.031 2.7619 109.143 2.7619 109.293 2.7619C109.405 2.7619 109.555 2.7619 109.667 2.80026C109.779 2.80026 109.891 2.83862 110.041 2.83862V2.22487C109.929 2.22487 109.817 2.22486 109.704 2.1865C109.592 2.1865 109.48 2.14814 109.368 2.14814C109.256 2.14814 109.106 2.14814 108.994 2.14814C108.844 2.14814 108.732 2.14814 108.583 2.14814V0C108.695 0 108.807 0 108.919 0C109.293 0 109.63 0.0383591 110.003 0.0383591C110.377 0.0767189 110.676 0.11508 110.976 0.15344C111.312 0.191799 111.611 0.23016 111.948 0.306879V4.60317C111.836 4.60317 111.686 4.56481 111.536 4.56481C111.424 4.56481 111.275 4.52645 111.125 4.52645C110.976 4.52645 110.826 4.48809 110.639 4.48809C110.564 4.48809 110.452 4.48809 110.303 4.48809C110.153 4.48809 110.041 4.52645 109.929 4.52645C109.817 4.56481 109.704 4.60317 109.63 4.67989C109.555 4.75661 109.48 4.87169 109.48 4.98676C109.48 5.10184 109.592 5.25528 109.779 5.44708C109.966 5.63888 110.228 5.83068 110.527 6.0992C110.826 6.32936 111.125 6.63623 111.499 6.94311C111.836 7.24999 112.172 7.63359 112.471 8.05554C112.77 8.4775 112.995 8.93782 113.219 9.43649C113.406 9.97353 113.518 10.5489 113.518 11.1627C113.518 11.8532 113.406 12.4669 113.219 13.0423C112.995 13.6177 112.696 14.1547 112.247 14.5767C111.798 14.9987 111.237 15.3439 110.564 15.6124C110.003 15.8042 109.368 15.9576 108.62 15.996V13.8862H108.583ZM108.583 7.94046V13.2725C109.143 13.1957 109.592 13.0039 109.929 12.7354C110.415 12.3518 110.639 11.7764 110.639 11.0476C110.639 10.664 110.527 10.2804 110.303 9.89681C110.078 9.51321 109.817 9.16798 109.48 8.82274C109.218 8.55422 108.919 8.24734 108.583 7.94046ZM105.891 13.6944C106.115 13.7328 106.339 13.7711 106.564 13.8095C106.788 13.8479 106.975 13.8862 107.237 13.8862C107.461 13.9246 107.685 13.9246 107.947 13.9246C108.171 13.9246 108.358 13.9246 108.583 13.8862V16.0727C108.433 16.0727 108.246 16.0727 108.097 16.0727C107.536 16.0727 107.012 16.0344 106.526 15.996C106.04 15.9576 105.629 15.8809 105.255 15.8042C104.806 15.7275 104.432 15.6508 104.058 15.5357V10.9325C104.395 11.0476 104.731 11.1243 105.068 11.201C105.367 11.2778 105.704 11.3545 106.077 11.3928C106.451 11.4312 106.825 11.4696 107.237 11.4696C107.91 11.4696 108.284 11.201 108.284 10.7024C108.284 10.5106 108.171 10.3188 107.984 10.0886C107.76 9.89681 107.498 9.66665 107.199 9.39813C106.863 9.12962 106.526 8.8611 106.19 8.55422C105.816 8.24734 105.479 7.9021 105.143 7.51851C104.806 7.13491 104.544 6.67459 104.357 6.17592C104.133 5.67724 104.058 5.10184 104.058 4.44973C104.058 3.72089 104.171 3.10714 104.432 2.53174C104.694 1.99471 105.031 1.53439 105.479 1.15079C105.928 0.767195 106.451 0.498678 107.05 0.306879C107.536 0.15344 108.097 0.0383591 108.62 0.0383591V2.1865C107.984 2.22486 107.461 2.41666 107.05 2.72354C106.526 3.10714 106.264 3.68253 106.264 4.48809C106.264 4.91004 106.377 5.332 106.601 5.67724C106.825 6.06084 107.087 6.40607 107.424 6.78967C107.76 7.13491 108.134 7.48015 108.508 7.82539L108.657 7.94046V13.2725C108.47 13.3108 108.246 13.3108 108.022 13.3108C107.498 13.3108 107.05 13.2725 106.638 13.1957C106.414 13.1574 106.19 13.119 106.003 13.0807V13.6944H105.891ZM108.583 7.21163V2.7619C108.022 2.80026 107.61 2.9537 107.311 3.18386C106.975 3.49074 106.788 3.91269 106.788 4.44973C106.788 4.83333 106.9 5.17856 107.124 5.5238C107.349 5.86904 107.61 6.21428 107.947 6.55951C108.134 6.78967 108.358 6.98147 108.583 7.21163Z" fill="#BCBCBC"/>
</svg>
