<svg width="123" height="99" viewBox="0 0 123 99" fill="none" xmlns="http://www.w3.org/2000/svg">
<g clip-path="url(#clip0_33_126)">
<path d="M0.646151 30.4158L61.4761 30.5658C61.501 30.5658 61.5258 30.5658 61.5507 30.5658L122.331 30.4158C122.604 30.4158 122.778 30.891 122.629 31.2162L115.572 51.1515C115.448 51.4267 115.423 51.7769 115.547 52.077L122.704 71.187C122.828 71.5371 122.654 71.9624 122.406 71.9624L61.5755 55.6539C61.5507 55.6539 61.5258 55.6539 61.501 55.6539L0.646151 71.9874C0.372814 71.9874 0.198872 71.5371 0.347965 71.187L7.45474 53.7279C7.57898 53.4277 7.57898 53.1026 7.45474 52.8274L0.347965 31.2162C0.198872 30.866 0.372814 30.4158 0.646151 30.4158Z" fill="#009640"/>
<path d="M122.306 30.1405C122.381 30.1405 122.455 30.1655 122.53 30.1905C122.679 30.2656 122.778 30.3656 122.853 30.5157C122.927 30.6408 122.952 30.7908 122.952 30.9409C122.952 31.066 122.927 31.2161 122.878 31.3411L122.306 32.9419V31.2161L122.331 31.166V31.141C122.356 31.091 122.356 31.041 122.356 30.9659C122.356 30.8909 122.331 30.8409 122.306 30.7908C122.306 30.7658 122.281 30.7658 122.281 30.7408V30.1405H122.306ZM122.306 69.4109L122.952 71.1118C123.002 71.2368 123.027 71.3619 123.027 71.462C123.027 71.612 122.977 71.7871 122.927 71.9122C122.853 72.0623 122.729 72.1873 122.579 72.2374C122.53 72.2624 122.455 72.2624 122.381 72.2624H122.356H122.331V71.6621L122.381 71.6871C122.381 71.6871 122.406 71.6621 122.406 71.6371C122.43 71.587 122.455 71.512 122.455 71.462C122.455 71.4119 122.455 71.3619 122.43 71.3119L122.331 71.0618V69.4109H122.306ZM61.501 30.2656C61.5258 30.2656 61.5258 30.2656 61.5507 30.2656L122.306 30.1155V30.6908L61.5507 30.8409H61.5258V30.2656H61.501ZM122.306 32.9169L115.796 51.2765V51.3015C115.746 51.4015 115.721 51.5266 115.721 51.6517C115.721 51.7767 115.746 51.9018 115.771 52.0018L122.306 69.4359V71.0868L115.224 52.227C115.15 52.0519 115.125 51.8518 115.125 51.6517C115.125 51.4516 115.174 51.2765 115.249 51.1014L122.281 31.2411V32.9169H122.306ZM122.306 72.2874V71.6871L61.6004 55.4286H61.5507C61.5258 55.4286 61.501 55.4286 61.4761 55.4286V56.0039L122.306 72.2874ZM0.646139 30.1405L61.4513 30.2906C61.4761 30.2906 61.501 30.2906 61.501 30.2906V30.8659H61.4761L0.646139 30.7158V30.1405ZM61.501 55.9789L0.720685 72.2624H0.670988H0.646139V71.6621L61.4016 55.3786H61.4513C61.4761 55.3786 61.501 55.3786 61.501 55.3786V55.9789ZM0.646139 69.686V71.2118L7.72806 53.8278C7.80261 53.6527 7.82746 53.4526 7.82746 53.2525C7.82746 53.0524 7.80261 52.8773 7.72806 52.7022L0.646139 31.2161V33.067L7.18139 52.9273V52.9523C7.23108 53.0524 7.25593 53.1775 7.25593 53.3025C7.25593 53.4276 7.23108 53.5527 7.18139 53.6527L0.646139 69.686ZM0.646139 30.1405V30.7158C0.646139 30.7158 0.62129 30.7408 0.62129 30.7658C0.596441 30.8158 0.571592 30.8909 0.571592 30.9409C0.571592 30.9909 0.571592 31.041 0.596441 31.091V31.116L0.62129 31.191V33.042L0.0497663 31.3161C6.85826e-05 31.191 -0.0247803 31.066 -0.0247803 30.9409C-0.0247803 30.7908 6.85789e-05 30.6157 0.0746151 30.4907C0.149162 30.3406 0.273406 30.2155 0.39765 30.1655C0.497046 30.1405 0.571592 30.1405 0.646139 30.1405ZM0.646139 72.2874C0.571592 72.2874 0.497046 72.2624 0.447348 72.2374C0.298255 72.1873 0.198859 72.0623 0.124313 71.9122C0.0249174 71.7871 6.85807e-05 71.6371 6.85807e-05 71.462C6.85807e-05 71.3369 0.0249174 71.2118 0.0746151 71.0868L0.646139 69.686V71.2118L0.62129 71.2869C0.596441 71.3369 0.596441 71.3869 0.596441 71.437C0.596441 71.512 0.62129 71.562 0.646139 71.612C0.646139 71.6371 0.670988 71.6371 0.670988 71.6621V72.2874H0.646139Z" fill="#009640"/>
<path d="M65.2501 94.4711C89.937 92.4145 108.293 70.6024 106.25 45.7523C104.207 20.9023 82.5382 2.42461 57.8513 4.48123C33.1643 6.53786 14.8079 28.35 16.851 53.2C18.8941 78.0501 40.5632 96.5278 65.2501 94.4711Z" fill="#E30613"/>
<path d="M12.3251 49.4757C12.5984 70.1864 25.2465 88.646 44.554 95.9748C63.7622 103.254 86.4492 97.0504 99.4451 81.0921C112.516 65.0338 114.479 41.8467 103.769 23.9624C93.0838 6.15315 72.1859 -3.0016 51.9341 0.87541C28.9489 5.30271 12.6232 26.2636 12.3251 49.4757C12.2505 55.1536 21.0222 55.1536 21.0967 49.4757C21.3203 32.6669 31.5829 17.1339 47.4365 11.2808C63.3894 5.40276 81.4794 10.2303 92.5123 23.212C103.495 36.1687 105.036 55.3787 96.4881 70.0363C87.8904 84.794 70.3968 92.8982 53.6735 89.4464C34.7636 85.5444 21.3452 68.8107 21.0967 49.4757C21.0222 43.7977 12.2505 43.7977 12.3251 49.4757Z" fill="#009640"/>
<path d="M47.0638 77.7151C47.2129 78.0153 47.2129 78.5406 46.7408 79.341C46.0947 80.4916 44.9268 82.5426 44.1565 84.2685C44.1068 84.3686 44.082 84.3936 43.9826 84.2935C43.8335 84.1435 43.7092 83.7683 43.9329 83.1179C44.4547 81.6672 45.9208 78.9408 46.7905 77.7151C46.9147 77.5901 46.9893 77.5901 47.0638 77.7151Z" fill="white"/>
<path d="M47.188 77.6652C47.2874 77.8653 47.3123 78.1155 47.2626 78.4406C47.2129 78.7158 47.0886 79.0159 46.865 79.4161L46.8401 79.4411C46.4922 80.0665 45.9704 80.9669 45.4734 81.9174V81.3171C45.8959 80.5417 46.2935 79.8414 46.5916 79.3161L46.6165 79.2911C46.8153 78.9409 46.9147 78.6407 46.9644 78.4156C47.0141 78.1405 46.9892 77.9654 46.9147 77.8153C46.5171 78.3906 45.9953 79.2911 45.4734 80.2416V79.6412C45.8959 78.8658 46.3431 78.1405 46.6662 77.6652C46.7159 77.6152 46.7656 77.5652 46.8153 77.5402C46.865 77.5151 46.8898 77.5151 46.9395 77.5151C46.9892 77.5151 47.0141 77.5402 47.0638 77.5652C47.1135 77.5402 47.1632 77.5902 47.188 77.6652ZM45.4983 81.9174C45.0759 82.7178 44.6534 83.5433 44.3055 84.3187C44.2558 84.4187 44.2062 84.4688 44.1316 84.4938C44.1068 84.4938 44.1068 84.4938 44.0819 84.4938V84.1936V84.0936C44.5043 83.1681 45.0013 82.1926 45.4983 81.2921V81.9174ZM44.0819 82.4427V83.2181L44.1068 83.1681C44.3552 82.4927 44.8025 81.5172 45.3243 80.5667C45.374 80.4417 45.4486 80.3416 45.4983 80.2165V79.6162C45.3492 79.8914 45.2001 80.1665 45.051 80.4166C44.6783 81.142 44.3304 81.8424 44.0819 82.4427ZM44.0819 84.5188C44.0074 84.5188 43.9577 84.4688 43.8831 84.3937C43.7837 84.2937 43.6843 84.0936 43.6843 83.8184C43.6843 83.6183 43.7092 83.3682 43.8086 83.068C43.8831 82.8679 43.9577 82.6678 44.0571 82.4177V83.1931C43.9825 83.4432 43.9577 83.6183 43.9577 83.7934C43.9577 83.9435 44.0074 84.0685 44.0571 84.1436V84.1186V84.2186V84.5188H44.0819Z" fill="white"/>
<path d="M49.2504 78.7658C48.6292 78.7908 48.1571 78.5657 48.0577 78.1655C48.0328 78.0654 48.0577 78.0154 48.1819 78.0154C49.1262 78.0904 50.8656 77.6902 51.462 77.7152C51.9093 77.7152 52.3068 77.8403 52.4559 78.2655C52.4808 78.3406 52.4559 78.4406 52.3317 78.4156C51.8099 78.3656 51.1638 78.4656 50.5426 78.5657C50.5426 78.8158 50.468 79.166 50.1947 79.6913C49.5735 80.8419 48.6789 82.3176 47.8589 84.2686C47.8092 84.3687 47.7595 84.3687 47.685 84.2937C47.5359 84.1436 47.4116 83.8434 47.5607 83.3182C47.8092 82.4427 48.9274 80.1415 49.9214 78.6657C49.6729 78.7158 49.4492 78.7408 49.2504 78.7658Z" fill="white"/>
<path d="M49.971 77.7404L50.2443 77.7154C50.7661 77.6404 51.2134 77.5903 51.4867 77.5903C51.7352 77.5903 51.9589 77.6404 52.1577 77.7154C52.3565 77.8154 52.5304 77.9655 52.6298 78.2157C52.6546 78.2657 52.6546 78.3157 52.6546 78.3407C52.6546 78.3907 52.6298 78.4158 52.6049 78.4658C52.5801 78.4908 52.5552 78.5408 52.5055 78.5408C52.4559 78.5658 52.4062 78.5658 52.3565 78.5658C52.108 78.5408 51.8346 78.5658 51.5364 78.5909C51.2631 78.6159 50.9898 78.6659 50.7413 78.7159C50.7413 78.816 50.7164 78.941 50.6667 79.0911C50.617 79.2912 50.5176 79.5163 50.3685 79.7915C50.2692 79.9666 50.1449 80.1917 50.0207 80.4168V79.8165L50.1201 79.6414C50.2443 79.3913 50.3437 79.1912 50.3934 79.0161C50.4431 78.841 50.4679 78.7159 50.4431 78.5909V78.4658L50.5673 78.4408C50.8655 78.3907 51.1886 78.3407 51.5116 78.2907C51.8098 78.2657 52.108 78.2407 52.3565 78.2657C52.2819 78.1156 52.1825 78.0156 52.0583 77.9655C51.9092 77.8905 51.7104 77.8655 51.5116 77.8655C51.2631 77.8655 50.8407 77.9155 50.3189 77.9905L50.0207 78.0406V77.7404H49.971ZM49.971 78.841L50.0207 78.7659L50.1946 78.4908L49.9461 78.5408V78.841H49.971ZM49.2752 78.891C48.9273 78.891 48.654 78.841 48.4055 78.7409C48.157 78.6159 47.9831 78.4408 47.9334 78.1906C47.9085 78.1406 47.9085 78.1156 47.9085 78.0656C47.9085 78.0156 47.9334 77.9905 47.9582 77.9405C47.9831 77.9155 48.0079 77.8905 48.0576 77.8655C48.0825 77.8655 48.1322 77.8405 48.1818 77.8655C48.654 77.8905 49.3249 77.8154 49.971 77.7404V78.0406C49.3497 78.1156 48.7037 78.2157 48.2316 78.1656C48.2812 78.2907 48.4055 78.4158 48.5546 78.4908C48.7285 78.5908 48.977 78.6409 49.2752 78.6159C49.3746 78.6159 49.474 78.5909 49.5734 78.5909C49.6728 78.5909 49.797 78.5658 49.8964 78.5408L49.9958 78.5158V78.841C49.5485 79.5413 49.0516 80.4168 48.654 81.2172C48.2067 82.1177 47.834 82.9181 47.7097 83.3683C47.66 83.5684 47.6352 83.7435 47.66 83.8686C47.6849 83.9937 47.7097 84.0687 47.7594 84.1437C48.4055 82.5929 49.1261 81.3423 49.6976 80.3167C49.797 80.1417 49.8964 79.9666 49.9958 79.7915V80.3918L49.9461 80.4668C49.3746 81.4924 48.654 82.768 48.0079 84.3188C47.9582 84.4189 47.9085 84.4689 47.834 84.4939C47.7594 84.4939 47.6849 84.4689 47.6103 84.3939C47.5109 84.2938 47.4115 84.1437 47.3867 83.9186C47.3618 83.7435 47.3618 83.5434 47.4364 83.2933C47.5606 82.8431 47.9334 81.9926 48.3806 81.0922C48.7534 80.3418 49.2007 79.5413 49.6231 78.866H49.5982C49.474 78.891 49.3746 78.891 49.2752 78.891Z" fill="white"/>
<path d="M54.0464 81.9424C54.1955 80.8418 54.4937 79.5161 54.8167 78.6907C54.4191 79.1409 53.9719 79.6912 53.5494 80.2665V79.0909C53.9967 78.5156 54.4688 78.0404 54.8664 77.6902C55.0404 77.5401 55.1398 77.5401 55.2392 77.6902C55.3385 77.8403 55.3634 77.8653 55.4876 78.1154C55.587 78.3655 55.587 78.5907 55.4876 78.8908C55.2143 79.7162 54.9161 80.8168 54.7173 81.9674C55.0404 82.0675 55.1398 82.2926 55.1895 82.5177C55.2143 82.6178 55.1646 82.6428 55.0652 82.6178C54.941 82.5927 54.7919 82.5677 54.6179 82.5427C54.5434 83.093 54.4688 83.6683 54.4688 84.2436C54.4688 84.3437 54.3943 84.3937 54.3197 84.3437C54.121 84.2436 53.947 83.9935 53.9222 83.3681C53.9222 83.168 53.9222 82.8929 53.9719 82.5677C53.8476 82.5677 53.6985 82.5927 53.5494 82.5927V81.9424C53.7234 81.9424 53.8725 81.9424 54.0464 81.9424ZM53.5494 80.2665C53.1021 80.8668 52.6797 81.4922 52.2821 82.1175C52.7294 82.0925 53.1767 82.0174 53.5494 81.9674V82.6178C52.9282 82.6678 52.2821 82.7678 51.8597 82.7428C51.5367 83.2931 51.2633 83.7934 51.0645 84.2686C51.0148 84.3687 50.9154 84.3687 50.8657 84.2936C50.7415 84.1185 50.6918 83.8184 50.9154 83.2181C50.99 83.068 51.0645 82.8429 51.1888 82.6178C50.9651 82.4927 50.8657 82.3426 50.8409 82.2676C50.7912 82.1175 50.816 82.0925 50.9651 82.1175C51.1142 82.1425 51.2633 82.1675 51.4373 82.1675C51.9591 81.2671 52.7294 80.0914 53.5246 79.1159V80.2665H53.5494Z" fill="white"/>
<path d="M53.922 81.7924C53.9966 81.2422 54.1208 80.6418 54.2451 80.0666C54.2947 79.8164 54.3693 79.5663 54.4438 79.3162C54.1954 79.6413 53.922 79.9915 53.6487 80.3417C53.599 80.4167 53.5493 80.4668 53.4996 80.5418V80.0666C53.922 79.5163 54.3444 78.991 54.7172 78.5658L55.2639 77.9655C55.239 77.9154 55.2142 77.8904 55.1893 77.8404L55.1396 77.7904C55.1148 77.7654 55.0899 77.7403 55.0899 77.7403C55.0651 77.7403 55.0154 77.7654 54.9657 77.8154C54.5184 78.1906 53.9966 78.7659 53.4996 79.3912V78.916C53.9469 78.3657 54.3693 77.9154 54.7669 77.5653C54.8663 77.4652 54.9657 77.4402 55.0651 77.4402C55.1645 77.4402 55.2639 77.4902 55.3384 77.6153L55.3881 77.6653C55.4626 77.7654 55.5123 77.8404 55.6117 78.0655C55.6614 78.2156 55.7111 78.3406 55.6863 78.4907C55.6863 78.6408 55.6614 78.7659 55.6117 78.941C55.4626 79.3912 55.3136 79.9165 55.1645 80.4668C55.0651 80.917 54.9408 81.3922 54.8663 81.8675C54.9905 81.9175 55.0899 82.0176 55.1645 82.0926C55.2639 82.2177 55.3135 82.3427 55.3384 82.4678C55.3384 82.5178 55.3384 82.5678 55.3384 82.6179C55.3384 82.6429 55.3136 82.6679 55.2887 82.6929C55.2639 82.7179 55.239 82.7429 55.1893 82.7429C55.1396 82.7429 55.0899 82.7429 55.0402 82.7429C54.9905 82.7179 54.916 82.7179 54.8414 82.7179C54.8166 82.7179 54.7669 82.7179 54.742 82.7179C54.7172 82.943 54.6923 83.1932 54.6675 83.4183C54.6426 83.6934 54.6178 83.9686 54.6178 84.2437C54.6178 84.2937 54.6178 84.3438 54.5929 84.3688C54.5681 84.4188 54.5432 84.4438 54.5184 84.4688C54.4935 84.4939 54.4438 84.4938 54.3941 84.4938C54.3444 84.4938 54.3196 84.4939 54.2699 84.4688C54.1457 84.4188 54.0214 84.2937 53.922 84.0936C53.8475 83.9186 53.7978 83.6934 53.7978 83.3683C53.7978 83.2682 53.7978 83.1181 53.7978 82.9681C53.7978 82.893 53.7978 82.818 53.8226 82.7179C53.7232 82.7179 53.6238 82.7429 53.5244 82.7429V82.4428C53.6735 82.4178 53.8226 82.4178 53.9717 82.3928H54.1457L54.1208 82.5679C54.096 82.7179 54.096 82.843 54.096 82.9681C54.096 83.1181 54.096 83.2432 54.096 83.3433C54.096 83.6184 54.1457 83.8185 54.1954 83.9436C54.2451 84.0436 54.2947 84.0936 54.3444 84.1437C54.3444 83.8685 54.3693 83.6184 54.3941 83.3433C54.419 83.0431 54.4687 82.768 54.4935 82.4928L54.5184 82.3677H54.6426C54.742 82.3677 54.8166 82.3928 54.8911 82.3928C54.9408 82.3928 54.9905 82.4178 55.0402 82.4178C55.0154 82.3677 54.9905 82.3177 54.9657 82.2677C54.916 82.1927 54.8166 82.1426 54.6923 82.0926L54.5681 82.0426L54.5929 81.9175C54.6923 81.3672 54.7917 80.867 54.916 80.3667C55.0651 79.7914 55.2142 79.2661 55.3632 78.8159C55.4129 78.6908 55.4378 78.5658 55.4378 78.4657C55.4378 78.3657 55.4129 78.2656 55.3632 78.1405C55.3136 78.0405 55.2887 77.9655 55.2639 77.9154L54.9657 78.6658C54.8166 79.041 54.6675 79.5413 54.5432 80.0916C54.3941 80.6919 54.2699 81.3172 54.1954 81.8925L54.1705 82.0176H54.0463C53.8723 82.0176 53.6984 82.0426 53.4996 82.0676V81.7674C53.6487 81.8175 53.7729 81.7924 53.922 81.7924ZM53.4996 80.5668C53.1766 81.017 52.8535 81.4673 52.5553 81.9425C52.7293 81.9175 52.9032 81.8925 53.0523 81.8925C53.2014 81.8675 53.3505 81.8425 53.4996 81.8425V82.1426C53.3753 82.1676 53.2262 82.1676 53.0772 82.1927C52.8038 82.2177 52.5553 82.2677 52.282 82.2927L51.9838 82.3177L52.1329 82.0676C52.5305 81.4423 52.9778 80.8169 53.4002 80.2166L53.4747 80.1166V80.5668H53.4996ZM53.4996 78.916C53.3753 79.066 53.2511 79.2411 53.1269 79.3912C52.4808 80.2416 51.8347 81.2171 51.3874 81.9925C51.3377 81.9925 51.288 81.9926 51.2383 81.9675C51.1638 81.9675 51.0892 81.9425 51.0147 81.9425C50.9899 81.9425 50.9899 81.9425 50.965 81.9425V82.1927V82.6179C50.9899 82.6429 50.9899 82.6429 51.0147 82.6679C50.9899 82.7179 50.965 82.7429 50.965 82.768V83.5684C50.9899 83.4683 51.0147 83.3683 51.0644 83.2682C51.0892 83.1932 51.1389 83.0931 51.1886 82.9681C51.2383 82.868 51.288 82.768 51.3377 82.6679L51.4123 82.5428L51.288 82.4678C51.1886 82.4178 51.1141 82.3677 51.0892 82.2927C51.0644 82.2677 51.0395 82.2427 51.0395 82.2177C51.0892 82.2177 51.1638 82.2427 51.2135 82.2427C51.288 82.2427 51.3874 82.2677 51.462 82.2677H51.5614L51.6111 82.1927C52.0584 81.4173 52.7044 80.4167 53.3753 79.5413C53.425 79.4662 53.4747 79.4162 53.5244 79.3412V78.916H53.4996ZM53.4996 82.4678V82.768C53.3505 82.793 53.2262 82.793 53.102 82.818C52.6796 82.868 52.2571 82.893 51.959 82.918C51.8099 83.1682 51.6856 83.3933 51.5614 83.6434C51.4371 83.8935 51.3129 84.1437 51.2135 84.3688C51.1886 84.4188 51.1638 84.4688 51.1141 84.4938C51.0892 84.5189 51.0395 84.5439 50.9899 84.5439H50.965V84.1937C51.0644 83.9936 51.1638 83.7685 51.288 83.5434C51.4123 83.2932 51.5614 83.0181 51.7353 82.7429L51.785 82.6679H51.8596C52.1577 82.6679 52.5802 82.6179 53.0523 82.5929C53.2014 82.4928 53.3505 82.4928 53.4996 82.4678ZM50.965 81.9425V82.1927V82.6179C50.9153 82.5678 50.8905 82.5428 50.8408 82.4928C50.7662 82.4178 50.7414 82.3427 50.7165 82.2927C50.6668 82.1676 50.6668 82.0926 50.7165 82.0176C50.7662 81.9675 50.8408 81.9425 50.965 81.9425ZM50.965 82.768V83.5684C50.9402 83.6934 50.9153 83.8185 50.9153 83.9186C50.9153 84.0186 50.9402 84.0936 50.965 84.1687V84.1437V84.4938C50.9402 84.4938 50.8905 84.4939 50.8656 84.4688C50.8159 84.4438 50.7911 84.4188 50.7662 84.3688C50.6917 84.2687 50.642 84.1187 50.642 83.8935C50.642 83.6934 50.6917 83.4683 50.8159 83.1431C50.8408 83.0431 50.8905 82.943 50.9402 82.843C50.9402 82.818 50.9402 82.793 50.965 82.768Z" fill="white"/>
<path d="M58.2705 83.3432C58.7924 83.2932 59.0906 83.4933 59.1899 83.8185C59.2148 83.8935 59.2148 83.9686 59.0906 83.9686C58.5687 83.9686 57.4008 84.2187 56.8045 84.3938C56.556 84.4688 56.4566 84.4688 56.3323 84.2937C56.2329 84.1437 56.1087 83.9686 56.059 83.8435C55.9845 83.6684 55.9844 83.4933 56.0838 83.2182C56.5808 81.9175 58.3202 78.6908 58.9663 77.7903C59.0657 77.6653 59.1651 77.6653 59.2148 77.8154C59.339 78.0905 59.3887 78.5157 58.9415 79.3161C58.3948 80.3167 57.4257 81.9425 56.6554 83.6434C57.2766 83.4933 57.873 83.3933 58.2705 83.3432Z" fill="white"/>
<path d="M58.2706 83.1934C58.5439 83.1684 58.7676 83.2184 58.9415 83.2934C59.1403 83.3935 59.2646 83.5686 59.3391 83.7687C59.364 83.8437 59.3888 83.9187 59.3391 83.9938C59.3143 84.0688 59.2397 84.1189 59.0906 84.1189C58.8918 84.1189 58.5688 84.1689 58.2209 84.2189C58.047 84.2439 57.8482 84.2939 57.6494 84.344V84.0438C57.8233 84.0188 57.9973 83.9688 58.1712 83.9438C58.5191 83.8937 58.8173 83.8437 59.0409 83.8437C58.9912 83.7186 58.9167 83.6436 58.7924 83.5686C58.6682 83.4935 58.4942 83.4685 58.2706 83.4935C58.0967 83.5185 57.873 83.5436 57.6494 83.5686V83.2934C57.8979 83.2434 58.0967 83.2184 58.2706 83.1934ZM57.6494 79.7166C58.1215 78.8411 58.5688 78.0907 58.8421 77.7155C58.8918 77.6655 58.9415 77.6155 58.9912 77.5904C59.0409 77.5654 59.0658 77.5654 59.1155 77.5654C59.1652 77.5654 59.19 77.5904 59.2397 77.6155C59.2894 77.6405 59.3143 77.6905 59.3391 77.7655C59.4137 77.9156 59.4634 78.1157 59.4385 78.3909C59.4137 78.641 59.3143 78.9662 59.0906 79.3914C58.9415 79.6415 58.8173 79.8916 58.6682 80.1668C58.37 80.6921 58.0221 81.3424 57.6742 81.9927V81.3674C57.9476 80.8672 58.1961 80.4169 58.4197 79.9917C58.5936 79.6915 58.7427 79.4164 58.8421 79.2163C59.0409 78.8411 59.1403 78.566 59.1652 78.3408C59.19 78.1407 59.1652 77.9906 59.0906 77.8656C58.7924 78.2908 58.2209 79.2663 57.6494 80.3169V79.7166ZM57.6494 84.344C57.3512 84.419 57.053 84.4941 56.8294 84.5441C56.6803 84.5691 56.5809 84.5941 56.4815 84.5691C56.3572 84.5441 56.2827 84.494 56.2082 84.369C56.1585 84.2939 56.1088 84.2189 56.0591 84.1439C56.0094 84.0688 55.9597 83.9688 55.9348 83.8937C55.8851 83.7937 55.8603 83.6686 55.8851 83.5686C55.8851 83.4435 55.91 83.3434 55.9845 83.1684C56.233 82.543 56.7548 81.4675 57.3015 80.4169C57.4257 80.1918 57.55 79.9417 57.6742 79.7166V80.3169C57.6245 80.3919 57.5997 80.4669 57.55 80.542C57.0033 81.5675 56.4815 82.6431 56.233 83.2434C56.1833 83.3685 56.1585 83.4685 56.1585 83.5436C56.1585 83.6186 56.1585 83.6936 56.2082 83.7437C56.233 83.7937 56.2827 83.8687 56.3075 83.9438C56.3572 84.0188 56.4069 84.0938 56.4566 84.1689C56.4815 84.2189 56.5312 84.2439 56.556 84.2439C56.6057 84.2439 56.6803 84.2439 56.7797 84.2189C57.0282 84.1689 57.3264 84.0688 57.6742 84.0188V84.344H57.6494ZM57.6494 81.9927V81.3674C57.2767 82.0428 56.8791 82.8182 56.5312 83.5686L56.4069 83.8437L56.7051 83.7687C57.0033 83.6936 57.2767 83.6186 57.55 83.5686L57.6494 83.5436V83.2934C57.5997 83.2934 57.55 83.3184 57.5003 83.3184C57.3263 83.3435 57.1276 83.3935 56.9288 83.4435C57.1773 82.9432 57.4257 82.468 57.6494 81.9927Z" fill="white"/>
<path d="M63.6876 77.7151C63.8367 78.0153 63.8367 78.5406 63.3646 79.341C62.7185 80.4916 61.5506 82.5426 60.7803 84.2685C60.7306 84.3686 60.7058 84.3936 60.6064 84.2935C60.4573 84.1435 60.333 83.7683 60.5567 83.1179C61.0785 81.6672 62.5446 78.9408 63.4143 77.7151C63.5385 77.5901 63.6131 77.5901 63.6876 77.7151Z" fill="white"/>
<path d="M63.8119 77.6653C63.9113 77.8654 63.9362 78.1156 63.8865 78.4407C63.8368 78.7159 63.7125 79.016 63.4889 79.4162L63.464 79.4663C63.1161 80.0916 62.6192 80.967 62.0973 81.9175V81.3172C62.5198 80.5418 62.9174 79.8415 63.1907 79.3162L63.2155 79.2662C63.4143 78.916 63.5137 78.6158 63.5634 78.3907C63.6131 78.1156 63.5883 77.9405 63.5137 77.7904C63.1161 78.3657 62.5943 79.2662 62.0725 80.2167V79.6163C62.4949 78.8409 62.9422 78.1156 63.2652 77.6403C63.3149 77.5903 63.3646 77.5403 63.4143 77.5152C63.464 77.4902 63.4889 77.4902 63.5386 77.4902C63.5883 77.4902 63.6131 77.5153 63.6628 77.5403C63.7374 77.5403 63.7871 77.5903 63.8119 77.6653ZM62.1222 81.9175C61.6998 82.718 61.2773 83.5434 60.9294 84.3188C60.8798 84.4188 60.8301 84.4689 60.7555 84.4939C60.7307 84.4939 60.7307 84.4939 60.7058 84.4939V84.1937V84.0937C61.1034 83.1682 61.6252 82.1927 62.1222 81.2922V81.9175ZM60.7058 82.4178V83.1932V83.1682C60.9543 82.4928 61.4016 81.5173 61.9234 80.5668C61.9731 80.4418 62.0476 80.3417 62.0973 80.2167V79.6163C61.9482 79.8915 61.7992 80.1416 61.6501 80.4168C61.3022 81.1171 60.9543 81.8175 60.7058 82.4178ZM60.7058 84.5189C60.6313 84.5189 60.5816 84.4689 60.507 84.3938C60.4076 84.2938 60.3082 84.0937 60.3082 83.8185C60.3082 83.6184 60.3331 83.3683 60.4325 83.0681C60.507 82.868 60.5816 82.6429 60.681 82.4178V83.1932C60.6064 83.4433 60.5567 83.6434 60.5816 83.7935C60.5816 83.9436 60.6313 84.0687 60.681 84.1437L60.7058 84.1187V84.2187V84.5189Z" fill="white"/>
<path d="M66.4707 81.9424C66.6198 80.8418 66.918 79.5161 67.241 78.6907C66.8434 79.1409 66.3962 79.6912 65.9737 80.2665V79.0909C66.421 78.5156 66.8931 78.0404 67.2907 77.6902C67.4646 77.5401 67.564 77.5401 67.6634 77.6902C67.7628 77.8403 67.8125 77.8653 67.9119 78.1154C68.0113 78.3655 68.0113 78.5907 67.9119 78.8908C67.6386 79.7162 67.3404 80.8168 67.1416 81.9674C67.4647 82.0675 67.564 82.2926 67.6137 82.5177C67.6386 82.6178 67.5889 82.6428 67.4895 82.6178C67.3653 82.5927 67.2162 82.5677 67.0422 82.5427C66.9677 83.093 66.918 83.6683 66.8931 84.2436C66.8931 84.3437 66.8186 84.3937 66.744 84.3437C66.5452 84.2436 66.3713 83.9935 66.3465 83.3681C66.3465 83.168 66.3465 82.8929 66.3962 82.5677C66.2719 82.5677 66.1228 82.5927 65.9737 82.5927V81.9424C66.1477 81.9424 66.3216 81.9424 66.4707 81.9424ZM65.9737 80.2665C65.5264 80.8668 65.104 81.4922 64.7064 82.1175C65.1537 82.0925 65.601 82.0174 65.9737 81.9674V82.6178C65.3525 82.6678 64.7064 82.7678 64.284 82.7428C63.961 83.2931 63.6876 83.7934 63.4888 84.2686C63.4391 84.3687 63.3398 84.3687 63.2901 84.2936C63.1658 84.1185 63.1161 83.8184 63.3398 83.2181C63.4143 83.068 63.4888 82.8429 63.6131 82.6178C63.3895 82.4927 63.2901 82.3426 63.2652 82.2676C63.2155 82.1175 63.2404 82.0925 63.3895 82.1175C63.5385 82.1425 63.6876 82.1675 63.8616 82.1675C64.3834 81.2671 65.1537 80.0914 65.9489 79.1159V80.2665H65.9737Z" fill="white"/>
<path d="M66.3465 81.7924C66.421 81.2422 66.5452 80.6418 66.6695 80.0666C66.7192 79.8164 66.7937 79.5663 66.8683 79.3162C66.6198 79.6413 66.3465 79.9915 66.0731 80.3417C66.0234 80.4167 65.9737 80.4668 65.924 80.5418V80.0666C66.3465 79.5163 66.7689 78.991 67.1416 78.5658L67.6883 77.9655C67.6634 77.9154 67.6386 77.8904 67.6137 77.8404L67.564 77.7904C67.5392 77.7654 67.5144 77.7403 67.5144 77.7403C67.4895 77.7403 67.4398 77.7654 67.3901 77.8154C66.9428 78.1906 66.421 78.7659 65.924 79.3912V78.916C66.3713 78.3657 66.7937 77.9154 67.1913 77.5653C67.2907 77.4652 67.3901 77.4402 67.4895 77.4402C67.5889 77.4402 67.6883 77.4902 67.7628 77.6153L67.8125 77.6653C67.8871 77.7654 67.9368 77.8404 68.0362 78.0655C68.0859 78.2156 68.1356 78.3406 68.1107 78.4907C68.1107 78.6408 68.0859 78.7659 68.0362 78.941C67.8871 79.3912 67.738 79.9165 67.5889 80.4668C67.4895 80.917 67.3653 81.3922 67.2907 81.8925C67.415 81.9425 67.5143 82.0426 67.5889 82.1176C67.6883 82.2427 67.738 82.3677 67.7628 82.4928C67.7628 82.5428 67.7628 82.5929 67.7628 82.6429C67.7628 82.6679 67.738 82.6929 67.7131 82.7179C67.6883 82.7429 67.6634 82.7429 67.6137 82.768C67.564 82.768 67.5143 82.768 67.4647 82.768C67.415 82.7429 67.3404 82.7429 67.2659 82.7429C67.241 82.7429 67.1913 82.7429 67.1665 82.7429C67.1416 82.9681 67.1168 83.2182 67.0919 83.4433C67.0671 83.7184 67.0422 83.9936 67.0422 84.2687C67.0422 84.3188 67.0422 84.3688 67.0174 84.3938C66.9925 84.4438 66.9677 84.4688 66.9428 84.4938C66.918 84.5189 66.8683 84.5189 66.8186 84.5189C66.7689 84.5189 66.744 84.5189 66.6943 84.4938C66.5701 84.4438 66.4458 84.3188 66.3465 84.1187C66.2719 83.9436 66.2222 83.7184 66.2222 83.3933C66.2222 83.2932 66.2222 83.1431 66.2222 82.9931C66.2222 82.918 66.2222 82.843 66.2471 82.7429C66.1477 82.7429 66.0483 82.768 65.9489 82.768V82.4678C66.098 82.4428 66.2471 82.4428 66.3962 82.4178H66.5701L66.5452 82.5929C66.5204 82.7429 66.5204 82.868 66.5204 82.9931C66.5204 83.1431 66.5204 83.2682 66.5204 83.3683C66.5204 83.6434 66.5701 83.8435 66.6198 83.9686C66.6695 84.0686 66.7192 84.1187 66.7689 84.1687C66.7689 83.8935 66.7937 83.6434 66.8186 83.3683C66.8434 83.0681 66.8931 82.793 66.918 82.5178L66.9428 82.3928H67.0671C67.1665 82.3928 67.241 82.4178 67.3156 82.4178C67.3653 82.4178 67.415 82.4428 67.4647 82.4428C67.4398 82.3928 67.415 82.3427 67.3901 82.2927C67.3404 82.2177 67.241 82.1676 67.1168 82.1176L66.9925 82.0676L67.0174 81.9425C67.1168 81.3922 67.2162 80.892 67.3404 80.3917C67.4895 79.8164 67.6386 79.2911 67.7877 78.8409C67.8374 78.7159 67.8622 78.5908 67.8622 78.4907C67.8622 78.3907 67.8374 78.2906 67.7877 78.1656C67.738 78.0655 67.7131 77.9905 67.6883 77.9404L67.3901 78.6908C67.241 79.066 67.0919 79.5663 66.9677 80.1166C66.8186 80.7169 66.6943 81.3422 66.6198 81.9175L66.5949 82.0426H66.4707C66.2968 82.0426 66.1228 82.0676 65.924 82.0926V81.7924C66.0731 81.8175 66.2222 81.7924 66.3465 81.7924ZM65.924 80.5668C65.601 81.017 65.278 81.4673 64.9798 81.9425C65.1537 81.9175 65.3277 81.8925 65.4767 81.8925C65.6258 81.8675 65.7749 81.8425 65.924 81.8425V82.1426C65.7998 82.1676 65.6507 82.1676 65.5016 82.1927C65.2531 82.2177 64.9798 82.2677 64.7064 82.2927L64.4082 82.3177L64.5573 82.0676C64.9549 81.4423 65.4022 80.8169 65.8246 80.2166L65.8992 80.1166V80.5668H65.924ZM65.924 78.916C65.7998 79.066 65.6755 79.2411 65.5513 79.3912C64.9052 80.2416 64.2591 81.2171 63.8119 81.9925C63.7622 81.9925 63.7125 81.9926 63.6628 81.9675C63.5882 81.9675 63.5137 81.9425 63.4391 81.9425C63.4143 81.9425 63.4143 81.9425 63.3894 81.9425V82.1927V82.6179C63.4143 82.6429 63.4143 82.6429 63.4391 82.6679C63.4143 82.7179 63.3894 82.7429 63.3894 82.768V83.5684C63.4143 83.4683 63.4391 83.3683 63.4888 83.2682C63.5137 83.1932 63.5634 83.0931 63.6131 82.9681C63.6628 82.868 63.7125 82.768 63.7622 82.6679L63.8367 82.5428L63.7125 82.4678C63.6131 82.4178 63.5385 82.3677 63.5137 82.2927C63.4888 82.2677 63.464 82.2427 63.464 82.2177C63.5137 82.2177 63.5882 82.2427 63.6379 82.2427C63.7125 82.2427 63.8119 82.2677 63.8864 82.2677H63.9858L64.0355 82.1927C64.4828 81.4173 65.1289 80.4167 65.7998 79.5413C65.8495 79.4662 65.8992 79.4162 65.9489 79.3412V78.916H65.924ZM65.924 82.4678V82.768C65.7749 82.793 65.6507 82.793 65.5264 82.818C65.104 82.868 64.6816 82.893 64.3834 82.918C64.2343 83.1682 64.1101 83.3933 63.9858 83.6434C63.8616 83.8935 63.7373 84.1437 63.6379 84.3688C63.6131 84.4188 63.5882 84.4688 63.5385 84.4938C63.5137 84.5189 63.464 84.5439 63.4143 84.5439H63.3894V84.1937C63.4888 83.9686 63.5882 83.7685 63.7125 83.5434C63.8367 83.2932 63.9858 83.0181 64.1598 82.7429L64.2095 82.6679H64.284C64.5822 82.6679 65.0046 82.6179 65.4767 82.5929C65.6258 82.4928 65.7749 82.4928 65.924 82.4678ZM63.3894 81.9425V82.1927V82.6179C63.3397 82.5678 63.3149 82.5428 63.2652 82.4928C63.1907 82.4178 63.1658 82.3427 63.141 82.2927C63.0913 82.1676 63.0913 82.0926 63.141 82.0176C63.2155 81.9675 63.29 81.9425 63.3894 81.9425ZM63.3894 82.768V83.5684C63.3646 83.6934 63.3397 83.8185 63.3397 83.9186C63.3397 84.0186 63.3646 84.0936 63.3894 84.1687V84.1437V84.4938C63.3646 84.4938 63.3149 84.4939 63.29 84.4688C63.2403 84.4438 63.2155 84.4188 63.1907 84.3688C63.1161 84.2687 63.0664 84.1187 63.0664 83.8935C63.0664 83.6934 63.1161 83.4683 63.2403 83.1431C63.2652 83.0431 63.3149 82.943 63.3646 82.843L63.3894 82.768Z" fill="white"/>
<path d="M68.7569 84.2937C68.732 84.3938 68.6575 84.4188 68.5829 84.3437C68.409 84.1436 68.3096 83.7184 68.5332 83.1681C69.0551 81.7424 70.4217 79.2411 71.2666 77.8153C71.366 77.6653 71.4405 77.6403 71.5399 77.7153C71.9375 77.9904 72.0121 78.2906 71.8878 79.041C71.7139 80.0415 71.6145 81.3672 71.5399 82.843C72.2606 81.2171 73.4533 78.991 74.2485 77.7653C74.323 77.6402 74.4224 77.6653 74.497 77.7903C74.646 78.1155 74.6461 78.5407 74.1739 79.3161C73.5527 80.3417 72.2109 82.893 71.5896 84.2937C71.5399 84.3938 71.4902 84.4188 71.3908 84.3687C71.0678 84.1937 70.9187 83.9435 70.869 83.2682C70.8193 82.6178 70.869 81.1921 71.043 79.6913C70.2726 81.067 69.1793 83.0431 68.7569 84.2937Z" fill="white"/>
<path d="M71.4902 77.5401C71.5399 77.5401 71.5647 77.5651 71.6144 77.5901C71.8381 77.7652 71.9623 77.9153 72.0368 78.1654C72.0865 78.3906 72.0865 78.6657 72.0368 79.0409C71.9623 79.5411 71.8878 80.1164 71.8381 80.7668C71.8132 81.192 71.7635 81.6172 71.7387 82.0925C72.0368 81.4922 72.3599 80.8418 72.6829 80.2165C73.2047 79.266 73.7266 78.3405 74.149 77.6902C74.1738 77.6402 74.2235 77.5901 74.2732 77.5651C74.3229 77.5401 74.3726 77.5401 74.3975 77.5401C74.4472 77.5401 74.472 77.5651 74.5217 77.5901C74.5714 77.6152 74.5963 77.6652 74.646 77.7152C74.7454 77.8903 74.7702 78.1154 74.7454 78.3906C74.6957 78.6407 74.5714 78.9658 74.3229 79.3911C73.9999 79.9414 73.4781 80.9169 72.9563 81.8924C72.509 82.7928 72.0368 83.6933 71.7635 84.3436C71.7387 84.4437 71.6641 84.4937 71.5896 84.5187C71.5647 84.5187 71.5399 84.5187 71.5399 84.5187V84.1435C71.8381 83.4932 72.2605 82.6177 72.7078 81.7423C73.2296 80.7418 73.7514 79.7663 74.0993 79.216C74.3229 78.8408 74.4472 78.5406 74.472 78.3155C74.4969 78.1154 74.472 77.9403 74.4223 77.8153C74.0248 78.4406 73.5029 79.341 72.9811 80.2915C72.509 81.167 72.0617 82.0675 71.7138 82.8429L71.5399 83.2431V81.142C71.5399 80.9919 71.5647 80.8418 71.5896 80.6917C71.6393 80.0414 71.7138 79.4661 71.7884 78.9408C71.8381 78.5907 71.8629 78.3655 71.8132 78.1905C71.7635 78.0404 71.689 77.9403 71.5399 77.8153V77.5401H71.4902ZM71.4653 77.5401H71.4902V77.8653L71.4653 77.8403V77.5401ZM71.4902 84.5688H71.4653V84.2936V84.2686L71.4902 84.2186V84.5688ZM71.4902 81.192V83.2931L71.4653 83.3431V81.5422C71.4902 81.4421 71.4902 81.3171 71.4902 81.192ZM68.9059 84.3436C68.881 84.3937 68.8562 84.4437 68.8313 84.4937C68.8065 84.5187 68.7816 84.5437 68.732 84.5437C68.7071 84.5437 68.6574 84.5437 68.6326 84.5437C68.5829 84.5187 68.5332 84.4937 68.5083 84.4437C68.3841 84.3186 68.3095 84.1185 68.2847 83.8434C68.2847 83.6433 68.3095 83.3931 68.4089 83.093C68.6326 82.4677 69.0053 81.6673 69.4526 80.8168C70.0241 79.6912 70.6702 78.5156 71.1423 77.7152C71.2168 77.5901 71.2665 77.5401 71.3659 77.5151C71.4156 77.4901 71.4405 77.4901 71.4902 77.5151V77.8403L71.4653 77.8153C71.4405 77.8153 71.4653 77.7902 71.4405 77.7902C71.4405 77.7902 71.4156 77.8153 71.3908 77.8653C70.9186 78.6657 70.2726 79.8413 69.7011 80.9419C69.2786 81.7673 68.9059 82.5677 68.6823 83.193C68.5829 83.4432 68.558 83.6433 68.558 83.8184C68.558 83.9684 68.6077 84.0935 68.6574 84.1685C68.8313 83.6183 69.1295 82.9679 69.4774 82.2926C69.9495 81.3671 70.4714 80.3916 70.9435 79.5912L71.2914 78.9659L71.192 79.6662C71.0926 80.3666 71.0429 81.0419 71.018 81.6172C70.9932 82.2926 70.9932 82.8679 71.018 83.193C71.0429 83.5182 71.0926 83.7183 71.1671 83.8934C71.2417 84.0435 71.3411 84.1185 71.4653 84.1936V84.1685V84.1936V84.4687C71.4156 84.4687 71.3659 84.4437 71.3162 84.4187C71.1423 84.3186 70.9932 84.1936 70.8938 83.9935C70.7944 83.8184 70.7447 83.5682 70.7199 83.193C70.695 82.8429 70.695 82.2676 70.7199 81.5672C70.7447 81.167 70.7696 80.7418 70.8193 80.2915C70.4465 80.9419 70.0738 81.6672 69.7259 82.3676C69.378 83.143 69.0798 83.8184 68.9059 84.3436ZM71.4653 81.5672C71.4405 81.9674 71.4156 82.4176 71.3908 82.8429L71.3411 83.6183L71.4653 83.3681V81.5672Z" fill="white"/>
<path d="M77.1061 81.9424C77.2552 80.8418 77.5534 79.5161 77.8764 78.6907C77.4788 79.1409 77.0315 79.6912 76.6091 80.2665V79.0909C77.0564 78.5156 77.5285 78.0404 77.9261 77.6902C78.1 77.5401 78.1994 77.5401 78.2988 77.6902C78.3982 77.8403 78.4479 77.8653 78.5473 78.1154C78.6467 78.3655 78.6467 78.5907 78.5473 78.8908C78.274 79.7162 77.9758 80.8168 77.777 81.9674C78.1 82.0675 78.1994 82.2926 78.2491 82.5177C78.274 82.6178 78.2243 82.6428 78.1249 82.6178C78.0006 82.5927 77.8516 82.5677 77.6776 82.5427C77.6031 83.093 77.5534 83.6683 77.5285 84.2436C77.5285 84.3437 77.454 84.3937 77.3794 84.3437C77.1806 84.2436 77.0067 83.9935 76.9818 83.3681C76.9818 83.168 76.9818 82.8929 77.0315 82.5677C76.9073 82.5677 76.7582 82.5927 76.6091 82.5927V81.9424C76.783 81.9424 76.957 81.9424 77.1061 81.9424ZM76.6091 80.2665C76.1618 80.8668 75.7394 81.4922 75.3418 82.1175C75.7891 82.0925 76.2364 82.0174 76.6091 81.9674V82.6178C75.9879 82.6678 75.3418 82.7678 74.9194 82.7428C74.5964 83.2931 74.323 83.7934 74.1242 84.2686C74.0745 84.3687 73.9751 84.3687 73.9254 84.2936C73.8012 84.1185 73.7515 83.8184 73.9751 83.2181C74.0497 83.068 74.1242 82.8429 74.2485 82.6178C74.0248 82.4927 73.9254 82.3426 73.9006 82.2676C73.8509 82.1175 73.8757 82.0925 74.0248 82.1175C74.1739 82.1425 74.323 82.1675 74.497 82.1675C75.0188 81.2671 75.7891 80.0914 76.5843 79.1159V80.2665H76.6091Z" fill="white"/>
<path d="M76.9817 81.7926C77.0562 81.2423 77.1805 80.642 77.3047 80.0917C77.3544 79.8416 77.429 79.5914 77.5035 79.3413C77.255 79.6665 76.9817 80.0167 76.7084 80.3668C76.6587 80.4419 76.609 80.4919 76.5593 80.5669V80.0917C76.9817 79.5414 77.4041 79.0161 77.7769 78.5909L78.3235 77.9906C78.2987 77.9406 78.2738 77.9156 78.249 77.8655L78.1993 77.8155C78.1744 77.7905 78.1496 77.7655 78.1496 77.7655C78.1247 77.7655 78.075 77.7905 78.0253 77.8405C77.5781 78.2157 77.0562 78.791 76.5593 79.4163V78.9411C77.0065 78.3908 77.429 77.9406 77.8266 77.5904C77.9259 77.4903 78.0253 77.4653 78.1247 77.4653C78.2241 77.4653 78.3235 77.5154 78.3981 77.6404L78.4478 77.6904C78.5223 77.7905 78.572 77.8655 78.6714 78.0907C78.7211 78.2407 78.7708 78.3658 78.746 78.5159C78.746 78.666 78.7211 78.791 78.6714 78.9661C78.5223 79.4163 78.3732 79.9416 78.2241 80.4919C78.1247 80.9421 78.0005 81.4174 77.9259 81.8926C78.0502 81.9427 78.1496 82.0427 78.2241 82.1177C78.3235 82.2428 78.3732 82.3679 78.3981 82.4929C78.3981 82.543 78.3981 82.593 78.3981 82.643C78.3981 82.668 78.3732 82.693 78.3484 82.7181C78.3235 82.7431 78.2987 82.7431 78.249 82.7681C78.1993 82.7681 78.1496 82.7681 78.0999 82.7681C78.0502 82.7431 77.9756 82.7431 77.9011 82.7431C77.8762 82.7431 77.8266 82.7431 77.8017 82.7431C77.7769 82.9682 77.752 83.2183 77.7272 83.4434C77.7023 83.7186 77.6775 83.9937 77.6775 84.2689C77.6775 84.3189 77.6775 84.3689 77.6526 84.3939C77.6278 84.444 77.6029 84.469 77.5781 84.494C77.5532 84.519 77.5035 84.519 77.4538 84.519C77.4041 84.519 77.3793 84.519 77.3296 84.494C77.2053 84.444 77.0811 84.3189 76.9817 84.1188C76.9071 83.9437 76.8574 83.7186 76.8574 83.3934C76.8574 83.2934 76.8574 83.1433 76.8574 82.9932C76.8574 82.9182 76.8574 82.8431 76.8823 82.7431C76.7829 82.7431 76.6835 82.7681 76.5841 82.7681V82.4679C76.7332 82.4429 76.8823 82.4429 77.0314 82.4179H77.2053L77.1805 82.593C77.1556 82.7431 77.1556 82.8681 77.1556 82.9932C77.1556 83.1433 77.1556 83.2683 77.1556 83.3684C77.1556 83.6435 77.2053 83.8436 77.255 83.9687C77.3047 84.0688 77.3544 84.1188 77.4041 84.1688C77.4041 83.8937 77.429 83.6435 77.4538 83.3684C77.4787 83.0682 77.5284 82.7931 77.5532 82.518L77.5781 82.3929H77.7023C77.8017 82.3929 77.8763 82.4179 77.9508 82.4179C78.0005 82.4179 78.0502 82.4429 78.0999 82.4429C78.075 82.3929 78.0502 82.3429 78.0253 82.2928C77.9756 82.2178 77.8762 82.1678 77.752 82.1177L77.6278 82.0677L77.6526 81.9427C77.752 81.3924 77.8514 80.8921 77.9756 80.3918C78.1247 79.8165 78.2738 79.2913 78.4229 78.841C78.4726 78.716 78.4975 78.5909 78.4975 78.4909C78.4975 78.3908 78.4726 78.2908 78.4229 78.1657C78.3732 78.0656 78.3484 77.9906 78.3235 77.9406L78.0253 78.691C77.8762 79.0662 77.7272 79.5664 77.6029 80.1167C77.4538 80.717 77.3296 81.3423 77.255 81.9176L77.2302 82.0427H77.1059C76.932 82.0427 76.7581 82.0677 76.5593 82.0927V81.7926C76.7084 81.8176 76.8574 81.7926 76.9817 81.7926ZM76.5593 80.5669C76.2362 81.0172 75.9132 81.4674 75.615 81.9427C75.789 81.9176 75.9629 81.8926 76.112 81.8926C76.2611 81.8676 76.4102 81.8426 76.5593 81.8426V82.1428C76.435 82.1678 76.2859 82.1678 76.1368 82.1928C75.8883 82.2178 75.615 82.2678 75.3417 82.2928L75.0435 82.3179L75.1926 82.0677C75.5902 81.4424 76.0374 80.8171 76.4599 80.2168L76.5344 80.1167V80.5669H76.5593ZM76.5593 78.9161C76.435 79.0662 76.3108 79.2413 76.1865 79.3913C75.5405 80.2418 74.9192 81.2173 74.4471 81.9927C74.3974 81.9927 74.3477 81.9927 74.298 81.9677C74.2235 81.9677 74.1489 81.9427 74.0744 81.9427C74.0495 81.9427 74.0495 81.9427 74.0247 81.9427V82.1928V82.618C74.0495 82.643 74.0495 82.643 74.0744 82.668C74.0495 82.7181 74.0247 82.7431 74.0247 82.7681V83.5685C74.0495 83.4684 74.0744 83.3684 74.1241 83.2683C74.1489 83.1933 74.1986 83.0933 74.2483 82.9682C74.298 82.8681 74.3477 82.7681 74.3974 82.668L74.472 82.543L74.3477 82.4679C74.2483 82.4179 74.1738 82.3679 74.1489 82.2928C74.1241 82.2678 74.0992 82.2428 74.0992 82.2178C74.1489 82.2178 74.2235 82.2428 74.2732 82.2428C74.3477 82.2428 74.4471 82.2678 74.5217 82.2678H74.6211L74.6708 82.1928C75.118 81.4174 75.7641 80.4169 76.435 79.5414C76.4847 79.4664 76.5344 79.4163 76.5841 79.3413V78.9161H76.5593ZM76.5593 82.4679V82.7681C76.4102 82.7931 76.2859 82.7931 76.1617 82.8181C75.7393 82.8681 75.3168 82.8931 75.0186 82.9182C74.8695 83.1683 74.7453 83.3934 74.6211 83.6435C74.4968 83.8937 74.3726 84.1438 74.2732 84.3689C74.2483 84.4189 74.2235 84.469 74.1738 84.494C74.1489 84.519 74.0992 84.544 74.0495 84.544H74.0247V84.1938C74.1241 83.9687 74.2235 83.7686 74.3477 83.5435C74.472 83.2934 74.6211 83.0182 74.795 82.7431L74.8447 82.668H74.9192C75.2174 82.668 75.6399 82.618 76.112 82.593C76.2611 82.4929 76.4102 82.4929 76.5593 82.4679ZM74.0247 81.9427V82.1928V82.618C73.975 82.568 73.9501 82.543 73.9004 82.4929C73.8259 82.4179 73.8011 82.3429 73.7762 82.2928C73.7265 82.1678 73.7265 82.0927 73.7762 82.0177C73.8507 81.9677 73.9253 81.9427 74.0247 81.9427ZM74.0247 82.7681V83.5685C73.9998 83.6936 73.975 83.8186 73.975 83.9187C73.975 84.0187 73.9998 84.0938 74.0247 84.1688V84.1438V84.494C73.9998 84.494 73.9501 84.494 73.9253 84.469C73.8756 84.444 73.8508 84.4189 73.8259 84.3689C73.7514 84.2689 73.7017 84.1188 73.7017 83.8937C73.7017 83.6936 73.7514 83.4684 73.8756 83.1433C73.9004 83.0432 73.9501 82.9432 73.9998 82.8431C73.9998 82.8181 74.0247 82.7931 74.0247 82.7681Z" fill="white"/>
<path d="M51.4868 71.6122C52.1826 71.062 52.7044 70.2866 53.0772 69.6362C53.276 69.3111 53.425 69.0109 53.5244 68.8108C53.6238 68.6107 53.6735 68.4606 53.6735 68.4606C53.6735 68.4606 53.5493 68.4106 53.3008 68.3606C53.0772 68.3105 52.7293 68.2605 52.3317 68.2355C51.9341 68.2105 51.462 68.2605 50.9899 68.3856C50.7414 68.4606 50.5177 68.5607 50.2692 68.6607C50.0208 68.7858 49.7971 68.9359 49.5735 69.0859C48.6789 69.7863 48.2068 70.8368 48.0577 71.6372C48.008 71.8373 47.9832 72.0124 47.9832 72.1875C47.9832 72.3626 47.9832 72.5127 47.9832 72.6127C47.9832 72.8629 48.008 72.9879 48.008 72.9879C48.008 72.9879 48.1571 72.9629 48.3807 72.8879C48.505 72.8629 48.6292 72.8128 48.7783 72.7628C48.9274 72.7128 49.1014 72.6628 49.2753 72.6127C49.9462 72.4627 50.7911 72.1625 51.4868 71.6122Z" fill="#57B251"/>
<path d="M71.2915 67.9604C71.8381 68.9359 72.7824 69.7363 73.5527 70.3866C73.9503 70.6868 74.2982 70.9619 74.5467 71.162C74.7951 71.3371 74.9691 71.4622 74.9691 71.4622C74.9691 71.4622 75.3667 71.037 75.6649 70.3366C75.963 69.6362 76.1867 68.6607 75.7146 67.5602C75.2424 66.4596 74.1242 65.4841 73.1054 64.8838C72.6085 64.5836 72.1115 64.3585 71.7636 64.2084C71.5896 64.1334 71.4406 64.0833 71.3412 64.0583C71.2418 64.0333 71.1921 64.0083 71.1921 64.0083C71.1921 64.0083 70.9187 64.5336 70.7945 65.284C70.6951 66.0093 70.7448 67.0099 71.2915 67.9604Z" fill="#57B251"/>
<path d="M71.7883 73.6633C72.7822 73.5132 73.5774 72.988 74.1489 72.4877C74.6956 71.9624 74.9938 71.4622 74.9938 71.4622C74.9938 71.4622 74.8447 71.3371 74.5713 71.162C74.298 70.9869 73.9501 70.7368 73.478 70.5367C72.5834 70.0865 71.3907 69.7613 70.3719 69.9614C69.3531 70.1865 68.707 70.8869 68.3094 71.5372C67.9119 72.1876 67.7379 72.7629 67.7379 72.7629C67.7379 72.7629 67.7628 72.7879 67.8373 72.8129C67.9119 72.8379 67.9864 72.8879 68.1106 72.9379C68.3343 73.063 68.6573 73.1631 69.0549 73.3131C69.2537 73.3882 69.4525 73.4382 69.6761 73.4882C69.8998 73.5383 70.1234 73.6133 70.347 73.6383C70.7943 73.6883 71.2913 73.7384 71.7883 73.6633Z" fill="#57B251"/>
<path d="M63.5635 65.8592C64.4332 66.5345 65.5762 66.9598 66.5205 67.335C66.9926 67.51 67.415 67.6601 67.7132 67.7352C68.0114 67.8352 68.2102 67.8852 68.2102 67.8852C68.2102 67.8852 68.4338 67.385 68.5084 66.6596C68.5332 66.3094 68.5332 65.8842 68.409 65.434C68.2847 65.0088 68.0362 64.5335 67.6387 64.0833C66.8187 63.2078 65.4023 62.6575 64.2344 62.4324C63.638 62.3324 63.0913 62.2573 62.7186 62.2573C62.321 62.2573 62.0974 62.2573 62.0974 62.2573C62.0974 62.2573 62.0228 62.8326 62.1719 63.583C62.2962 64.3084 62.6937 65.1838 63.5635 65.8592Z" fill="#57B251"/>
<path d="M65.8992 70.8369C66.3217 70.6368 66.6944 70.3366 66.9926 70.0114C67.2908 69.6863 67.5393 69.3611 67.7132 69.061C68.0611 68.4356 68.1853 67.8853 68.1853 67.8853C68.1853 67.8853 68.0114 67.8103 67.7132 67.7103C67.415 67.6352 66.9677 67.5102 66.4956 67.4601C65.5017 67.31 64.2592 67.3851 63.3895 67.9104C62.4949 68.4356 62.1471 69.3111 61.998 70.0365C61.8489 70.7618 61.8986 71.3371 61.8986 71.3371C61.8986 71.3371 62.0477 71.3621 62.2962 71.3621C62.5446 71.3621 62.8925 71.3872 63.2901 71.3621C64.0604 71.3621 65.0295 71.2871 65.8992 70.8369Z" fill="#57B251"/>
<path d="M55.5621 66.7097C56.6058 66.9848 57.8482 66.9598 58.8422 66.9348C59.3391 66.9348 59.7864 66.8848 60.1095 66.8848C60.4325 66.8597 60.6064 66.8347 60.6064 66.8347C60.6064 66.8347 60.6561 66.3095 60.4573 65.6341C60.2585 64.9838 59.8113 64.1333 58.7179 63.6331C57.6246 63.1078 56.1088 63.1328 54.8912 63.3579C54.593 63.4079 54.2948 63.483 54.0463 63.558C53.7979 63.6331 53.5742 63.7081 53.3754 63.7831C53.0027 63.9082 52.7791 64.0082 52.7791 64.0082C52.7791 64.0082 52.9281 64.5836 53.3506 65.1839C53.5742 65.484 53.8476 65.8092 54.2203 66.0843C54.593 66.3345 55.0403 66.5596 55.5621 66.7097Z" fill="#57B251"/>
<path d="M59.538 70.2865C60.184 69.5611 60.4822 68.7357 60.5816 68.0353C60.7059 67.36 60.6065 66.8347 60.6065 66.8347C60.6065 66.8347 60.4077 66.8347 60.0846 66.8597C59.7616 66.8847 59.3392 66.9598 58.8422 67.0598C57.8731 67.2849 56.7301 67.8102 56.1088 68.6106C55.7858 69.0108 55.6367 69.4611 55.587 69.8863C55.5373 70.3115 55.5622 70.7117 55.6367 71.0869C55.7858 71.8123 56.0591 72.3376 56.0591 72.3376C56.0591 72.3376 56.1834 72.2876 56.4319 72.2125C56.5561 72.1625 56.6804 72.1125 56.8295 72.0374C56.9785 71.9874 57.1525 71.9124 57.3264 71.8123C58.0222 71.4621 58.8919 71.0119 59.538 70.2865Z" fill="#57B251"/>
<path d="M35.5836 70.7867L35.6582 70.5616H34.6891V69.436L35.1612 68.4855C35.2854 68.2604 35.36 68.0353 35.4345 67.8352C35.5091 67.6351 35.5339 67.4099 35.5339 67.1848C35.5339 66.7596 35.4097 66.4344 35.1363 66.2093C35.0121 66.1093 34.8382 66.0092 34.6642 65.9592V65.0587C34.7388 65.0837 34.8382 65.0837 34.9127 65.1087C35.2109 65.1838 35.4594 65.2838 35.683 65.4339C35.9067 65.584 36.1055 65.7841 36.2545 66.0592C36.4036 66.3094 36.4782 66.6345 36.4782 67.0097C36.4782 67.1848 36.4533 67.3599 36.4285 67.535C36.3788 67.7101 36.3291 67.8852 36.2545 68.0853C36.18 68.2854 36.0806 68.5105 35.9564 68.7606C35.8321 69.0108 35.683 69.2859 35.5339 69.6111L35.4097 69.8612H36.5776L36.0558 71.5371H34.6891V70.7867H35.5836ZM34.7139 66.2343V68.9107L34.9873 68.3854C35.1115 68.1603 35.186 67.9602 35.2606 67.7601C35.3103 67.56 35.36 67.3849 35.36 67.1848C35.36 66.8346 35.2606 66.5845 35.037 66.3844C34.9127 66.3344 34.8133 66.2843 34.7139 66.2343ZM34.7139 70.5616H34.1424L34.7139 69.436V70.5616ZM34.7139 65.9842V65.0837C34.5151 65.0587 34.2915 65.0337 34.0927 65.0337C33.9933 65.0337 33.9188 65.0337 33.8442 65.0337C33.7697 65.0337 33.6951 65.0337 33.6454 65.0587C33.5709 65.0587 33.5212 65.0837 33.4466 65.0837C33.3721 65.1087 33.2975 65.1087 33.223 65.1337V66.9097C33.2727 66.9097 33.3224 66.9097 33.3472 66.9097C33.3721 66.9097 33.4218 66.9097 33.4715 66.8847C33.5212 66.8847 33.5709 66.8847 33.6206 66.8847C34.1424 66.8847 34.3909 67.1098 34.3909 67.535C34.3909 67.6601 34.366 67.7851 34.3412 67.9102C34.2915 68.0353 34.2169 68.2354 34.0927 68.4855L32.5272 71.5621H34.7636V70.7867H33.7945L34.7636 68.9107V66.2343C34.6145 66.1593 34.4157 66.1343 34.2169 66.1343C34.1921 66.1343 34.1921 66.1343 34.1672 66.1343C34.1424 66.1343 34.1424 66.1343 34.1175 66.1343H34.0927V65.9091H34.1175C34.1424 65.9091 34.1424 65.9091 34.1672 65.9091C34.1921 65.9091 34.1921 65.9091 34.2169 65.9091C34.3412 65.9091 34.54 65.9342 34.7139 65.9842Z" fill="white"/>
<path d="M40.8018 68.3604C40.8018 67.3599 40.603 66.8596 40.2054 66.8596V66.0842C40.5036 66.0842 40.7272 66.1593 40.9012 66.3093C41.0751 66.4594 41.2242 66.6595 41.3236 66.8846C41.423 67.1097 41.4976 67.3599 41.5224 67.635C41.5721 67.9102 41.5721 68.1353 41.5721 68.3604C41.5721 68.5855 41.5473 68.8106 41.5224 69.0858C41.4976 69.3609 41.423 69.6111 41.3236 69.8362C41.2242 70.0613 41.0751 70.2614 40.9012 70.4115C40.7272 70.5615 40.4788 70.6366 40.2054 70.6366V69.8612C40.603 69.8612 40.8018 69.3609 40.8018 68.3604ZM40.2054 71.7372C41.0006 71.7372 41.6218 71.437 42.0442 70.8617C42.4915 70.2864 42.7151 69.461 42.7151 68.3604C42.7151 67.2598 42.4915 66.4344 42.0442 65.8591C41.5969 65.2838 40.9757 64.9836 40.2054 64.9836V65.8341C40.5284 65.8341 40.7769 65.9091 41.0006 66.0592C41.2242 66.2093 41.3733 66.4094 41.4976 66.6595C41.6218 66.9096 41.7212 67.1848 41.7709 67.4849C41.8206 67.7851 41.8454 68.0853 41.8454 68.3604C41.8454 68.6355 41.8206 68.9357 41.7709 69.2359C41.7212 69.536 41.6218 69.8112 41.4976 70.0613C41.3733 70.3114 41.1994 70.5115 41.0006 70.6616C40.7769 70.8117 40.5284 70.8867 40.2054 70.8867V71.7372ZM40.2054 66.8346C39.8078 66.8346 39.609 67.3349 39.609 68.3354C39.609 69.3359 39.8078 69.8362 40.2054 69.8362V70.6116C39.9072 70.6116 39.6836 70.5365 39.4848 70.3865C39.3109 70.2364 39.1618 70.0363 39.0624 69.8112C38.963 69.586 38.8884 69.3359 38.8636 69.0608C38.8387 68.7856 38.8139 68.5605 38.8139 68.3354C38.8139 68.1103 38.8387 67.8852 38.8636 67.61C38.9133 67.3349 38.963 67.0847 39.0624 66.8596C39.1618 66.6345 39.3109 66.4344 39.4848 66.2843C39.6587 66.1342 39.9072 66.0592 40.2054 66.0592V66.8346ZM40.2054 64.9836C39.4103 64.9836 38.789 65.2838 38.3666 65.8591C37.9193 66.4344 37.6957 67.2598 37.6957 68.3604C37.6957 69.461 37.9193 70.2864 38.3666 70.8617C38.8139 71.437 39.4351 71.7372 40.2054 71.7372V70.8867C39.8824 70.8867 39.6339 70.8117 39.4103 70.6616C39.1866 70.5115 39.0375 70.3114 38.9133 70.0613C38.789 69.8112 38.6896 69.536 38.6399 69.2359C38.5902 68.9357 38.5654 68.6355 38.5654 68.3604C38.5654 68.0853 38.5902 67.7851 38.6399 67.4849C38.6896 67.1848 38.789 66.9096 38.9133 66.6595C39.0375 66.4094 39.2115 66.2093 39.4103 66.0592C39.6339 65.9091 39.8824 65.8341 40.2054 65.8341V64.9836Z" fill="white"/>
<path d="M82.3739 70.7867V65.9092H82.1006L81.877 66.1593V65.1338H83.2685V71.5621H81.877V66.4845L82.1255 66.2344V70.7867H82.3739ZM81.877 66.1593L81.38 66.7096L81.5291 66.8847L81.877 66.5095V71.5872H81.2557V67.6601L80.4109 66.6596L81.7776 65.1588H81.877V66.1593Z" fill="white"/>
<path d="M87.0704 69.8362C87.2195 69.8362 87.3686 69.7862 87.468 69.6611C87.5673 69.5611 87.6419 69.411 87.6419 69.2609C87.6419 69.1109 87.5922 68.9608 87.468 68.8607C87.3686 68.7607 87.2195 68.6856 87.0704 68.6856V67.9353C87.2443 67.9353 87.4183 67.9603 87.5673 68.0353C87.7164 68.1103 87.8655 68.1854 87.9898 68.3104C88.114 68.4355 88.1886 68.5856 88.2631 68.7357C88.3377 68.8857 88.3625 69.0608 88.3625 69.2359C88.3625 69.411 88.3377 69.5861 88.2631 69.7612C88.1886 69.9113 88.114 70.0614 87.9898 70.1864C87.8655 70.3115 87.7413 70.4115 87.5673 70.4616C87.4183 70.5366 87.2443 70.5616 87.0704 70.5616V69.8362ZM87.0704 71.7372H87.1201C87.468 71.7372 87.7661 71.6872 88.0643 71.5371C88.3625 71.4121 88.5862 71.237 88.8098 71.0119C89.0086 70.7867 89.1825 70.5366 89.3068 70.2364C89.431 69.9363 89.4807 69.6361 89.4807 69.286C89.4807 68.9858 89.431 68.7107 89.3565 68.4355C89.2571 68.1604 89.1328 67.9352 88.9837 67.7351C88.8098 67.535 88.611 67.36 88.3874 67.2099C88.1637 67.0598 87.8904 66.9597 87.617 66.9097C87.7661 66.6346 87.9152 66.4095 88.0643 66.1843C88.2134 65.9842 88.3625 65.7841 88.4868 65.634L88.934 65.1338H87.0952V65.9342L87.1201 65.9092H87.4183C87.3189 66.0092 87.2195 66.1093 87.1201 66.2344L87.0952 66.2594V67.6851C87.3189 67.6851 87.5176 67.7351 87.6916 67.8102C87.8904 67.8852 88.0395 68.0103 88.1886 68.1354C88.3377 68.2854 88.4371 68.4355 88.5116 68.6356C88.5862 68.8357 88.6359 69.0358 88.6359 69.2609C88.6359 69.4861 88.5862 69.6862 88.5116 69.8863C88.4371 70.0864 88.3128 70.2364 88.1886 70.3865C88.0395 70.5366 87.8904 70.6367 87.6916 70.7117C87.4928 70.7867 87.294 70.8368 87.0952 70.8368V71.7372H87.0704ZM86.4988 69.2359C86.4988 69.411 86.5485 69.5361 86.6728 69.6611C86.7722 69.7612 86.9213 69.8362 87.0704 69.8362V70.5866C86.8964 70.5866 86.7225 70.5616 86.5734 70.4866C86.4243 70.4115 86.2752 70.3365 86.1758 70.2114C86.0516 70.0864 85.977 69.9613 85.9025 69.7862C85.8279 69.6361 85.8031 69.461 85.8031 69.2609C85.8031 69.0858 85.8279 68.9108 85.9025 68.7607C85.977 68.6106 86.0516 68.4605 86.1758 68.3355C86.3001 68.2104 86.4243 68.1103 86.5734 68.0603C86.7225 67.9853 86.8964 67.9603 87.0704 67.9603V68.7107C86.9213 68.7107 86.797 68.7607 86.6728 68.8857C86.5734 68.9608 86.4988 69.0858 86.4988 69.2359ZM87.0704 65.1338H86.6479C86.2752 65.509 85.9522 65.9092 85.654 66.3594C85.5297 66.5345 85.4055 66.7346 85.2813 66.9597C85.157 67.1849 85.0576 67.41 84.9582 67.6351C84.8588 67.8852 84.7843 68.1354 84.7346 68.3855C84.6849 68.6356 84.66 68.9108 84.66 69.1859C84.66 69.5611 84.7097 69.8863 84.8588 70.1864C84.9831 70.4866 85.157 70.7617 85.3806 70.9868C85.6043 71.212 85.8528 71.387 86.151 71.5121C86.4243 71.6372 86.7473 71.6872 87.0704 71.6872V70.7867C86.8467 70.7867 86.6728 70.7367 86.474 70.6617C86.3001 70.5866 86.1261 70.4616 85.977 70.3365C85.8279 70.1864 85.7285 70.0113 85.654 69.7862C85.5794 69.5861 85.5297 69.336 85.5297 69.0608C85.5297 68.6356 85.6043 68.2354 85.7782 67.8602C85.9273 67.485 86.1261 67.1348 86.3249 66.8347C86.5485 66.4845 86.797 66.1843 87.0704 65.8592V65.1338ZM87.0704 66.2594C86.971 66.3594 86.8964 66.4845 86.797 66.5845C86.6231 66.7847 86.474 67.0348 86.3001 67.3099C86.1261 67.5851 86.0019 67.8852 85.9025 68.2104C86.0516 68.0353 86.2255 67.9102 86.3995 67.8102C86.5982 67.7101 86.797 67.6601 87.0455 67.6601V66.2594H87.0704Z" fill="white"/>
<path d="M61.7246 11.2058L62.4949 12.7316L62.7931 13.3319L63.8119 13.532L65.1289 13.7071L64.0604 14.8577L63.4392 15.383L63.787 17.7342L62.8925 17.259L61.7246 16.6837L61.0288 17.0589L60.8549 17.1089L60.6312 17.259L59.5379 17.7842L59.9355 15.6831L59.9603 15.408L59.7864 15.0828L58.37 13.7321L60.2088 13.457L60.6312 13.3319L61.3022 12.1563L61.7246 11.2058Z" fill="white"/>
<path d="M70.5211 11.8059L71.2418 13.3817L71.5648 14.0071L72.5836 14.1071L73.9006 14.3572L72.8072 15.4828L72.186 16.0331L72.5587 18.3843L71.689 17.8591L70.4963 17.2587L69.7508 17.6089L69.6514 17.784L69.3781 17.8591L68.4338 18.3843L68.732 16.3333L68.8066 16.0331L68.5084 15.758L67.0175 14.3322L68.9557 14.0571L69.4526 14.0321L69.9745 12.7564L70.5211 11.8059Z" fill="white"/>
<path d="M52.4809 11.906L53.3258 13.3568L53.5991 13.9571L54.6179 14.1822L55.91 14.3573L54.767 15.4078L54.1955 16.0331L54.6179 18.4094L53.7233 17.8591L52.5306 17.2588L51.8348 17.709L51.636 17.684L51.4372 17.9341L50.4184 18.3844L50.7912 16.3333V16.0331L50.5178 15.783L49.0518 14.3323L50.99 14.0821L51.5118 14.0571L52.0336 12.7815L52.4809 11.906Z" fill="white"/>
<path d="M20.5252 48.6002C20.9725 48.4251 21.3452 48.175 21.6186 47.8748C22.1653 47.2745 22.4386 46.5241 22.4386 45.5486C22.4386 44.5981 22.1653 43.8727 21.6434 43.3725C21.3701 43.0973 20.9974 42.9222 20.5252 42.8222V39.5955C20.898 39.6205 21.2707 39.6705 21.6186 39.7456C22.5628 39.9207 23.3828 40.2208 24.1035 40.646C24.8241 41.0713 25.3956 41.6716 25.8429 42.422C26.2653 43.1724 26.489 44.1228 26.489 45.2484C26.489 46.399 26.2653 47.3745 25.818 48.175C25.3708 49.0004 24.7992 49.6757 24.0786 50.201C23.358 50.7513 22.5131 51.1765 21.5689 51.5017C21.221 51.6267 20.8731 51.7268 20.5252 51.8269V48.6002ZM20.5252 56.2291C21.6683 55.954 22.7368 55.6038 23.7804 55.2286C25.3956 54.6033 26.7871 53.8279 28.0047 52.9024C29.2223 51.9769 30.1666 50.8513 30.8623 49.5257C31.5581 48.2 31.9308 46.6742 31.9308 44.8982C31.9308 43.1223 31.6078 41.6466 30.912 40.3959C30.2163 39.1703 29.272 38.1698 28.0793 37.3943C26.8865 36.6189 25.4701 36.0436 23.855 35.6685C22.8113 35.4183 21.6931 35.2682 20.5252 35.1682V38.5449C21.1216 38.595 21.718 38.695 22.2646 38.8201C23.3828 39.0702 24.352 39.4704 25.1471 40.0207C25.9671 40.546 26.5883 41.2464 27.0356 42.0968C27.4829 42.9472 27.7065 43.9728 27.7065 45.1484C27.7065 46.324 27.4829 47.3745 27.0108 48.3C26.5635 49.2255 25.9174 50.0009 25.1223 50.6512C24.3023 51.3016 23.3331 51.8519 22.2398 52.2771C21.6931 52.4772 21.1216 52.6773 20.5501 52.8274V56.2291H20.5252ZM18.6119 49.0004C18.7361 48.9754 18.8604 48.9754 19.0094 48.9504C19.6058 48.8753 20.1028 48.7753 20.5252 48.6002V51.8269C19.904 52.0019 19.2579 52.127 18.6119 52.202C17.3446 52.3771 16.1021 52.5522 14.8348 52.7523C14.8348 48.3751 14.8597 44.0228 14.8597 39.6455C16.127 39.5955 17.3694 39.5455 18.6367 39.4954C19.2828 39.4704 19.904 39.4954 20.5252 39.5455V42.7721C20.1028 42.6721 19.6058 42.6471 19.0094 42.6721C18.8852 42.6721 18.761 42.6971 18.6119 42.6971C18.6367 44.8232 18.6367 46.9243 18.6119 49.0004ZM20.5252 35.1932C19.904 35.1432 19.2828 35.1182 18.6616 35.1182H9.39294C9.39294 45.3235 9.39294 55.5288 9.39294 65.7341C12.4494 64.8586 15.5058 64.0582 18.587 63.3578C18.587 61.1067 18.6119 58.8805 18.6119 56.6293C19.2828 56.5043 19.9289 56.3792 20.5501 56.2291V52.8524C19.9289 53.0275 19.2828 53.1525 18.6119 53.2526C17.3446 53.4277 16.1021 53.6278 14.8348 53.8279C14.8348 56.1541 14.8348 58.4553 14.81 60.7815C14.4373 60.8565 14.0645 60.9566 13.6918 61.0316C13.6918 53.5778 13.7166 46.1239 13.7166 38.67C15.3567 38.62 16.9967 38.57 18.6367 38.5199C19.2828 38.4949 19.904 38.5199 20.5252 38.57V35.1932Z" fill="white"/>
<path d="M39.5346 56.8295C39.5594 50.5763 39.5843 44.3481 39.6091 38.0948H38.9879V35.1183H43.9577C43.9328 43.1725 43.8831 51.2516 43.8583 59.3058C42.2431 59.4559 40.6031 59.631 38.9879 59.8311V56.8796L39.5346 56.8295ZM39.0127 38.0948H38.4909C38.4661 44.3731 38.4412 50.6513 38.3915 56.9296C38.5903 56.9046 38.7891 56.8796 39.0127 56.8546V59.8061C37.3479 60.0062 35.683 60.2063 34.043 60.4564C34.0927 52.002 34.1175 43.5476 34.1672 35.0933H39.0127V38.0948Z" fill="white"/>
<path d="M62.5198 55.6288C62.6688 55.3537 62.8179 55.0785 62.967 54.7784C60.9046 54.7784 58.8173 54.8034 56.7548 54.8784V47.3995C58.6185 44.2229 60.4573 41.0713 62.321 37.9196C60.4573 37.9196 58.6185 37.9196 56.7548 37.9196V35.1182H68.2847C64.9301 40.8461 61.5507 46.5491 58.1712 52.3521C61.3519 52.3021 64.5574 52.2771 67.738 52.3271C66.7689 54.3532 65.7998 56.3792 64.8058 58.4053C62.1222 58.3802 59.4385 58.4303 56.7548 58.5053V55.7039C58.6682 55.6538 60.5815 55.6288 62.5198 55.6288ZM56.73 38.7701V45.1984C57.9973 43.0473 59.2397 40.8962 60.507 38.7701C59.2646 38.7701 57.9973 38.7701 56.73 38.7701ZM56.73 54.8784C55.2639 54.9285 53.7978 54.9785 52.3069 55.0285C53.773 52.4522 55.2639 49.9008 56.73 47.3995V54.8784ZM56.73 37.9196V35.1182H49.6729C48.6789 37.1942 47.685 39.2953 46.691 41.3964C49.3747 41.3464 52.0335 41.2964 54.7172 41.2714C51.3378 47.0744 47.9335 53.0025 44.5292 59.2557C48.6044 58.8805 52.6548 58.6554 56.73 58.5053V55.7039C54.6675 55.7539 52.5802 55.8539 50.5178 55.954C52.5802 52.3021 54.6675 48.7252 56.73 45.1734V38.7701C54.9906 38.7701 53.276 38.7951 51.5366 38.7951C51.6608 38.5199 51.8099 38.2198 51.9341 37.9446C53.5493 37.9446 55.1396 37.9446 56.73 37.9196Z" fill="white"/>
<path d="M84.2625 56.5292C84.4116 56.254 84.5607 55.9789 84.6849 55.6787C82.6225 55.5036 80.56 55.3536 78.4727 55.2285V47.5495C80.3116 44.4229 82.1255 41.2713 83.9395 38.0446C82.1255 38.0196 80.2867 37.9945 78.4727 37.9945V35.1431H89.9032C86.5983 41.2713 83.2437 47.0993 79.8891 52.7772C83.0698 52.9523 86.2504 53.2024 89.4311 53.5026C88.462 55.5787 87.4929 57.6548 86.5486 59.6808C83.8649 59.3807 81.1813 59.1305 78.4976 58.9304V56.0789C80.4358 56.229 82.3492 56.3541 84.2625 56.5292ZM78.4976 38.845V45.2983C79.74 43.1973 80.9576 41.0461 82.1752 38.895C80.9576 38.87 79.74 38.845 78.4976 38.845ZM78.4976 55.2535C77.0315 55.1535 75.5654 55.0784 74.0993 55.0284C75.5654 52.5521 77.0315 50.0758 78.4976 47.5745V55.2535ZM78.4976 37.9945V35.1431H71.3411C70.3472 37.1941 69.3781 39.2452 68.3841 41.2713C71.0678 41.2963 73.7266 41.3213 76.4103 41.3713C73.0557 47.1493 69.7011 52.7772 66.3217 58.4552C70.3969 58.5052 74.4472 58.6803 78.5224 58.9805V56.129C76.46 56.0039 74.3975 55.9039 72.3102 55.8288C74.3727 52.352 76.46 48.8752 78.5224 45.3484V38.895C76.7582 38.87 74.9939 38.87 73.2545 38.845C73.3787 38.5698 73.503 38.2947 73.6521 37.9945C75.2424 37.9695 76.8824 37.9695 78.4976 37.9945Z" fill="white"/>
<path d="M104.912 54.103C104.266 52.4272 103.62 50.7513 102.949 49.1254V39.4954C105.21 45.0733 107.471 50.9014 109.708 57.1296C107.446 56.7044 105.21 56.3292 102.949 55.979V53.8279C103.62 53.9029 104.266 54.003 104.912 54.103ZM102.974 59.806C104.44 60.0811 105.906 60.3563 107.372 60.6564C107.695 61.5569 108.018 62.4824 108.341 63.4079C111.373 64.1082 114.379 64.8836 117.386 65.7591C113.758 54.5032 110.08 44.423 106.378 35.1432H102.974V38.3949L103.744 38.4199C106.577 45.3985 109.385 52.8274 112.168 60.8315C111.77 60.7315 111.373 60.6564 110.95 60.5564C110.677 59.781 110.403 59.0056 110.13 58.2302C107.745 57.7549 105.359 57.3547 102.974 56.9545V59.806ZM102.974 49.1254L102.949 49.0754C102.303 50.6012 101.657 52.102 101.011 53.5778C101.657 53.6528 102.303 53.7528 102.974 53.8279V55.979C100.712 55.6288 98.476 55.3287 96.2148 55.0285C98.4512 50.0259 100.688 44.8232 102.924 39.3454L102.974 39.4954V49.1254ZM102.974 35.1182H99.4203C95.7924 43.9227 92.1644 52.102 88.5365 59.906C91.5929 60.2812 94.6245 60.7315 97.6809 61.2317C98.0039 60.5064 98.3021 59.781 98.6251 59.0306C100.091 59.2557 101.532 59.5058 102.974 59.781V56.9295C100.588 56.5543 98.2027 56.2041 95.8172 55.904C95.5439 56.5043 95.2705 57.1296 94.9972 57.7299C94.5996 57.6799 94.1772 57.6299 93.7796 57.5548C96.5378 51.4517 99.3209 45.0984 102.079 38.3448L102.974 38.3699V35.1182Z" fill="white"/>
<path d="M60.1591 5.42774L60.1094 3.65182C61.004 3.6268 61.8985 3.6268 62.7931 3.65182L62.7434 5.42774C61.8985 5.40273 61.0288 5.40273 60.1591 5.42774ZM67.8871 5.87797C67.0423 5.75291 66.1725 5.65286 65.3277 5.57782L65.4768 3.82691C66.3713 3.90195 67.2659 4.002 68.1356 4.12706L67.8871 5.87797ZM55.0403 5.90299L54.7918 4.15208C55.6615 4.02701 56.556 3.90195 57.4506 3.82691L57.5997 5.57782C56.73 5.65286 55.8851 5.75291 55.0403 5.90299ZM72.9314 6.90351C72.1114 6.67839 71.2666 6.47829 70.4217 6.30319L70.7696 4.5773C71.6393 4.75239 72.509 4.97751 73.3787 5.20262L72.9314 6.90351ZM49.9959 6.95353L49.5238 5.25265C50.3935 5.02753 51.2632 4.80241 52.1329 4.62732L52.4808 6.35322C51.6608 6.52831 50.816 6.72842 49.9959 6.95353ZM77.8267 8.55437C77.0315 8.2292 76.2115 7.92904 75.3915 7.6539L75.9381 5.97803C76.783 6.25317 77.6279 6.57834 78.4479 6.90351L77.8267 8.55437ZM45.1007 8.60439L44.4546 6.97855C45.2747 6.65338 46.1195 6.32821 46.9644 6.05307L47.5359 7.72894C46.7159 7.97907 45.8959 8.27922 45.1007 8.60439ZM82.4734 10.7555C81.7279 10.3553 80.9576 9.95509 80.1624 9.5799L80.9079 7.97907C81.7031 8.35426 82.5231 8.77948 83.2934 9.2047L82.4734 10.7555ZM40.454 10.8305L39.6091 9.27974C40.3794 8.85452 41.1995 8.4293 41.9946 8.05411L42.7401 9.65494C41.9698 10.0301 41.1995 10.4303 40.454 10.8305ZM86.8716 13.5069C86.1759 13.0067 85.4553 12.5314 84.7346 12.0812L85.654 10.5804C86.3995 11.0557 87.1698 11.5559 87.8904 12.0812L86.8716 13.5069ZM36.1054 13.582L35.0866 12.1562C35.8073 11.631 36.5527 11.1307 37.323 10.6555L38.2673 12.1562C37.5218 12.6065 36.8012 13.0817 36.1054 13.582ZM90.8971 16.7586C90.2759 16.1833 89.605 15.608 88.9341 15.0828L90.0274 13.707C90.7232 14.2823 91.419 14.8576 92.065 15.458L90.8971 16.7586ZM32.0799 16.8337L30.912 15.533C31.5581 14.9327 32.2539 14.3324 32.9496 13.7821L34.043 15.1578C33.3721 15.7081 32.726 16.2584 32.0799 16.8337ZM94.5002 20.4355C93.9287 19.7852 93.3323 19.1599 92.736 18.5346L93.9784 17.2839C94.5996 17.9092 95.2208 18.5846 95.7924 19.2599L94.5002 20.4355ZM28.4768 20.5606L27.1599 19.41C27.7562 18.7347 28.3526 18.0593 28.9738 17.434L30.2163 18.6596C29.6199 19.2599 29.0484 19.8853 28.4768 20.5606ZM97.6809 24.5377C97.2088 23.8373 96.6869 23.1369 96.1651 22.4366L97.5566 21.361C98.1033 22.0614 98.65 22.8118 99.147 23.5372L97.6809 24.5377ZM25.321 24.6627L23.8798 23.6622C24.3768 22.9118 24.9235 22.1865 25.4701 21.4861L26.8617 22.5616C26.315 23.237 25.7932 23.9374 25.321 24.6627ZM100.34 28.965C99.9421 28.2146 99.5197 27.4392 99.0724 26.7138L100.563 25.7883C101.035 26.5637 101.483 27.3391 101.88 28.1395L100.34 28.965ZM22.6622 29.09L21.1216 28.2646C21.544 27.4642 21.9664 26.6888 22.4386 25.9134L23.9295 26.8139C23.4822 27.5642 23.0598 28.3397 22.6622 29.09Z" fill="white"/>
<path d="M100.588 73.1879L99.0973 72.2874C99.5445 71.537 99.967 70.7866 100.365 70.0112L101.905 70.8367C101.483 71.6371 101.035 72.4125 100.588 73.1879ZM22.4386 73.3129C21.9913 72.5626 21.544 71.7621 21.1216 70.9617L22.6622 70.1363C23.0598 70.9117 23.4822 71.6621 23.9295 72.3875L22.4386 73.3129ZM97.5566 77.6402L96.1651 76.5646C96.6869 75.8893 97.2088 75.1889 97.6809 74.4635L99.1221 75.4641C98.6251 76.2145 98.1033 76.9398 97.5566 77.6402ZM25.4701 77.7653C24.9235 77.0649 24.4016 76.3395 23.8798 75.5891L25.321 74.5886C25.818 75.289 26.315 76.0144 26.8368 76.6897L25.4701 77.7653ZM94.0281 81.7173L92.7857 80.4917C93.382 79.8664 93.9784 79.241 94.5251 78.5907L95.8421 79.7413C95.2705 80.3916 94.6493 81.067 94.0281 81.7173ZM28.9987 81.8174C28.3774 81.167 27.7562 80.5167 27.1599 79.8413L28.4768 78.6657C29.0484 79.3161 29.6199 79.9414 30.2411 80.5667L28.9987 81.8174ZM90.0523 85.3192L88.9589 83.9435C89.605 83.4182 90.2759 82.8429 90.922 82.2676L92.0899 83.5683C91.4438 84.1936 90.7481 84.7689 90.0523 85.3192ZM32.9993 85.4192C32.3036 84.869 31.6078 84.2686 30.9617 83.6683L32.1296 82.3677C32.7757 82.943 33.4218 83.5183 34.0927 84.0435L32.9993 85.4192ZM85.7037 88.4708L84.7595 86.9701C85.4801 86.5198 86.2007 86.0196 86.8965 85.5193L87.9153 86.945C87.1947 87.4703 86.4492 87.9956 85.7037 88.4708ZM37.3727 88.5459C36.6024 88.0706 35.8569 87.5704 35.1363 87.0451L36.1551 85.5943C36.8509 86.0946 37.5715 86.5698 38.2921 87.0201L37.3727 88.5459ZM81.0073 91.0722L80.2618 89.4714C81.0322 89.0962 81.8025 88.6959 82.5479 88.2957L83.3928 89.8465C82.6225 90.2718 81.8025 90.672 81.0073 91.0722ZM42.0692 91.1222C41.2491 90.747 40.454 90.3218 39.6837 89.8966L40.5285 88.3458C41.274 88.746 42.0443 89.1462 42.8395 89.5214L42.0692 91.1222ZM76.0375 93.0732L75.466 91.3973C76.286 91.1222 77.106 90.822 77.8764 90.4969L78.5224 92.1227C77.7273 92.4729 76.8824 92.7981 76.0375 93.0732ZM47.0638 93.1232C46.2189 92.8481 45.3741 92.5229 44.554 92.1978L45.2001 90.5469C45.9953 90.8721 46.7904 91.1722 47.6105 91.4474L47.0638 93.1232ZM70.869 94.499L70.5211 92.7731C71.366 92.598 72.186 92.3979 73.0308 92.1728L73.503 93.8736C72.6084 94.0988 71.7387 94.3239 70.869 94.499ZM52.2323 94.524C51.3626 94.3489 50.4929 94.1238 49.6232 93.8986L50.0705 92.1978C50.8905 92.4229 51.7354 92.623 52.5802 92.7981L52.2323 94.524ZM65.5762 95.2994L65.4271 93.5485C66.2719 93.4734 67.1417 93.3734 67.9865 93.2483L68.235 94.9992C67.3404 95.0993 66.4459 95.1993 65.5762 95.2994ZM57.5251 95.2994C56.6306 95.2243 55.736 95.1243 54.8663 94.9992L55.1148 93.2483C55.9597 93.3734 56.8294 93.4734 57.6742 93.5485L57.5251 95.2994ZM61.4761 95.4745C61.0537 95.4745 60.6312 95.4745 60.2337 95.4495L60.2834 93.6735C61.1531 93.6985 61.9979 93.6985 62.8676 93.6735L62.9173 95.4244C62.4204 95.4745 61.9482 95.4745 61.4761 95.4745Z" fill="white"/>
<path d="M43.4608 31.4163V24.1875H45.5729V23.8373H43.262V22.6367H46.716V25.2631H44.8771V32.6169H43.2371V31.4163H43.4608ZM43.262 23.8373H40.951V24.1875H43.088V31.4163H43.2868V32.6169H41.6468V25.2631H39.808V22.6367H43.262V23.8373Z" fill="white"/>
<path d="M51.7851 29.7153C52.0833 29.7153 52.3318 29.6653 52.6051 29.5402C52.8536 29.4401 53.0772 29.2901 53.276 29.09C53.4748 28.8899 53.6239 28.6898 53.7233 28.4146C53.8227 28.1645 53.8972 27.8893 53.8972 27.5892C53.8972 27.289 53.8475 27.0389 53.7233 26.7638C53.6239 26.5136 53.4748 26.2885 53.276 26.0884C53.0772 25.8883 52.8784 25.7382 52.6051 25.6382C52.3566 25.5381 52.0833 25.4631 51.7851 25.4631V24.1124C52.2572 24.1124 52.7045 24.2124 53.1269 24.3875C53.5494 24.5626 53.8972 24.8127 54.2203 25.1379C54.5433 25.4631 54.767 25.8133 54.9657 26.2385C55.1397 26.6637 55.2391 27.0889 55.2391 27.5892C55.2391 28.0644 55.1397 28.5147 54.9657 28.9399C54.7918 29.3651 54.5433 29.7153 54.2203 30.0405C53.8972 30.3656 53.5494 30.5907 53.1269 30.7908C52.7045 30.9659 52.2821 31.066 51.7851 31.066V29.7153ZM51.7851 32.8669C52.5057 32.8669 53.1766 32.7419 53.7978 32.4667C54.4439 32.1916 54.9906 31.8164 55.4627 31.3411C55.9348 30.8659 56.3076 30.3156 56.5809 29.6653C56.8543 29.0149 56.9785 28.3396 56.9785 27.6392C56.9785 26.9138 56.8543 26.2385 56.5809 25.6132C56.3076 24.9878 55.9348 24.4125 55.4627 23.9373C54.9906 23.462 54.4439 23.0868 53.7978 22.8117C53.1518 22.5366 52.4809 22.4115 51.7851 22.4115V23.8122C52.3069 23.8122 52.8039 23.9123 53.2512 24.1124C53.7233 24.3125 54.1209 24.5876 54.4688 24.9378C54.8167 25.288 55.09 25.6882 55.2888 26.1634C55.4876 26.6387 55.587 27.1139 55.587 27.6392C55.587 28.1645 55.4876 28.6647 55.2888 29.115C55.09 29.5902 54.8167 29.9904 54.4688 30.3406C54.1209 30.6908 53.7233 30.9659 53.2512 31.166C52.779 31.3661 52.3069 31.4662 51.7851 31.4662V32.8669ZM49.6978 27.6392C49.6978 27.9394 49.7475 28.1895 49.8717 28.4646C49.9711 28.7148 50.1202 28.9399 50.319 29.14C50.5178 29.3401 50.7166 29.4902 50.9899 29.5902C51.2384 29.6903 51.5118 29.7653 51.8099 29.7653V31.116C51.3378 31.116 50.8905 31.016 50.4681 30.8409C50.0457 30.6658 49.6978 30.4157 49.3747 30.0905C49.0517 29.7653 48.8281 29.4151 48.6293 28.9899C48.4553 28.5647 48.3559 28.1395 48.3559 27.6392C48.3559 27.164 48.4553 26.7137 48.6293 26.2885C48.8032 25.8633 49.0517 25.5131 49.3747 25.1879C49.6978 24.8628 50.0457 24.6376 50.4681 24.4375C50.8905 24.2624 51.313 24.1624 51.8099 24.1624V25.5131C51.5118 25.5131 51.2633 25.5631 50.9899 25.6882C50.7414 25.7882 50.5178 25.9383 50.319 26.1384C50.1202 26.3385 49.9711 26.5386 49.8717 26.8138C49.7475 27.0639 49.6978 27.339 49.6978 27.6392ZM51.7851 22.3865C51.0645 22.3865 50.3936 22.5115 49.7723 22.7867C49.1263 23.0618 48.5796 23.437 48.1075 23.9123C47.6353 24.3875 47.2626 24.9378 46.9893 25.5881C46.7159 26.2385 46.5917 26.9138 46.5917 27.6142C46.5917 28.3396 46.7159 29.0149 46.9893 29.6402C47.2626 30.2656 47.6353 30.8409 48.1075 31.3161C48.5796 31.7914 49.1263 32.1666 49.7723 32.4417C50.4184 32.7168 51.0893 32.8419 51.7851 32.8419V31.4412C51.2633 31.4412 50.7663 31.3411 50.319 31.141C49.8469 30.9409 49.4493 30.6658 49.1014 30.3156C48.7535 29.9654 48.4802 29.5652 48.2814 29.09C48.0826 28.6147 47.9832 28.1395 47.9832 27.6142C47.9832 27.0889 48.0826 26.5887 48.2814 26.1384C48.4802 25.6632 48.7535 25.263 49.1014 24.9128C49.4493 24.5626 49.8469 24.2875 50.319 24.0874C50.7911 23.8873 51.2633 23.7872 51.7851 23.7872V22.3865Z" fill="white"/>
<path d="M60.4822 31.4163V24.1875H62.5943V23.8373H60.2834V22.6367H63.7374V25.2631H61.8986V32.6169H60.2585V31.4163H60.4822ZM60.2834 23.8373H57.9725V24.1875H60.0846V31.4163H60.2834V32.6169H58.6434V25.2631H56.8046V22.6367H60.2585V23.8373H60.2834Z" fill="white"/>
<path d="M68.8066 29.7153C69.1048 29.7153 69.3533 29.6653 69.6266 29.5402C69.8751 29.4401 70.0987 29.2901 70.2975 29.09C70.4963 28.8899 70.6454 28.6898 70.7448 28.4146C70.8442 28.1645 70.9187 27.8893 70.9187 27.5892C70.9187 27.289 70.869 27.0389 70.7448 26.7638C70.6454 26.5136 70.4963 26.2885 70.2975 26.0884C70.0987 25.8883 69.8999 25.7382 69.6266 25.6382C69.3781 25.5381 69.1048 25.4631 68.8066 25.4631V24.1124C69.2787 24.1124 69.726 24.2124 70.1236 24.3875C70.546 24.5626 70.8939 24.8127 71.2169 25.1379C71.54 25.4631 71.7636 25.8133 71.9624 26.2385C72.1363 26.6637 72.2357 27.0889 72.2357 27.5892C72.2357 28.0644 72.1363 28.5147 71.9624 28.9399C71.7884 29.3651 71.54 29.7153 71.2169 30.0405C70.8939 30.3656 70.546 30.5907 70.1236 30.7908C69.7011 30.9659 69.2787 31.066 68.8066 31.066V29.7153ZM68.8066 32.8669C69.5272 32.8669 70.1981 32.7419 70.8193 32.4667C71.4654 32.1916 72.0121 31.8164 72.4842 31.3411C72.9563 30.8659 73.3291 30.3156 73.6024 29.6653C73.8757 29.0149 74 28.3396 74 27.6392C74 26.9138 73.8757 26.2385 73.6024 25.6132C73.3291 24.9878 72.9563 24.4125 72.4842 23.9373C72.0121 23.462 71.4654 23.0868 70.8193 22.8117C70.1733 22.5366 69.5023 22.4115 68.8066 22.4115V23.8122C69.3284 23.8122 69.8254 23.9123 70.2727 24.1124C70.7448 24.3125 71.1424 24.5876 71.4903 24.9378C71.8381 25.288 72.1115 25.6882 72.3103 26.1634C72.5091 26.6387 72.6085 27.1139 72.6085 27.6392C72.6085 28.1645 72.5091 28.6647 72.3103 29.115C72.1115 29.5902 71.8381 29.9904 71.4903 30.3406C71.1424 30.6908 70.7448 30.9659 70.2727 31.166C69.8005 31.3661 69.3284 31.4662 68.8066 31.4662V32.8669ZM66.7193 27.6392C66.7193 27.9394 66.769 28.1895 66.8932 28.4646C66.9926 28.7148 67.1417 28.9399 67.3405 29.14C67.5393 29.3401 67.7381 29.4902 68.0114 29.5902C68.2599 29.6903 68.5332 29.7653 68.8314 29.7653V31.116C68.3593 31.116 67.912 31.016 67.4896 30.8409C67.0672 30.6658 66.7193 30.4157 66.3962 30.0905C66.0732 29.7653 65.8496 29.4151 65.6508 28.9899C65.4768 28.5647 65.3774 28.1395 65.3774 27.6392C65.3774 27.164 65.4768 26.7137 65.6508 26.2885C65.8247 25.8633 66.0732 25.5131 66.3962 25.1879C66.7193 24.8628 67.0672 24.6376 67.4896 24.4375C67.912 24.2624 68.3344 24.1624 68.8314 24.1624V25.5131C68.5332 25.5131 68.2848 25.5631 68.0114 25.6882C67.7629 25.7882 67.5393 25.9383 67.3405 26.1384C67.1417 26.3385 66.9926 26.5386 66.8932 26.8138C66.7938 27.0639 66.7193 27.339 66.7193 27.6392ZM68.8066 22.3865C68.086 22.3865 67.415 22.5115 66.7938 22.7867C66.1726 23.0618 65.6011 23.437 65.1289 23.9123C64.6568 24.3875 64.2841 24.9378 64.0107 25.5881C63.7374 26.2385 63.6132 26.9138 63.6132 27.6142C63.6132 28.3396 63.7374 29.0149 64.0107 29.6402C64.2841 30.2656 64.6568 30.8409 65.1289 31.3161C65.6011 31.7914 66.1477 32.1666 66.7938 32.4417C67.4399 32.7168 68.1108 32.8419 68.8066 32.8419V31.4412C68.2847 31.4412 67.7878 31.3411 67.3405 31.141C66.8684 30.9409 66.4708 30.6658 66.1229 30.3156C65.775 29.9654 65.5017 29.5652 65.3029 29.09C65.1041 28.6147 65.0047 28.1395 65.0047 27.6142C65.0047 27.0889 65.1041 26.5887 65.3029 26.1384C65.5017 25.6632 65.775 25.263 66.1229 24.9128C66.4708 24.5626 66.8684 24.2875 67.3405 24.0874C67.8126 23.8873 68.2847 23.7872 68.8066 23.7872V22.3865Z" fill="white"/>
<path d="M76.2861 25.1131L77.0316 23.2121H76.6589L76.2861 24.1626V22.6118H78.4231L76.8328 26.6389H76.2861V25.1131ZM75.5407 26.0636H75.9134L76.2861 25.1131V26.6639H74.2982L75.5904 22.6368H76.2861V24.1876L75.5407 26.0636Z" fill="white"/>
<path d="M81.4794 31.4412C81.6036 31.4162 81.7278 31.3912 81.8769 31.3661C82.1503 31.2911 82.3739 31.1911 82.5727 31.041C82.7715 30.8909 82.9454 30.6908 83.0697 30.4657C83.1939 30.2406 83.2436 29.9404 83.2436 29.6152C83.2436 29.3151 83.1691 29.0399 83.02 28.7898C82.8709 28.5397 82.6969 28.2895 82.4733 28.0394C82.2497 27.7893 82.0012 27.5642 81.7527 27.3641C81.6533 27.264 81.5539 27.189 81.4545 27.0889V24.1874C81.5291 24.1874 81.6284 24.1874 81.703 24.1874C81.7775 24.1874 81.8521 24.1874 81.9515 24.1874C82.026 24.1874 82.1254 24.1874 82.2 24.2124C82.2745 24.2124 82.3491 24.2374 82.4485 24.2374V23.8372C82.3739 23.8372 82.2994 23.8372 82.2248 23.8122C82.1503 23.8122 82.0757 23.7872 82.0012 23.7872C81.9266 23.7872 81.8272 23.7872 81.7527 23.7872C81.6533 23.7872 81.5788 23.7872 81.4794 23.7872V22.3865C81.5539 22.3865 81.6284 22.3865 81.703 22.3865C81.9515 22.3865 82.1751 22.4115 82.4236 22.4115C82.6721 22.4365 82.8709 22.4615 83.0697 22.4865C83.2933 22.5115 83.4921 22.5366 83.7157 22.5866V25.388C83.6412 25.388 83.5418 25.363 83.4424 25.363C83.3679 25.363 83.2685 25.338 83.1691 25.338C83.0697 25.338 82.9703 25.313 82.846 25.313C82.7963 25.313 82.7218 25.313 82.6224 25.313C82.523 25.313 82.4485 25.338 82.3739 25.338C82.2994 25.363 82.2248 25.388 82.1751 25.4381C82.1254 25.4881 82.0757 25.5631 82.0757 25.6382C82.0757 25.7132 82.1503 25.8133 82.2745 25.9383C82.3988 26.0634 82.5727 26.1885 82.7715 26.3635C82.9703 26.5136 83.1691 26.7137 83.4176 26.9138C83.6412 27.1139 83.8648 27.3641 84.0636 27.6392C84.2624 27.9143 84.4115 28.2145 84.5606 28.5397C84.6848 28.8899 84.7594 29.2651 84.7594 29.6653C84.7594 30.1155 84.6848 30.5157 84.5606 30.8909C84.4115 31.2661 84.2127 31.6163 83.9145 31.8914C83.6164 32.1666 83.2436 32.3917 82.7963 32.5668C82.4236 32.6918 82.0012 32.7919 81.5042 32.8169V31.4412H81.4794ZM81.4794 27.5642V31.041C81.8521 30.9909 82.1503 30.8659 82.3739 30.6908C82.6969 30.4407 82.846 30.0655 82.846 29.5902C82.846 29.3401 82.7715 29.09 82.6224 28.8398C82.4733 28.5897 82.2994 28.3646 82.0757 28.1395C81.9018 27.9644 81.703 27.7643 81.4794 27.5642ZM79.6903 31.3161C79.8393 31.3411 79.9884 31.3661 80.1375 31.3912C80.2866 31.4162 80.4109 31.4412 80.5848 31.4412C80.7339 31.4662 80.883 31.4662 81.0569 31.4662C81.206 31.4662 81.3303 31.4662 81.4794 31.4412V32.8669C81.38 32.8669 81.2557 32.8669 81.1563 32.8669C80.7836 32.8669 80.4357 32.8419 80.1127 32.8169C79.7896 32.7919 79.5163 32.7419 79.2678 32.6918C78.9696 32.6418 78.7211 32.5918 78.4727 32.5167V29.5152C78.6963 29.5902 78.9199 29.6402 79.1436 29.6903C79.3424 29.7403 79.566 29.7903 79.8145 29.8153C80.063 29.8403 80.3115 29.8654 80.5848 29.8654C81.0321 29.8654 81.2806 29.6903 81.2806 29.3651C81.2806 29.24 81.206 29.115 81.0818 28.9649C80.9327 28.8398 80.7587 28.6898 80.56 28.5147C80.3363 28.3396 80.1127 28.1645 79.889 27.9644C79.6406 27.7643 79.4169 27.5392 79.1933 27.289C78.9696 27.0389 78.7957 26.7387 78.6715 26.4136C78.5224 26.0884 78.4727 25.7132 78.4727 25.288C78.4727 24.8127 78.5472 24.4125 78.7211 24.0373C78.8951 23.6872 79.1187 23.387 79.4169 23.1369C79.7151 22.8867 80.063 22.7116 80.4606 22.5866C80.7836 22.4865 81.1563 22.4115 81.5042 22.4115V23.8122C81.0818 23.8372 80.7339 23.9623 80.4606 24.1624C80.1127 24.4125 79.9387 24.7877 79.9387 25.313C79.9387 25.5881 80.0133 25.8633 80.1624 26.0884C80.3115 26.3385 80.4854 26.5636 80.709 26.8138C80.9327 27.0389 81.1812 27.264 81.4297 27.4891L81.5291 27.5642V31.041C81.4048 31.066 81.2557 31.066 81.1066 31.066C80.7587 31.066 80.4606 31.041 80.1872 30.9909C80.0381 30.9659 79.889 30.9409 79.7648 30.9159V31.3161H79.6903ZM81.4794 27.0889V24.1874C81.1066 24.2124 80.8333 24.3125 80.6345 24.4626C80.4109 24.6627 80.2866 24.9378 80.2866 25.288C80.2866 25.5381 80.3612 25.7632 80.5103 25.9883C80.6594 26.2135 80.8333 26.4386 81.0569 26.6637C81.1812 26.8138 81.3303 26.9388 81.4794 27.0889Z" fill="white"/>
</g>
<defs>
<clipPath id="clip0_33_126">
<rect width="123" height="99" fill="white"/>
</clipPath>
</defs>
</svg>
