<?xml version="1.0" encoding="utf-8"?>
<!-- Generator: Adobe Illustrator 24.3.0, SVG Export Plug-In . SVG Version: 6.00 Build 0)  -->
<svg version="1.1" id="Слой_1" xmlns="http://www.w3.org/2000/svg" xmlns:xlink="http://www.w3.org/1999/xlink" x="0px" y="0px"
	 viewBox="0 0 13234 3212" style="enable-background:new 0 0 13234 3212;" xml:space="preserve">
<style type="text/css">
	.st0{fill:none;stroke:url(#SVGID_1_);stroke-width:139;}
	.st1{fill:none;stroke:url(#SVGID_2_);stroke-width:139;}
	.st2{fill:none;stroke:url(#SVGID_3_);stroke-width:139;}
	.st3{fill:none;stroke:url(#SVGID_4_);stroke-width:139;}
	.st4{fill:#FFFFFF;}
</style>
<g>
	
		<linearGradient id="SVGID_1_" gradientUnits="userSpaceOnUse" x1="9814.0605" y1="6705.2417" x2="9121.7305" y2="7322.7017" gradientTransform="matrix(1 0 0 -1 -4543 8691)">
		<stop  offset="0" style="stop-color:#FF2435"/>
		<stop  offset="1" style="stop-color:#FF2435;stop-opacity:0"/>
	</linearGradient>
	<path class="st0" d="M4590.2,1158.3v1050.8h254.7l551.9-1050.8"/>
	
		<linearGradient id="SVGID_2_" gradientUnits="userSpaceOnUse" x1="6437.062" y1="6439.4922" x2="7933.6719" y2="6439.5122" gradientTransform="matrix(1 0 0 -1 -4543 8691)">
		<stop  offset="0" style="stop-color:#FF2435;stop-opacity:0"/>
		<stop  offset="1" style="stop-color:#FF2435"/>
	</linearGradient>
	<path class="st1" d="M1883.5,2251.6h1432.9"/>
	
		<linearGradient id="SVGID_3_" gradientUnits="userSpaceOnUse" x1="6822.397" y1="7502.1729" x2="9507.7969" y2="6292.1484" gradientTransform="matrix(1 0 0 -1 -4543 8691)">
		<stop  offset="0" style="stop-color:#FF2435"/>
		<stop  offset="0.9803" style="stop-color:#FF2435;stop-opacity:0"/>
	</linearGradient>
	<path class="st2" d="M1119.3,924.8l-997.7,626.2c-38.9,35.4-93.4,138,0,265.3c93.4,127.4,222.9,88.5,276,53.1l2606.3-1650
		c212.3-134.4,481.1-141.8,700.4-19.3l1639.5,915.7 M1119.3,924.8c-14.2-159.1-63.7-371.5,435.2-286.6
		C1512,861.1,1416.5,1086.2,1119.3,924.8z"/>
	
		<linearGradient id="SVGID_4_" gradientUnits="userSpaceOnUse" x1="7213.4849" y1="7590.6782" x2="7521.2969" y2="6497.4082" gradientTransform="matrix(1 0 0 -1 -4543 8691)">
		<stop  offset="0" style="stop-color:#FF2435;stop-opacity:0"/>
		<stop  offset="0.518" style="stop-color:#FF2435"/>
	</linearGradient>
	<path class="st3" d="M5863.9,1137.1c-247.7,0-827.9,0-1167.6,0c-339.7,0-445.8,304.3-456.4,456.4v817.3l392.7,732.4h-605v-339.7
		c-145.1-92-505.2-348.1-785.5-636.9c-350.3-360.9-668.7-382.1-711.2-382.1s-445.8-53.1-647.5,456.4
		c-161.3,407.6-605,459.9-806.7,435.2L854,2930.9v212.3H206.5l774.8-976.5l15.9-355.6l15.9-355.6"/>
</g>
<g>
	<path class="st4" d="M6985.9,1951.4V251.5h595.5c206.3,0,362.7,39.7,469.4,119.1c106.6,78.6,160,194.2,160,346.8
		c0,83.3-21.4,156.8-64.2,220.7c-42.8,63-102.4,109.4-178.6,138.9c87.2,21.8,155.7,65.8,205.5,131.9
		c50.6,66.2,75.9,147.1,75.9,242.8c0,163.5-52.2,287.2-156.4,371.3c-104.3,84.1-253,126.9-446,128.4H6985.9z M7336.1,1211.2v458.8
		h300.1c82.5,0,146.7-19.5,192.6-58.4c46.7-39.7,70-94.2,70-163.5c0-155.7-80.6-234.7-241.7-237H7336.1z M7336.1,963.7h259.2
		c176.7-3.1,265-73.6,265-211.3c0-77.1-22.6-132.3-67.7-165.8c-44.4-34.2-114.8-51.4-211.3-51.4h-245.2V963.7z"/>
	<path class="st4" d="M8777.9,1951.4h-350.3V251.5h350.3V1951.4z"/>
	<path class="st4" d="M9367.3,1670.1h857v281.4H8929.5V1746l840.6-1210.7h-839.5V251.5h1275v200.8L9367.3,1670.1z"/>
	<path class="st4" d="M11704.5,1140c0,167.3-29.5,314.1-88.7,440.2c-59.2,126.1-144,223.4-254.5,291.9
		c-109.8,68.5-235.9,102.7-378.3,102.7c-140.9,0-266.6-33.9-377.1-101.6c-110.6-67.7-196.2-164.2-256.9-289.5
		c-60.7-126.1-91.4-270.9-92.2-434.3v-84.1c0-167.4,29.9-314.5,89.9-441.3c60.7-127.7,145.9-225.3,255.7-293.1
		c110.5-68.5,236.6-102.7,378.3-102.7c141.6,0,267.3,34.2,377.1,102.7c110.5,67.7,195.7,165.4,255.7,293.1
		c60.7,126.9,91,273.6,91,440.2V1140z M11349.6,1062.9c0-178.2-31.9-313.7-95.7-406.3c-63.9-92.6-154.9-138.9-273.2-138.9
		c-117.6,0-208.3,45.9-272.1,137.8c-63.8,91.1-96.1,224.9-96.9,401.6v82.9c0,173.6,31.9,308.2,95.8,404
		c63.8,95.7,155.6,143.6,275.5,143.6c117.5,0,207.8-45.9,270.9-137.8c63-92.6,94.9-227.3,95.7-404V1062.9z"/>
	<path class="st4" d="M13233.8,1951.4h-350.2l-681.9-1118.5v1118.5h-350.2V251.5h350.2l683,1120.8V251.5h349.1V1951.4z"/>
	<path class="st4" d="M9272.7,2694.9h-307.3v323.4h-96.6V2286h453.7v79.5h-357.1v250.5h307.3V2694.9z"/>
	<path class="st4" d="M10001.4,2675.7c0,71.8-12.1,134.5-36.2,188.1c-24.1,53.3-58.3,94.1-102.6,122.2
		c-44.2,28.2-95.9,42.2-154.9,42.2c-57.7,0-108.8-14.1-153.4-42.2c-44.6-28.5-79.3-68.9-104.1-121.2
		c-24.5-52.6-37.1-113.5-37.7-182.6v-52.8c0-70.4,12.2-132.6,36.7-186.6c24.5-54,59-95.2,103.6-123.7
		c44.9-28.8,96.2-43.3,153.9-43.3c58.7,0,110.3,14.2,154.9,42.8c44.9,28.2,79.5,69.2,103.6,123.2c24.1,53.6,36.2,116.2,36.2,187.6
		V2675.7z M9905.3,2628.5c0-86.9-17.4-153.4-52.3-199.7c-34.9-46.6-83.7-69.9-146.4-69.9c-61,0-109.1,23.3-144.3,69.9
		c-34.9,46.3-52.8,110.6-53.8,193.1v53.8c0,84.2,17.6,150.4,52.8,198.7c35.5,47.9,84.3,71.9,146.4,71.9
		c62.4,0,110.6-22.6,144.8-67.9c34.2-45.6,51.8-110.8,52.8-195.7V2628.5z"/>
	<path class="st4" d="M10709.6,2675.7c0,71.8-12.1,134.5-36.3,188.1c-24.1,53.3-58.3,94.1-102.6,122.2
		c-44.2,28.2-95.8,42.2-154.9,42.2c-57.6,0-108.8-14.1-153.4-42.2c-44.6-28.5-79.3-68.9-104.1-121.2c-24.4-52.6-37-113.5-37.7-182.6
		v-52.8c0-70.4,12.3-132.6,36.7-186.6c24.5-54,59-95.2,103.6-123.7c45-28.8,96.3-43.3,153.9-43.3c58.7,0,110.3,14.2,154.9,42.8
		c45,28.2,79.5,69.2,103.6,123.2c24.2,53.6,36.3,116.2,36.3,187.6V2675.7z M10613.5,2628.5c0-86.9-17.4-153.4-52.3-199.7
		c-34.9-46.6-83.7-69.9-146.4-69.9c-61,0-109.1,23.3-144.3,69.9c-34.9,46.3-52.8,110.6-53.8,193.1v53.8
		c0,84.2,17.6,150.4,52.8,198.7c35.5,47.9,84.3,71.9,146.3,71.9c62.4,0,110.7-22.6,144.9-67.9c34.2-45.6,51.8-110.8,52.8-195.7
		V2628.5z"/>
	<path class="st4" d="M10854.4,3018.3V2286h206.7c63.7,0,120.1,14.1,169,42.2c49,28.2,86.7,68.2,113.2,120.2
		c26.8,52,40.4,111.6,40.7,179.1v46.8c0,69.1-13.4,129.6-40.2,181.6c-26.5,52-64.6,91.9-114.2,119.7
		c-49.3,27.8-106.8,42.1-172.5,42.8H10854.4z M10951,2365.4v573.8h101.6c74.4,0,132.2-23.1,173.5-69.4
		c41.6-46.3,62.3-112.2,62.3-197.7v-42.8c0-83.2-19.6-147.7-58.8-193.6c-38.9-46.3-94.2-69.7-166-70.4H10951z"/>
</g>
</svg>
