<svg width="26" height="26" viewBox="0 0 26 26" fill="none" xmlns="http://www.w3.org/2000/svg">
<path d="M13 0C5.82098 0 0 5.82098 0 13C0 20.179 5.82098 26 13 26C20.179 26 26 20.179 26 13C26 5.82098 20.179 0 13 0ZM18.1217 16.9958L17.2917 18.1275C17.2737 18.1521 17.2509 18.1729 17.2248 18.1888C17.1987 18.2046 17.1697 18.2151 17.1395 18.2197C17.1093 18.2243 17.0785 18.2228 17.0488 18.2155C17.0192 18.2081 16.9913 18.195 16.9667 18.1768L12.1672 14.6772C12.1373 14.6558 12.113 14.6274 12.0963 14.5946C12.0797 14.5618 12.0711 14.5254 12.0714 14.4886V6.5C12.0714 6.37232 12.1759 6.26786 12.3036 6.26786H13.6993C13.827 6.26786 13.9315 6.37232 13.9315 6.5V13.6819L18.0694 16.6737C18.1739 16.7462 18.1971 16.8913 18.1217 16.9958Z" fill="#E30613"/>
</svg>
