<svg width="60" height="61" viewBox="0 0 60 61" fill="none" xmlns="http://www.w3.org/2000/svg">
<path fill-rule="evenodd" clip-rule="evenodd" d="M60 30.2334C60 46.8019 46.5685 60.2334 30 60.2334C21.8627 60.2334 14.4821 56.9936 9.07764 51.7336H37.6426C38.6518 51.7336 39.6008 51.3403 40.3147 50.6264L47.8733 43.0678C49.3467 41.5944 49.3467 39.1969 47.8733 37.7234C46.4 36.25 44.0024 36.2499 42.5291 37.7235L38.6622 41.5904C38.1241 40.1581 36.7409 39.1359 35.123 39.1359H31.0347C30.5364 39.1359 30.277 38.9014 29.8412 38.5076C29.7698 38.443 29.6935 38.374 29.6107 38.3012C27.7786 36.6889 25.3339 35.9032 22.904 36.1469C20.6493 36.3725 18.6207 37.4269 17.1274 39.1359H1.34296C0.470093 36.3231 0 33.3332 0 30.2334C0 13.6649 13.4315 0.233398 30 0.233398C46.5685 0.233398 60 13.6649 60 30.2334ZM16.2266 49.214H13.5391V41.6554H16.2266V49.214ZM46.0917 41.2862L38.5331 48.8448C38.2986 49.0795 37.974 49.214 37.6426 49.214H18.7461V41.1351C19.838 39.7104 21.4023 38.8292 23.1549 38.6538C24.8909 38.4801 26.6377 39.0409 27.9464 40.1926C27.9698 40.2132 27.9935 40.2344 28.0176 40.2559C28.0512 40.2859 28.0854 40.3168 28.1204 40.3482C28.7395 40.9063 29.5707 41.6554 31.0347 41.6554H35.123C35.8177 41.6554 36.3828 42.2206 36.3828 42.9152C36.3828 43.6098 35.8177 44.175 35.123 44.175H29.9766C28.7675 44.175 27.6227 44.7598 26.9142 45.7394C26.5065 46.3032 26.633 47.0907 27.1968 47.4985C27.7604 47.9062 28.548 47.7797 28.9558 47.2159C29.192 46.8894 29.5736 46.6945 29.9766 46.6945H36.5993C36.9335 46.6945 37.2538 46.5617 37.4901 46.3255L44.3105 39.505C44.8016 39.0139 45.6006 39.0139 46.0917 39.505C46.5829 39.9961 46.5829 40.7952 46.0917 41.2862ZM48.9384 31.5771H50.2402C50.936 31.5771 51.5 32.1412 51.5 32.8369C51.5 33.5326 50.936 34.0967 50.2402 34.0967H9.75977C9.06403 34.0967 8.5 33.5326 8.5 32.8369C8.5 32.1412 9.06403 31.5771 9.75977 31.5771H11.0624C11.6465 22.7654 18.3284 15.6232 26.6495 14.0871C26.4288 13.6074 26.3047 13.0744 26.3047 12.5127C26.3047 10.4288 28.0001 8.7334 30.084 8.7334C32.1679 8.7334 33.8633 10.4288 33.8633 12.5127C33.8633 13.0751 33.7389 13.6087 33.5177 14.0887C41.8406 15.6355 48.3671 22.7971 48.9384 31.5771ZM31.3438 12.5127C31.3438 11.8181 30.7786 11.2529 30.084 11.2529C29.3893 11.2529 28.8242 11.8181 28.8242 12.5127C28.8242 13.2073 29.3893 13.7725 30.084 13.7725C30.7786 13.7725 31.3438 13.2073 31.3438 12.5127ZM30.084 16.2752C21.5389 16.2752 14.2574 23.1704 13.5891 31.5771H46.4138C45.7746 23.0405 38.6948 16.2752 30.084 16.2752Z" fill="url(#paint0_linear)"/>
<defs>
<linearGradient id="paint0_linear" x1="-8.02974" y1="30.2334" x2="73.7175" y2="30.2334" gradientUnits="userSpaceOnUse">
<stop stop-color="#F4BD7F"/>
<stop offset="1" stop-color="#BE5B26"/>
</linearGradient>
</defs>
</svg>
