<svg width="60" height="61" viewBox="0 0 60 61" fill="none" xmlns="http://www.w3.org/2000/svg">
<path fill-rule="evenodd" clip-rule="evenodd" d="M30 60.2334C46.5685 60.2334 60 46.8019 60 30.2334C60 13.6649 46.5685 0.233398 30 0.233398C13.4315 0.233398 0 13.6649 0 30.2334C0 31.681 0.102529 33.1046 0.300721 34.4975H15.6851V9.2037H45.8021V33.8369C46.9289 33.0843 48.2925 32.7895 49.649 33.0078C51.0234 33.2292 52.2257 33.9504 53.0342 35.0383C54.7032 37.2841 54.1544 40.4125 51.811 42.012L38.2228 51.2629H8.60464C14.0473 56.7997 21.6227 60.2334 30 60.2334ZM6.25238 48.5674H15.7203V37.1928H0.811369C1.80981 41.396 3.69262 45.2567 6.25238 48.5674ZM37.3254 48.5674L50.1806 39.8156C51.2596 39.0792 51.5124 37.6372 50.7433 36.602C50.3705 36.1004 49.8163 35.7681 49.1827 35.666C48.5489 35.5639 47.9121 35.7045 47.3888 36.0616L43.3445 38.822C42.8842 40.9669 40.9236 42.5832 38.5815 42.5832H32.5293V39.8878H38.5815C39.7135 39.8878 40.6343 38.9763 40.6343 37.856C40.6343 36.7357 39.7135 35.8242 38.5815 35.8242H27.9874L27.6109 35.5512C26.6378 34.8454 25.0287 34.3713 23.6069 34.3713C21.5183 34.3713 19.9736 34.9765 18.533 36.3776V48.5674H37.3254ZM32.8535 22.2628V11.8991H28.6335V22.2628H32.8535ZM35.6662 11.8991V24.9581L25.8209 24.9582V11.8991H18.4977V32.9714C19.9915 32.0952 21.6645 31.6759 23.6069 31.6759C25.4742 31.6759 27.4545 32.2253 28.9021 33.1287H38.5814C40.4984 33.1287 42.1593 34.2117 42.9518 35.7807L42.9894 35.7551V11.8991H35.6662Z" fill="url(#paint0_linear)"/>
<defs>
<linearGradient id="paint0_linear" x1="-8.02974" y1="30.2334" x2="73.7175" y2="30.2334" gradientUnits="userSpaceOnUse">
<stop stop-color="#F4BD7F"/>
<stop offset="1" stop-color="#BE5B26"/>
</linearGradient>
</defs>
</svg>
