<svg width="16" height="16" viewBox="0 0 16 16" fill="none" xmlns="http://www.w3.org/2000/svg">
<path d="M13.7227 3.54584L13.7229 3.54606C14.0017 3.82466 14.2228 4.15544 14.3736 4.51951C14.5245 4.88358 14.6021 5.2738 14.6021 5.66788C14.6021 6.06197 14.5245 6.45219 14.3736 6.81626C14.2228 7.18033 14.0017 7.51111 13.7229 7.7897L13.7228 7.78981L13.0162 8.49648L8.3009 13.2117L3.58564 8.49648L2.87897 7.78981C2.3162 7.22704 2.00004 6.46376 2.00004 5.66788C2.00004 4.87201 2.3162 4.10873 2.87897 3.54595C3.44174 2.98318 4.20502 2.66702 5.0009 2.66702C5.79678 2.66702 6.56006 2.98318 7.12283 3.54595L7.8295 4.25262L8.3009 4.72403L8.77231 4.25262L9.47897 3.54596L9.47908 3.54584C9.75768 3.26712 10.0885 3.04601 10.4525 2.89516C10.8166 2.74431 11.2068 2.66667 11.6009 2.66667C11.995 2.66667 12.3852 2.74431 12.7493 2.89516C13.1133 3.04601 13.4441 3.26712 13.7227 3.54584Z" stroke="#333333" stroke-width="1.33333" stroke-linecap="round"/>
</svg>
