<svg width="24" height="24" viewBox="0 0 24 24" fill="none" xmlns="http://www.w3.org/2000/svg">
<path d="M20.584 5.31877L20.5844 5.3191C21.0024 5.73699 21.3341 6.23316 21.5604 6.77926C21.7866 7.32537 21.9031 7.9107 21.9031 8.50183C21.9031 9.09295 21.7866 9.67828 21.5604 10.2244C21.3341 10.7705 21.0024 11.2667 20.5844 11.6846L20.5842 11.6847L19.5242 12.7447L12.4513 19.8176L5.3784 12.7447L4.3184 11.6847C3.47424 10.8406 3 9.69564 3 8.50183C3 7.30801 3.47424 6.16309 4.3184 5.31893C5.16255 4.47478 6.30747 4.00053 7.50129 4.00053C8.69511 4.00053 9.84003 4.47478 10.6842 5.31893L11.7442 6.37893L12.4513 7.08604L13.1584 6.37893L14.2184 5.31893L14.2186 5.31877C14.6365 4.90068 15.1326 4.56902 15.6787 4.34274C16.2248 4.11647 16.8102 4 17.4013 4C17.9924 4 18.5777 4.11647 19.1239 4.34274C19.67 4.56902 20.1661 4.90068 20.584 5.31877Z" fill="white" stroke="white" stroke-width="2" stroke-linecap="round"/>
</svg>
