<svg width="79" height="79" viewBox="0 0 79 79" fill="none" xmlns="http://www.w3.org/2000/svg">
<circle cx="39.5" cy="39.5" r="38.0625" stroke="#AD0426" stroke-width="1.125" stroke-dasharray="1.29 1.29"/>
<path d="M34.5 56.5625C34.5 56.7365 34.5691 56.9035 34.6922 57.0265C34.8153 57.1496 34.9822 57.2188 35.1562 57.2188H41.7188C41.8928 57.2188 42.0597 57.1496 42.1828 57.0265C42.3059 56.9035 42.375 56.7365 42.375 56.5625C42.375 56.3885 42.3059 56.2215 42.1828 56.0985C42.0597 55.9754 41.8928 55.9062 41.7188 55.9062H35.1562C34.9822 55.9062 34.8153 55.9754 34.6922 56.0985C34.5691 56.2215 34.5 56.3885 34.5 56.5625Z" fill="#AD0426"/>
<path d="M59.1094 30.9688H50.25V21.4531C50.2493 20.8442 50.0071 20.2603 49.5765 19.8297C49.1459 19.3991 48.5621 19.1569 47.9531 19.1562H28.9219C28.3129 19.1569 27.7291 19.3991 27.2985 19.8297C26.8679 20.2603 26.6257 20.8442 26.625 21.4531V57.5469C26.6257 58.1558 26.8679 58.7397 27.2985 59.1703C27.7291 59.6009 28.3129 59.8431 28.9219 59.8438H47.9531C48.5621 59.8431 49.1459 59.6009 49.5765 59.1703C50.0071 58.7397 50.2493 58.1558 50.25 57.5469V48.0312H59.1094C59.7183 48.0306 60.3022 47.7884 60.7328 47.3578C61.1634 46.9272 61.4056 46.3433 61.4062 45.7344V33.2656C61.4056 32.6567 61.1634 32.0728 60.7328 31.6422C60.3022 31.2116 59.7183 30.9694 59.1094 30.9688ZM41.5342 20.4688L41.2061 21.7812H35.6689L35.3408 20.4688H41.5342ZM48.9375 57.5469C48.9373 57.8079 48.8335 58.0581 48.6489 58.2427C48.4644 58.4273 48.2141 58.531 47.9531 58.5312H28.9219C28.6609 58.531 28.4106 58.4273 28.2261 58.2427C28.0415 58.0581 27.9377 57.8079 27.9375 57.5469V21.4531C27.9377 21.1921 28.0415 20.9419 28.2261 20.7573C28.4106 20.5727 28.6609 20.469 28.9219 20.4688H33.9873L34.5197 22.5966C34.5552 22.7386 34.6371 22.8647 34.7524 22.9547C34.8678 23.0448 35.0099 23.0937 35.1562 23.0938H41.7188C41.8651 23.0937 42.0072 23.0448 42.1226 22.9547C42.2379 22.8647 42.3198 22.7386 42.3553 22.5966L42.8877 20.4688H47.9531C48.2141 20.469 48.4644 20.5727 48.6489 20.7573C48.8335 20.9419 48.9373 21.1921 48.9375 21.4531V30.9688H40.0781C39.4692 30.9694 38.8853 31.2116 38.4547 31.6422C38.0241 32.0728 37.7819 32.6567 37.7812 33.2656V45.7344C37.7819 46.3433 38.0241 46.9272 38.4547 47.3578C38.8853 47.7884 39.4692 48.0306 40.0781 48.0312H48.9375V57.5469ZM60.0938 45.7344C60.0935 45.9954 59.9898 46.2456 59.8052 46.4302C59.6206 46.6148 59.3704 46.7185 59.1094 46.7188H40.0781C39.8171 46.7185 39.5669 46.6148 39.3823 46.4302C39.1977 46.2456 39.094 45.9954 39.0938 45.7344V38.8438H60.0938V45.7344ZM60.0938 37.5312H39.0938V35.5625H60.0938V37.5312ZM60.0938 34.25H39.0938V33.2656C39.094 33.0046 39.1977 32.7544 39.3823 32.5698C39.5669 32.3852 39.8171 32.2815 40.0781 32.2812H59.1094C59.3704 32.2815 59.6206 32.3852 59.8052 32.5698C59.9898 32.7544 60.0935 33.0046 60.0938 33.2656V34.25Z" fill="#AD0426"/>
<path d="M58.125 42.125H53.5312C53.3572 42.125 53.1903 42.1941 53.0672 42.3172C52.9441 42.4403 52.875 42.6072 52.875 42.7812V44.75C52.875 44.924 52.9441 45.091 53.0672 45.214C53.1903 45.3371 53.3572 45.4062 53.5312 45.4062H58.125C58.299 45.4062 58.466 45.3371 58.589 45.214C58.7121 45.091 58.7812 44.924 58.7812 44.75V42.7812C58.7812 42.6072 58.7121 42.4403 58.589 42.3172C58.466 42.1941 58.299 42.125 58.125 42.125ZM57.4688 44.0938H54.1875V43.4375H57.4688V44.0938Z" fill="#AD0426"/>
</svg>
