<svg width="79" height="78" viewBox="0 0 79 78" fill="none" xmlns="http://www.w3.org/2000/svg">
<circle cx="39.5" cy="39" r="38.0625" stroke="#AD0426" stroke-width="1.125" stroke-dasharray="1.29 1.29"/>
<path d="M61.3995 30.1186H53.09C51.6561 30.1186 50.4895 31.2858 50.4895 32.7206V42.2846H47.3814C47.5542 41.6567 47.6182 40.916 47.5762 40.0541V40.054C47.5087 36.4117 46.8478 33.3419 45.6116 30.93C44.6517 29.0574 43.5315 27.9347 42.5703 27.2635C43.6985 26.1035 44.3508 24.4533 44.3508 22.55C44.3508 19.1257 41.6192 16.3398 38.2616 16.3398C34.9041 16.3398 32.1724 19.1257 32.1724 22.55C32.1724 22.9465 32.4938 23.2678 32.8902 23.2678H33.3779C33.333 23.5386 33.3091 23.8146 33.3091 24.095C33.3091 26.5082 35.0334 28.5251 37.3133 28.9772C37.0743 29.8645 36.9555 30.9108 36.956 32.0995L35.1658 33.6392L30.8099 33.9915L25.7852 32.3305C25.3246 32.1774 24.8027 32.0043 24.3498 32.3309C23.9036 32.6529 23.9036 33.2167 23.9036 33.4019V37.1377C23.9036 37.5342 24.2249 37.8554 24.6213 37.8554H25.4759L24.1652 42.3845C24.055 42.7652 24.2744 43.1633 24.6552 43.2735C25.0362 43.3842 25.434 43.1643 25.5443 42.7836L26.9705 37.8554H29.011C26.473 45.5951 27.9212 50.7614 30.1471 55.9897H28.8569L23.4828 49.9809L24.6192 46.0552C24.7295 45.6744 24.5101 45.2764 24.1293 45.1662C23.7485 45.056 23.3505 45.2754 23.2402 45.6561L22.1533 49.4112C18.7917 49.3551 15.7847 51.6729 15.0184 55.0074C14.9297 55.3937 15.1707 55.7788 15.5569 55.8676L16.5758 56.1021C16.3155 58.8059 18.0961 61.3569 20.8116 61.9819C21.224 62.0769 21.6399 62.1238 22.0529 62.1238C23.0716 62.1238 24.0724 61.8383 24.9575 61.2835C25.9964 60.6325 26.7704 59.6755 27.1893 58.5444L27.9933 58.7294C28.2329 58.7849 28.4601 58.8129 28.6871 58.6907C28.8983 58.577 29.0387 58.3717 29.0913 58.14C29.1419 57.9051 29.1803 57.6663 29.207 57.4253H44.2188C44.6989 60.41 47.2384 62.6599 50.2713 62.6599C53.3042 62.6599 55.8438 60.41 56.3238 57.4253H56.8717C56.8717 57.4253 56.9804 57.4265 57.0052 57.4265C57.2104 57.4265 57.5069 57.4038 57.7504 57.1561C57.8722 57.0321 58.0152 56.8104 58.0042 56.4581C57.984 55.7841 57.8829 55.1328 57.7102 54.5138C58.2819 51.0429 57.7318 48.9289 56.9163 47.2744C57.4319 46.9365 57.7737 46.3543 57.7737 45.6928V43.72H61.3993C62.8332 43.72 63.9998 42.5528 63.9998 41.1181V32.7205C64 31.2858 62.8335 30.1186 61.3995 30.1186ZM24.1953 60.0673C23.2764 60.6431 22.1892 60.8262 21.1338 60.5832H21.1337C19.1911 60.1361 17.8951 58.3548 17.9896 56.4286L25.7753 58.2206C25.4532 58.979 24.9081 59.6205 24.1953 60.0673ZM27.7868 57.209L16.6216 54.6398C17.4832 52.2803 19.8019 50.7184 22.3364 50.8528L27.8059 56.9683C27.8012 57.049 27.7948 57.1292 27.7868 57.209ZM38.6285 44.7011C38.4202 45.2506 38.4202 45.9281 38.4202 46.8659V49.5745H35.7919V45.8585C35.7919 41.6573 38.0847 40.9087 39.1137 40.7851H46.1507C46.1224 41.7386 45.9072 42.4164 45.4988 42.8465C45.0227 43.3478 44.2082 43.5921 43.0085 43.5932L40.4321 43.5959C39.5133 43.596 38.9065 43.9677 38.6285 44.7011ZM38.4202 51.0099V52.7238C38.4137 52.7238 38.407 52.7238 38.4001 52.7238H33.3017C33.359 52.1922 33.5246 51.7809 33.7965 51.4963C34.2009 51.0731 34.7705 51.0099 35.0741 51.0099H38.4202ZM46.119 39.3497H39.5914C39.3293 38.5248 39.0956 37.6215 38.9034 36.6932L40.888 35.4051C41.9713 34.7015 42.5349 33.7075 42.4343 32.6776C42.3451 31.7647 41.7244 30.9492 40.8531 30.6002C40.0575 30.2815 39.201 30.3816 38.4441 30.8656C38.5065 30.179 38.6227 29.5661 38.7907 29.0459C39.0967 29.0143 39.4006 28.9545 39.699 28.8667C40.3064 28.7256 40.8677 28.5008 41.3744 28.2027C42.7569 29.0286 45.7974 31.7076 46.119 39.3497ZM33.6605 21.8323C33.999 19.5389 35.9333 17.7755 38.2616 17.7755C40.8276 17.7755 42.9153 19.9174 42.9153 22.5501C42.9153 24.6914 41.8885 26.4172 40.2328 27.1767V23.4C40.2328 22.746 39.9825 21.9438 38.7907 21.8353C38.769 21.8333 38.7473 21.8323 38.7256 21.8323H33.6605ZM34.7447 24.0951C34.7447 23.8118 34.777 23.5351 34.8404 23.2679H38.6904C38.7347 23.2727 38.767 23.2778 38.7902 23.2825C38.7939 23.3091 38.7972 23.3474 38.7972 23.4V27.599C38.6261 27.6242 38.4541 27.6369 38.2821 27.637C38.2805 27.637 38.2788 27.637 38.2773 27.637C36.3292 27.6352 34.7447 26.047 34.7447 24.0951ZM33.8142 35.189L35.5143 35.0514C35.6658 35.0393 35.8094 34.9793 35.9247 34.8802L38.993 32.2412L38.9934 32.2407C39.2901 31.9851 39.6068 31.854 39.9152 31.854C40.0524 31.854 40.188 31.88 40.3194 31.9327C40.6987 32.0845 40.968 32.4317 41.0057 32.8171C41.0531 33.302 40.7336 33.7935 40.1065 34.2008L36.6875 36.42H33.8144V35.189H33.8142ZM30.7808 35.4343L32.3786 35.3051V36.4202H30.5219C30.2812 36.4202 30.2225 36.2202 30.2157 36.0524C30.2117 35.9573 30.2207 35.4803 30.7808 35.4343ZM29.082 34.9388C28.8658 35.2933 28.7648 35.708 28.7813 36.1112C28.7857 36.2156 28.799 36.3161 28.8175 36.4141C28.8175 36.4162 28.8164 36.4182 28.8168 36.4201H25.3393V33.6951L29.0847 34.9332C29.0836 34.9352 29.083 34.937 29.082 34.9388ZM30.5259 37.8556H36.8998C37.0385 37.8556 37.1743 37.8154 37.2906 37.7399L37.6155 37.529C37.7718 38.2198 37.9498 38.892 38.1437 39.5269C36.6798 39.959 34.3562 41.3554 34.3562 45.8584V49.6464C33.8527 49.7481 33.2569 49.9829 32.7586 50.5044C32.2333 51.0541 31.9332 51.799 31.8613 52.7237H30.4133C28.9542 48.5187 28.3993 44.044 30.5259 37.8556ZM31.709 55.9874C31.4437 55.3772 31.188 54.7694 30.9472 54.1593H38.4C39.3659 54.1593 39.8556 53.7196 39.8556 52.8524V50.2922V47.5836H45.5212C45.9177 47.5836 46.2389 47.2623 46.2389 46.8658C46.2389 46.4693 45.9177 46.148 45.5212 46.148H39.8608C39.87 45.7403 39.8961 45.4069 39.9709 45.2099C40.0071 45.1141 40.0385 45.0315 40.4327 45.0315L43.0098 45.0288C44.6239 45.0272 45.7785 44.6368 46.5398 43.835C46.575 43.7978 46.6084 43.7589 46.6418 43.7201H51.2074H56.3385V45.6929C56.3385 45.9396 56.1305 46.148 55.8844 46.148H48.7387C48.3422 46.148 48.0209 46.4693 48.0209 46.8658C48.0209 47.2623 48.3422 47.5836 48.7387 47.5836H55.4626C56.0299 48.6366 56.5402 49.9469 56.5099 52.017C55.0899 50.0445 52.791 48.7761 50.1819 48.7761C48.0866 48.7761 46.1205 49.598 44.6456 51.0905C43.3368 52.4148 42.5508 54.1335 42.3891 55.9897L31.709 55.9874ZM50.2714 61.2245C48.0275 61.2245 46.1351 59.6078 45.6773 57.4255H54.8655C54.4076 59.6076 52.5151 61.2245 50.2714 61.2245ZM55.6809 55.9899H44.8621H43.8309C44.1832 52.7444 46.897 50.2117 50.1819 50.2117C53.0659 50.2117 55.4879 52.1134 56.29 54.7756C56.2925 54.784 56.2951 54.7924 56.298 54.8007C56.4114 55.1827 56.4915 55.5802 56.5349 55.9899H55.6809ZM62.5645 41.1181C62.5645 41.7614 62.0418 42.2846 61.3995 42.2846H51.925V38.5779H62.5645V41.1181ZM62.5645 37.1424H51.925V35.6158H62.5645V37.1424ZM62.5645 34.1802H51.925V32.7206C51.925 32.0774 52.4477 31.5542 53.09 31.5542H61.3995C62.0418 31.5542 62.5645 32.0775 62.5645 32.7206V34.1802Z" fill="#AD0426"/>
</svg>
