<svg width="79" height="79" viewBox="0 0 79 79" fill="none" xmlns="http://www.w3.org/2000/svg">
<circle cx="39.5" cy="39.5" r="38.0625" stroke="#AD0426" stroke-width="1.125" stroke-dasharray="1.29 1.29"/>
<g clip-path="url(#clip0)">
<path d="M42.7998 19H28.7998C26.8699 19 25.2998 20.5701 25.2998 22.5V47.7C25.2998 49.6299 26.8699 51.2001 28.7998 51.2001H41.3998V49.8H28.7998C27.642 49.8 26.6998 48.8578 26.6998 47.7V22.5C26.6998 21.3422 27.642 20.4 28.7998 20.4H42.7999C43.9576 20.4 44.8999 21.3422 44.8999 22.5V42.8001H46.2998V22.5C46.2998 20.5701 44.7297 19 42.7998 19Z" fill="#AD0426"/>
<path d="M53.0133 37.6452L46.1463 29.0632L45.0521 29.9382L51.9191 38.5195C52.8102 39.6325 53.3002 41.0311 53.2996 42.457V59.6H43.0586C39.4424 59.6 36.4996 56.6578 36.4996 53.041V50.5H35.0996V53.041C35.0996 57.4293 38.6703 61 43.0586 61H53.9996C54.3867 61 54.6996 60.6871 54.6996 60.3V42.4577C54.7003 40.7161 54.1018 39.0067 53.0133 37.6452Z" fill="#AD0426"/>
<path d="M37.1967 35.5081C37.688 35.5221 38.1452 35.7265 38.4819 36.0835L47.8892 46.0795L48.9091 45.1198L39.5004 35.123C38.906 34.4937 38.1017 34.1333 37.2365 34.1087C36.3623 34.0794 35.5482 34.3978 34.9265 34.9851C34.9188 34.9929 34.8628 35.046 34.8558 35.0537C33.6596 36.2535 33.579 38.1365 34.6704 39.4371L40.6995 46.5561V48.7219C40.6988 52.5901 43.1313 56.0993 46.7538 57.4558L47.2452 56.1447C44.1665 54.9918 42.0988 52.0091 42.0994 48.7219V46.3C42.0994 46.1348 42.0406 45.9737 41.9336 45.8471L35.7407 38.5341C35.1212 37.7964 35.1667 36.7246 35.8807 36.01C36.2376 35.6726 36.7038 35.5052 37.1967 35.5081Z" fill="#AD0426"/>
<path d="M42.1002 20.4H40.7002V37.9H42.1002V20.4Z" fill="#AD0426"/>
<path d="M38.6002 42.1H37.2002V50.5H38.6002V42.1Z" fill="#AD0426"/>
<path d="M38.6002 19.7H37.2002V35.1H38.6002V19.7Z" fill="#AD0426"/>
<path d="M30.1998 22.5H28.7998V31.6H30.1998V22.5Z" fill="#AD0426"/>
<path d="M33.6998 22.5H32.2998V28.1001H33.6998V22.5Z" fill="#AD0426"/>
<path d="M33.6998 42.1H29.4998C29.1134 42.1 28.7998 42.4129 28.7998 42.8V47C28.7998 47.3871 29.1134 47.7 29.4998 47.7H33.6998C34.0861 47.7 34.3998 47.3871 34.3998 47V42.8C34.3998 42.4129 34.0861 42.1 33.6998 42.1ZM32.9998 46.3H30.1998V43.5H32.9998V46.3Z" fill="#AD0426"/>
</g>
<defs>
<clipPath id="clip0">
<rect width="42" height="42" fill="white" transform="translate(19 19)"/>
</clipPath>
</defs>
</svg>
