<svg width="79" height="78" viewBox="0 0 79 78" fill="none" xmlns="http://www.w3.org/2000/svg">
<circle cx="39.5" cy="39" r="38.0625" stroke="#AD0426" stroke-width="1.125" stroke-dasharray="1.29 1.29"/>
<path d="M37.5313 47.8734V40.0312C37.5313 39.8572 37.4621 39.6903 37.3391 39.5672C37.216 39.4441 37.0491 39.375 36.875 39.375C32.867 39.375 32.3051 46.2519 32.2831 46.5445C32.2733 46.6744 32.3025 46.8042 32.3667 46.9175C32.431 47.0308 32.5275 47.1224 32.644 47.1806L33.5938 47.6556V47.8738L33.0852 52.9604C33.0578 53.234 33.0881 53.5104 33.1741 53.7717C33.2601 54.033 33.3999 54.2733 33.5844 54.4773C33.769 54.6812 33.9942 54.8442 34.2456 54.9558C34.497 55.0673 34.769 55.125 35.0441 55.125H36.081C36.356 55.125 36.628 55.0673 36.8794 54.9558C37.1309 54.8442 37.3561 54.6812 37.5407 54.4773C37.7252 54.2733 37.865 54.033 37.951 53.7717C38.037 53.5104 38.0672 53.234 38.0399 52.9604L37.5313 47.8734ZM33.6388 46.2107C33.7526 45.2905 33.9549 44.3834 34.243 43.5021C34.7473 42.018 35.41 41.115 36.2188 40.8071V47.25H34.9063C34.9063 47.1281 34.8723 47.0087 34.8083 46.905C34.7442 46.8013 34.6525 46.7176 34.5435 46.6631L33.6388 46.2107ZM36.5673 53.5966C36.5061 53.6649 36.4311 53.7195 36.3473 53.7567C36.2635 53.7939 36.1727 53.8129 36.081 53.8125H35.0441C34.9524 53.8125 34.8617 53.7933 34.7778 53.7561C34.694 53.7189 34.6189 53.6645 34.5573 53.5965C34.4958 53.5285 34.4492 53.4483 34.4206 53.3612C34.3919 53.2741 34.3819 53.1819 34.391 53.0906L34.8439 48.5625H36.2811L36.734 53.0906C36.7437 53.1819 36.7338 53.2743 36.7051 53.3615C36.6764 53.4487 36.6296 53.5288 36.5676 53.5966H36.5673Z" fill="#AD0426"/>
<path d="M58.5312 19.0312H53.2812C53.1072 19.0312 52.9403 19.1004 52.8172 19.2235C52.6941 19.3465 52.625 19.5135 52.625 19.6875V20.3438H38.9243C38.331 20.3442 37.7473 20.493 37.2263 20.7767L30.8013 24.2812H23.0938C21.9898 24.2812 21.125 25.4343 21.125 26.9062C21.125 28.2801 21.8785 29.3754 22.8764 29.5157L19.9177 39.5318C19.9151 39.5407 19.9127 39.5497 19.9104 39.5587C19.8454 39.8189 19.8125 40.0861 19.8125 40.3544V59.0625C19.8125 59.2365 19.8816 59.4035 20.0047 59.5265C20.1278 59.6496 20.2947 59.7188 20.4688 59.7188H50C50.174 59.7188 50.341 59.6496 50.464 59.5265C50.5871 59.4035 50.6562 59.2365 50.6562 59.0625V40.4093C50.6563 40.0958 50.6114 39.784 50.5229 39.4834L47.7886 30.1869C48.679 30.1804 49.5345 29.8395 50.1854 29.2319C50.8363 28.6242 51.2351 27.7941 51.3027 26.9062H52.625V28.2188C52.625 28.3928 52.6941 28.5597 52.8172 28.6828C52.9403 28.8059 53.1072 28.875 53.2812 28.875H58.5312C58.7053 28.875 58.8722 28.8059 58.9953 28.6828C59.1184 28.5597 59.1875 28.3928 59.1875 28.2188V19.6875C59.1875 19.5135 59.1184 19.3465 58.9953 19.2235C58.8722 19.1004 58.7053 19.0312 58.5312 19.0312ZM22.4375 26.9062C22.4375 26.1051 22.8262 25.5938 23.0938 25.5938H41.8532L39.2282 28.2188H23.0938C22.8262 28.2188 22.4375 27.7074 22.4375 26.9062ZM42.8791 39.5588C42.8141 39.819 42.7813 40.0862 42.7812 40.3545V58.4062H21.125V40.3544C21.1251 40.1977 21.1438 40.0416 21.1807 39.8894L24.2404 29.5312H38.0409C37.6983 30.1101 37.5683 30.7902 37.6731 31.4546C37.778 32.1189 38.1112 32.726 38.6153 33.1711C39.1195 33.6163 39.7631 33.8718 40.4354 33.8935C41.1076 33.9153 41.7664 33.702 42.2983 33.2904L45.4555 30.8346L42.8865 39.5318C42.8839 39.5408 42.8814 39.5498 42.8791 39.5588ZM46.7188 56.7094L48.4156 58.4062H45.0219L46.7188 56.7094ZM49.2638 39.854C49.3169 40.0343 49.3438 40.2213 49.3438 40.4093V57.4781L47.375 55.5094V41.3438C47.375 41.1697 47.3059 41.0028 47.1828 40.8797C47.0597 40.7566 46.8928 40.6875 46.7188 40.6875C46.5447 40.6875 46.3778 40.7566 46.2547 40.8797C46.1316 41.0028 46.0625 41.1697 46.0625 41.3438V55.5095L44.0938 57.4782V40.3544C44.0938 40.1977 44.1125 40.0416 44.1494 39.8894L46.717 31.1961L49.2638 39.854ZM52.625 25.5938H51.0478C50.77 25.5941 50.5037 25.7046 50.3072 25.901C50.1108 26.0974 50.0003 26.3637 50 26.6415C49.9993 27.2337 49.7638 27.8014 49.3451 28.2201C48.9264 28.6388 48.3587 28.8743 47.7665 28.875H46.1533C45.9486 28.8754 45.7498 28.9436 45.5879 29.069L41.4924 32.2547C41.1756 32.5013 40.7767 32.6178 40.377 32.5806C39.9773 32.5433 39.6069 32.355 39.3412 32.054C39.0755 31.7531 38.9346 31.3622 38.9471 30.9609C38.9597 30.5597 39.1248 30.1783 39.4088 29.8946L43.9015 25.4018C43.9933 25.31 44.0559 25.1931 44.0813 25.0658C44.1067 24.9384 44.0937 24.8064 44.044 24.6864C43.9943 24.5665 43.9102 24.4639 43.8022 24.3918C43.6943 24.3197 43.5673 24.2812 43.4375 24.2812H33.5424L37.8549 21.9289C38.183 21.7502 38.5507 21.6565 38.9243 21.6562H52.625V25.5938ZM57.875 27.5625H53.9375V20.3438H57.875V27.5625Z" fill="#AD0426"/>
<path d="M31.625 40.0312C31.625 39.8572 31.5559 39.6903 31.4328 39.5672C31.3097 39.4441 31.1428 39.375 30.9688 39.375C30.7947 39.375 30.6278 39.4441 30.5047 39.5672C30.3816 39.6903 30.3125 39.8572 30.3125 40.0312V42H29V40.0312C29 39.8572 28.9309 39.6903 28.8078 39.5672C28.6847 39.4441 28.5178 39.375 28.3438 39.375C28.1697 39.375 28.0028 39.4441 27.8797 39.5672C27.7566 39.6903 27.6875 39.8572 27.6875 40.0312V42H26.375V40.0312C26.375 39.8572 26.3059 39.6903 26.1828 39.5672C26.0597 39.4441 25.8928 39.375 25.7188 39.375C25.5447 39.375 25.3778 39.4441 25.2547 39.5672C25.1316 39.6903 25.0625 39.8572 25.0625 40.0312V42.6562H25.0637C25.0633 42.7581 25.0866 42.8586 25.1318 42.9498L26.3638 45.4139L25.8209 53.016C25.8016 53.2856 25.8381 53.5564 25.9281 53.8113C26.018 54.0663 26.1595 54.3 26.3438 54.4979C26.528 54.6957 26.751 54.8535 26.9989 54.9614C27.2468 55.0693 27.5143 55.125 27.7846 55.125H28.9029C29.1732 55.125 29.4407 55.0693 29.6886 54.9614C29.9365 54.8535 30.1595 54.6957 30.3437 54.4979C30.528 54.3 30.6695 54.0663 30.7594 53.8113C30.8494 53.5564 30.8859 53.2856 30.8666 53.016L30.3237 45.4139L31.5557 42.9498C31.6009 42.8586 31.6242 42.7581 31.6238 42.6562H31.625V40.0312ZM29.9069 43.3125L29.2507 44.625H27.4368L26.7806 43.3125H29.9069ZM29.3832 53.6034C29.3221 53.6697 29.2478 53.7225 29.1651 53.7585C29.0824 53.7945 28.9931 53.8129 28.9029 53.8125H27.7846C27.6945 53.8125 27.6054 53.7939 27.5227 53.758C27.4401 53.722 27.3658 53.6694 27.3044 53.6035C27.2429 53.5375 27.1958 53.4597 27.1658 53.3747C27.1358 53.2897 27.1236 53.1995 27.13 53.1096L27.6423 45.9375H29.045L29.5573 53.1096C29.5642 53.1995 29.5522 53.2898 29.5222 53.3748C29.4923 53.4598 29.4449 53.5377 29.3832 53.6034Z" fill="#AD0426"/>
</svg>
