<svg width="21" height="22" viewBox="0 0 21 22" fill="none" xmlns="http://www.w3.org/2000/svg">
<g clip-path="url(#clip0)">
<path d="M1.31237 1.92779C-0.337881 3.64191 -0.000130821 5.46278 -0.000130821 10.9945C-0.000130821 15.5883 -0.801631 20.1934 3.39312 21.2775C4.70299 21.6144 16.309 21.6144 17.6171 21.2758C19.3636 20.8252 20.7846 19.4085 20.9789 16.9384C21.006 16.5937 21.006 5.40153 20.978 5.04978C20.7715 2.41866 19.1519 0.902286 17.0177 0.595161C16.5286 0.524286 16.4306 0.503286 13.9211 0.498911C5.01974 0.503286 3.06849 0.106912 1.31237 1.92779Z" fill="url(#paint0_linear)"/>
<path d="M10.4985 3.24552C7.32139 3.24552 4.30439 2.9629 3.15201 5.9204C2.67601 7.1419 2.74514 8.72827 2.74514 10.9998C2.74514 12.993 2.68126 14.8664 3.15201 16.0783C4.30176 19.0375 7.34326 18.754 10.4968 18.754C13.5391 18.754 16.676 19.0708 17.8424 16.0783C18.3193 14.8445 18.2493 13.2818 18.2493 10.9998C18.2493 7.97052 18.4164 6.0149 16.9473 4.54665C15.4598 3.05915 13.4481 3.24552 10.495 3.24552H10.4985ZM9.80376 4.6429C16.431 4.6324 17.2745 3.89565 16.809 14.1305C16.6436 17.7504 13.8874 17.3531 10.4994 17.3531C4.32189 17.3531 4.14426 17.1764 4.14426 10.9963C4.14426 4.7444 4.63426 4.6464 9.80376 4.64115V4.6429ZM14.6373 5.93002C14.1236 5.93002 13.7071 6.34652 13.7071 6.86015C13.7071 7.37377 14.1236 7.79027 14.6373 7.79027C15.1509 7.79027 15.5674 7.37377 15.5674 6.86015C15.5674 6.34652 15.1509 5.93002 14.6373 5.93002ZM10.4985 7.01765C8.29964 7.01765 6.51726 8.8009 6.51726 10.9998C6.51726 13.1986 8.29964 14.981 10.4985 14.981C12.6974 14.981 14.4789 13.1986 14.4789 10.9998C14.4789 8.8009 12.6974 7.01765 10.4985 7.01765ZM10.4985 8.41502C13.9154 8.41502 13.9198 13.5845 10.4985 13.5845C7.08251 13.5845 7.07726 8.41502 10.4985 8.41502Z" fill="white"/>
</g>
<defs>
<linearGradient id="paint0_linear" x1="1.35264" y1="20.1576" x2="20.8699" y2="3.26563" gradientUnits="userSpaceOnUse">
<stop stop-color="#FFDD55"/>
<stop offset="0.5" stop-color="#FF543E"/>
<stop offset="1" stop-color="#C837AB"/>
</linearGradient>
<clipPath id="clip0">
<rect width="21" height="21" fill="white" transform="translate(0 0.499023)"/>
</clipPath>
</defs>
</svg>
