<svg width="16" height="16" viewBox="0 0 16 16" fill="none" xmlns="http://www.w3.org/2000/svg">
<path d="M15 12.7083H1C0.734784 12.7083 0.480429 12.603 0.292893 12.4154C0.105357 12.2279 0 11.9735 0 11.7083C0 11.4431 0.105357 11.1887 0.292893 11.0012C0.480429 10.8137 0.734784 10.7083 1 10.7083H15C15.2652 10.7083 15.5196 10.8137 15.7071 11.0012C15.8946 11.1887 16 11.4431 16 11.7083C16 11.9735 15.8946 12.2279 15.7071 12.4154C15.5196 12.603 15.2652 12.7083 15 12.7083ZM1 11.375C0.911595 11.375 0.82681 11.4101 0.764298 11.4726C0.701786 11.5351 0.666667 11.6199 0.666667 11.7083C0.666667 11.7967 0.701786 11.8815 0.764298 11.944C0.82681 12.0065 0.911595 12.0416 1 12.0416H15C15.0884 12.0416 15.1732 12.0065 15.2357 11.944C15.2982 11.8815 15.3333 11.7967 15.3333 11.7083C15.3333 11.6199 15.2982 11.5351 15.2357 11.4726C15.1732 11.4101 15.0884 11.375 15 11.375H1Z" fill="#333333"/>
<path d="M13.4079 10.9375H2.90791C2.83055 10.9375 2.75637 10.9068 2.70167 10.8521C2.64697 10.7974 2.61624 10.7232 2.61624 10.6458V10.3542C2.61192 9.04323 3.07445 7.77356 3.92099 6.77257C4.76752 5.77158 5.94277 5.10467 7.23624 4.89126C7.84718 4.78629 8.47155 4.78629 9.08249 4.89126C10.3734 5.1097 11.5453 5.77814 12.3904 6.77809C13.2355 7.77804 13.6993 9.04492 13.6996 10.3542V10.6458C13.6996 10.7232 13.6688 10.7974 13.6141 10.8521C13.5595 10.9068 13.4853 10.9375 13.4079 10.9375ZM3.19957 10.3542H13.1162C13.1155 9.18332 12.7004 8.0505 11.9445 7.15634C11.1886 6.26218 10.1406 5.66436 8.98624 5.46876C8.43907 5.37398 7.87967 5.37398 7.33249 5.46876C6.17603 5.66044 5.12539 6.25705 4.36829 7.152C3.61119 8.04696 3.19694 9.18194 3.19957 10.3542Z" fill="#333333"/>
<path d="M9.00008 5.12835H8.94342C8.31905 5.02172 7.68112 5.02172 7.05675 5.12835C7.00936 5.13688 6.96068 5.13504 6.91407 5.12295C6.86746 5.11087 6.82403 5.08883 6.78675 5.05835C6.74912 5.02701 6.71886 4.98777 6.69812 4.9434C6.67738 4.89904 6.66667 4.85066 6.66675 4.80169V4.37502C6.66675 4.0214 6.80722 3.68226 7.05727 3.43221C7.30732 3.18216 7.64646 3.04169 8.00008 3.04169C8.3537 3.04169 8.69284 3.18216 8.94289 3.43221C9.19294 3.68226 9.33342 4.0214 9.33342 4.37502V4.79502C9.33349 4.84399 9.32278 4.89238 9.30204 4.93674C9.2813 4.9811 9.25104 5.02035 9.21342 5.05169C9.15344 5.10138 9.07797 5.12851 9.00008 5.12835ZM8.00008 4.37502C8.22279 4.37551 8.44533 4.38775 8.66675 4.41169V4.37502C8.66675 4.19821 8.59651 4.02864 8.47149 3.90362C8.34646 3.77859 8.17689 3.70835 8.00008 3.70835C7.82327 3.70835 7.6537 3.77859 7.52868 3.90362C7.40365 4.02864 7.33342 4.19821 7.33342 4.37502V4.41169C7.55484 4.38775 7.77737 4.37551 8.00008 4.37502Z" fill="#333333"/>
</svg>
