<svg width="16" height="16" viewBox="0 0 16 16" fill="none" xmlns="http://www.w3.org/2000/svg">
<path d="M14.2929 7.36671L8.16621 13.4934C7.41565 14.2439 6.39767 14.6656 5.33621 14.6656C4.27475 14.6656 3.25677 14.2439 2.50621 13.4934C1.75565 12.7428 1.33398 11.7248 1.33398 10.6634C1.33398 9.60193 1.75565 8.58394 2.50621 7.83338L8.63288 1.70671C9.13325 1.20634 9.81191 0.925232 10.5195 0.925232C11.2272 0.925232 11.9058 1.20634 12.4062 1.70671C12.9066 2.20709 13.1877 2.88574 13.1877 3.59338C13.1877 4.30102 12.9066 4.97967 12.4062 5.48005L6.27288 11.6067C6.02269 11.8569 5.68336 11.9975 5.32954 11.9975C4.97572 11.9975 4.6364 11.8569 4.38621 11.6067C4.13602 11.3565 3.99547 11.0172 3.99547 10.6634C3.99547 10.3096 4.13602 9.97024 4.38621 9.72005L10.0462 4.06671" stroke="black" stroke-width="1.5" stroke-linecap="round" stroke-linejoin="round"/>
</svg>