<svg width="61" height="61" viewBox="0 0 61 61" fill="none" xmlns="http://www.w3.org/2000/svg">
<path fill-rule="evenodd" clip-rule="evenodd" d="M30.916 60.2334C47.4846 60.2334 60.916 46.8019 60.916 30.2334C60.916 13.6649 47.4846 0.233398 30.916 0.233398C14.3475 0.233398 0.916016 13.6649 0.916016 30.2334C0.916016 46.8019 14.3475 60.2334 30.916 60.2334ZM24.439 11.1132L50.7744 16.6865C51.8886 16.9223 52.607 18.027 52.3713 19.1408L51.871 22.3562L21.4843 15.9259L21.9847 12.7105C22.2204 11.5963 23.3248 10.8775 24.439 11.1132ZM39.6993 23.0381C39.3917 21.9303 38.2341 21.2756 37.1267 21.5827L32.1273 22.9706L20.3414 20.4763L19.0452 26.6006L10.9465 28.8485C9.8392 29.1556 9.18443 30.3133 9.49154 31.4207L14.0556 47.8674C14.3632 48.9748 15.5209 49.63 16.6283 49.3224L42.8084 42.0571C43.9157 41.7495 44.5705 40.5923 44.2634 39.4845L43.48 36.6611L46.4161 37.2819C47.5303 37.518 48.6347 36.7992 48.8705 35.6849L50.7281 26.9066L40.1519 24.6686L39.6993 23.0381ZM42.7227 31.397L43.3702 28.3369C43.4675 27.8788 43.9218 27.5833 44.3799 27.68L47.4399 28.3279C47.8985 28.4251 48.194 28.879 48.0973 29.3375L47.4498 32.3976C47.3526 32.8558 46.8983 33.1517 46.4402 33.0545L43.3801 32.4071C42.9211 32.3095 42.6255 31.8552 42.7227 31.397ZM11.4021 30.4897L18.6472 28.4798L35.7418 23.7359L37.5813 23.2248C37.6149 23.2158 37.6484 23.2115 37.6812 23.2115C37.8287 23.2115 38.0052 23.3083 38.0567 23.4937L38.2727 24.2715L38.9494 26.7099L12.0259 34.1813L11.1332 30.9655C11.0773 30.7637 11.2004 30.5456 11.4021 30.4897ZM42.6216 39.9396C42.6561 40.0644 42.62 40.1676 42.5834 40.2321C42.5472 40.2966 42.4775 40.381 42.3527 40.4154L16.1731 47.6807C16.14 47.6897 16.106 47.6945 16.0733 47.6945C15.9257 47.6945 15.7493 47.5972 15.6977 47.4118L13.0356 37.8186L39.9591 30.3469L41.6012 36.2635L42.6216 39.9396ZM19.3547 40.0027C19.8064 39.8775 20.2779 40.1443 20.4035 40.596L21.2523 43.653C21.3775 44.1047 21.1108 44.5767 20.6591 44.7019L17.6016 45.5502C17.1499 45.6758 16.6784 45.4091 16.5528 44.9574L15.7044 41.9004C15.5788 41.4487 15.8459 40.9767 16.2972 40.8515L19.3547 40.0027Z" fill="url(#paint0_linear)"/>
<defs>
<linearGradient id="paint0_linear" x1="-7.11372" y1="30.2334" x2="74.6335" y2="30.2334" gradientUnits="userSpaceOnUse">
<stop stop-color="#F4BD7F"/>
<stop offset="1" stop-color="#BE5B26"/>
</linearGradient>
</defs>
</svg>
