<svg width="23" height="23" viewBox="0 0 23 23" fill="none" xmlns="http://www.w3.org/2000/svg">
<path d="M22.6804 19.1253L19.4377 22.342C18.959 22.8329 18.3245 22.9993 17.7066 23C14.974 22.9181 12.3911 21.5758 10.2703 20.1975C6.78922 17.6651 3.59517 14.5249 1.59053 10.7301C0.821679 9.13884 -0.0804582 7.10849 0.00573428 5.33234C0.0134201 4.66419 0.193472 4.00844 0.664033 3.57776L3.90676 0.33666C4.58013 -0.236098 5.23132 -0.0380677 5.66222 0.629086L8.27101 5.57604C8.5456 6.1621 8.38808 6.79004 7.97842 7.20881L6.78372 8.40289C6.70997 8.50392 6.66301 8.61892 6.66182 8.74408C7.11994 10.5174 8.50782 12.1519 9.73387 13.2767C10.9599 14.4016 12.2778 15.9255 13.9884 16.2863C14.1999 16.3453 14.4589 16.366 14.6102 16.2254L15.9999 14.812C16.479 14.4488 17.1707 14.2714 17.6822 14.5683H17.7066L22.4122 17.3463C23.103 17.7794 23.175 18.6162 22.6804 19.1253Z" fill="#E30613"/>
</svg>
