<svg width="217" height="217" viewBox="0 0 217 217" fill="none" xmlns="http://www.w3.org/2000/svg">
<path d="M108.5 20.3438C89.8783 20.3438 74.5934 35.6287 74.5934 54.25V61.0312H41.1075L40.6871 67.3921L33.9059 189.455L33.4786 196.656H183.514L183.093 189.448L176.312 67.3853L175.885 61.0312H142.406V54.25C142.406 35.6287 127.121 20.3438 108.5 20.3438ZM108.5 33.9062C113.895 33.9062 119.07 36.0496 122.885 39.8648C126.7 43.68 128.843 48.8545 128.843 54.25V61.0312H88.1559V54.25C88.1559 48.8545 90.2992 43.68 94.1144 39.8648C97.9296 36.0496 103.104 33.9062 108.5 33.9062ZM53.8224 74.5938H74.5934V94.9375H88.1559V74.5938H128.843V94.9375H142.406V74.5938H163.177L169.11 183.094H47.8956L53.8224 74.5938Z" fill="#C4C4C4"/>
</svg>
