<svg width="25" height="14" viewBox="0 0 25 14" fill="none" xmlns="http://www.w3.org/2000/svg">
<path fill-rule="evenodd" clip-rule="evenodd" d="M24.4271 0.948C24.6 0.402 24.4271 0 23.599 0H20.8646C20.1688 0 19.8479 0.347 19.674 0.73C19.674 0.73 18.2833 3.926 16.3135 6.002C15.676 6.604 15.3865 6.795 15.0385 6.795C14.8646 6.795 14.6031 6.604 14.6031 6.057V0.948C14.6031 0.292 14.4115 0 13.8323 0H9.53229C9.09792 0 8.83646 0.304 8.83646 0.593C8.83646 1.214 9.82187 1.358 9.92292 3.106V6.904C9.92292 7.737 9.76354 7.888 9.41562 7.888C8.48854 7.888 6.23333 4.677 4.89479 1.003C4.63542 0.288 4.37292 0 3.67396 0H0.9375C0.15625 0 0 0.347 0 0.73C0 1.412 0.927083 4.8 4.31771 9.281C6.57812 12.341 9.76042 14 12.6594 14C14.3979 14 14.6125 13.632 14.6125 12.997V10.684C14.6125 9.947 14.7771 9.8 15.3281 9.8C15.7344 9.8 16.4292 9.992 18.0521 11.467C19.9062 13.216 20.2115 14 21.2552 14H23.9896C24.7708 14 25.1625 13.632 24.9375 12.904C24.6896 12.18 23.8042 11.129 22.6302 9.882C21.9927 9.172 21.0365 8.407 20.7458 8.024C20.3406 7.533 20.4562 7.314 20.7458 6.877C20.7458 6.877 24.0792 2.451 24.426 0.948H24.4271Z" fill="#E5E5E5"/>
</svg>
