<svg width="116" height="116" viewBox="0 0 116 116" fill="none" xmlns="http://www.w3.org/2000/svg">
<g clip-path="url(#clip0)">
<path d="M18.5699 49.416L14.7265 48.9829L18.5699 49.416ZM12.5534 103.549L16.3969 103.975L12.5534 103.549ZM103.451 103.549L99.6075 103.975L103.451 103.549ZM97.4345 49.416L101.278 48.9829L97.4345 49.416ZM14.7265 48.9829L8.70993 103.116L16.3969 103.967L22.4134 49.8336L14.7265 48.9829ZM20.2403 116H95.7641V108.267H20.2403V116ZM107.294 103.116L101.278 48.9829L93.591 49.8336L99.6075 103.967L107.287 103.116H107.294ZM89.7398 38.6667H26.2646V46.4H89.7553V38.6667H89.7398ZM101.278 48.9829C100.962 46.146 99.6112 43.525 97.4838 41.6217C95.3565 39.7184 92.602 38.6663 89.7475 38.6667V46.4C90.6994 46.3999 91.6179 46.751 92.3271 47.386C93.0363 48.021 93.4863 48.8952 93.591 49.8413L101.278 48.9907V48.9829ZM95.7641 116C97.3952 115.999 99.0078 115.654 100.497 114.988C101.985 114.322 103.317 113.349 104.404 112.133C105.492 110.917 106.311 109.486 106.807 107.932C107.304 106.378 107.467 104.737 107.287 103.116L99.6075 103.967C99.6685 104.508 99.6146 105.056 99.4492 105.574C99.2839 106.093 99.0108 106.571 98.648 106.977C98.2852 107.383 97.8408 107.707 97.3438 107.93C96.8468 108.152 96.3085 108.267 95.7641 108.267V116ZM8.70993 103.116C8.52934 104.738 8.69295 106.38 9.19006 107.934C9.68718 109.488 10.5066 110.92 11.5948 112.136C12.683 113.352 14.0156 114.324 15.5053 114.99C16.9951 115.656 18.6085 116 20.2403 116V108.267C19.6966 108.267 19.1591 108.152 18.6627 107.93C18.1663 107.708 17.7222 107.385 17.3595 106.979C16.9969 106.574 16.7236 106.097 16.5578 105.58C16.3919 105.062 16.3371 104.515 16.3969 103.975L8.70993 103.124V103.116ZM22.4134 49.8336C22.5199 48.8889 22.9707 48.0165 23.6797 47.3831C24.3887 46.7497 25.3061 46.3997 26.2569 46.4V38.6667C23.4037 38.6682 20.6511 39.7211 18.5254 41.6243C16.3997 43.5274 15.0499 46.1473 14.7342 48.9829L22.4134 49.8336ZM38.6689 30.9333V27.0667H30.9355V30.9333H38.6689ZM77.3355 27.0667V30.9333H85.0689V27.0667H77.3355ZM58.0022 7.73333C63.1297 7.73333 68.0472 9.77023 71.6729 13.3959C75.2986 17.0216 77.3355 21.9391 77.3355 27.0667H85.0689C85.0689 19.8881 82.2172 13.0036 77.1412 7.92764C72.0652 2.85166 65.1807 0 58.0022 0V7.73333ZM38.6689 27.0667C38.6689 21.9391 40.7058 17.0216 44.3315 13.3959C47.9572 9.77023 52.8747 7.73333 58.0022 7.73333V0C50.8237 0 43.9392 2.85166 38.8632 7.92764C33.7872 13.0036 30.9355 19.8881 30.9355 27.0667H38.6689Z" fill="#FFCC80"/>
</g>
<defs>
<clipPath id="clip0">
<rect width="116" height="116" fill="white"/>
</clipPath>
</defs>
</svg>
