<svg width="17" height="18" viewBox="0 0 17 18" fill="none" xmlns="http://www.w3.org/2000/svg">
<path d="M14.1982 10.4375C13.2314 11.4043 12.1206 12 10.8657 12.2246C9.61084 12.4492 8.51465 12.2588 7.57715 11.6533L5.07227 14.1582L6.36133 15.4473C6.53711 15.623 6.625 15.8354 6.625 16.0845C6.625 16.3335 6.53711 16.5459 6.36133 16.7217C6.18555 16.8975 5.97314 16.9854 5.72412 16.9854C5.4751 16.9854 5.2627 16.8975 5.08691 16.7217L1.26367 12.9131C1.08789 12.7373 1 12.5249 1 12.2759C1 12.0269 1.08789 11.8145 1.26367 11.6387C1.43945 11.4629 1.65186 11.375 1.90088 11.375C2.1499 11.375 2.3623 11.4629 2.53809 11.6387L3.82715 12.9277L6.33203 10.4229C5.73633 9.48535 5.54834 8.38916 5.76807 7.13428C5.98779 5.87939 6.58105 4.76855 7.54785 3.80176C8.56348 2.7959 9.73535 2.19531 11.0635 2C11.6396 2.56641 12.2012 3.12305 12.748 3.66992C13.2949 4.2168 13.8809 4.80518 14.5059 5.43506C15.1309 6.06494 15.6289 6.56543 16 6.93652C15.8047 8.26465 15.2041 9.43164 14.1982 10.4375ZM10.873 2.99609C9.94531 3.2207 9.12012 3.69434 8.39746 4.41699C7.93848 4.87598 7.57715 5.38379 7.31348 5.94043C7.0498 6.49707 6.89844 7.05859 6.85938 7.625H14.8428C14.9209 7.41016 14.9746 7.24414 15.0039 7.12695L10.873 2.99609Z" fill="#333333"/>
</svg>
