<svg width="32" height="32" viewBox="0 0 32 32" fill="none" xmlns="http://www.w3.org/2000/svg">
<path d="M8.45 13L8.718 12.904L10.988 8.648C11.4143 7.84818 12.0501 7.1793 12.8272 6.71288C13.6043 6.24646 14.4936 6.00005 15.4 6H21.118C22.1673 6.00038 23.1899 6.33087 24.041 6.94466C24.892 7.55846 25.5284 8.42446 25.86 9.42L26.942 12.666C27.8485 13.0481 28.6221 13.6891 29.1661 14.5087C29.71 15.3284 30.0001 16.2903 30 17.274V19.5C30 20.92 29.156 22.14 27.94 22.69C27.7828 23.5908 27.3217 24.4105 26.6336 25.0126C25.9454 25.6147 25.0718 25.9629 24.1581 25.9991C23.2445 26.0354 22.346 25.7575 21.6123 25.2118C20.8786 24.6661 20.3541 23.8855 20.126 23H11.874C11.6459 23.8855 11.1214 24.6661 10.3877 25.2118C9.65402 25.7575 8.75552 26.0354 7.84187 25.9991C6.92822 25.9629 6.05456 25.6147 5.36642 25.0126C4.67829 24.4105 4.21721 23.5908 4.06 22.69C3.44609 22.4129 2.92517 21.9645 2.55977 21.3987C2.19437 20.8328 2.00001 20.1736 2 19.5V18.822C2 16.708 3.332 14.822 5.324 14.112L8.344 13.038V13H8.45ZM23.964 10.052C23.765 9.45454 23.3831 8.93486 22.8723 8.56657C22.3615 8.19828 21.7477 8.00006 21.118 8H19V13H24.946L23.962 10.052H23.964ZM10.934 13H17V8H15.4C14.8561 7.99981 14.3224 8.14746 13.856 8.42718C13.3896 8.70689 13.008 9.10814 12.752 9.588L10.932 13H10.934ZM26 22C26 21.4696 25.7893 20.9609 25.4142 20.5858C25.0391 20.2107 24.5304 20 24 20C23.4696 20 22.9609 20.2107 22.5858 20.5858C22.2107 20.9609 22 21.4696 22 22C22 22.5304 22.2107 23.0391 22.5858 23.4142C22.9609 23.7893 23.4696 24 24 24C24.5304 24 25.0391 23.7893 25.4142 23.4142C25.7893 23.0391 26 22.5304 26 22ZM8 20C7.46957 20 6.96086 20.2107 6.58579 20.5858C6.21071 20.9609 6 21.4696 6 22C6 22.5304 6.21071 23.0391 6.58579 23.4142C6.96086 23.7893 7.46957 24 8 24C8.53043 24 9.03914 23.7893 9.41421 23.4142C9.78929 23.0391 10 22.5304 10 22C10 21.4696 9.78929 20.9609 9.41421 20.5858C9.03914 20.2107 8.53043 20 8 20Z" fill="#FFCC80"/>
</svg>
