<svg width="28" height="28" viewBox="0 0 28 28" fill="none" xmlns="http://www.w3.org/2000/svg">
<circle cx="14" cy="14" r="14" fill="#F08601"/>
<path d="M21.0546 10.0837H19.8754C19.7519 8.81725 18.6814 7.82422 17.3832 7.82422C16.0024 7.82422 14.8789 8.94771 14.8789 10.3286V10.8956C14.8789 11.2765 14.7244 11.6497 14.455 11.9191C14.1855 12.1884 13.8125 12.343 13.4316 12.343H11.4149V12.8709C11.4149 14.4486 12.6984 15.732 14.276 15.732H15.4062C15.6975 15.732 15.9336 15.9682 15.9336 16.2594C15.9336 16.5507 15.6975 16.7867 15.4062 16.7867H14.276C12.1168 16.7867 10.3602 15.0302 10.3602 12.8709V11.9617L7.19521 10.1532C6.84433 9.95241 6.40625 10.2066 6.40625 10.611V11.5068C6.40625 12.1627 6.66168 12.7795 7.12558 13.2432L7.53249 13.6503C7.53468 13.6523 7.53592 13.6555 7.53592 13.6585V14C7.53592 17.4054 10.3064 20.1759 13.7117 20.1759C17.1171 20.1759 19.8876 17.4054 19.8876 14V11.1384H21.0546C21.3459 11.1384 21.5819 10.9022 21.5819 10.611C21.5819 10.3198 21.3459 10.0837 21.0546 10.0837Z" fill="white"/>
<path d="M17.3832 6.76935C18.9103 6.76935 20.2157 7.73642 20.7197 9.09035C20.9107 8.7907 21.0172 8.43735 21.0172 8.06464C21.0172 7.179 20.2443 6.41353 19.2801 6.53534C19.0939 5.65918 18.3141 5 17.3825 5C16.4518 5 15.672 5.65918 15.4861 6.53534C14.5411 6.416 13.749 7.15977 13.749 8.06532C13.749 8.43762 13.8555 8.7907 14.0466 9.09021C14.5506 7.73642 15.8561 6.76935 17.3832 6.76935Z" fill="white"/>
<path d="M15.576 21.9453H13.749L13.6055 21.2295C13.2329 21.2241 12.8672 21.1908 12.5104 21.1306L12.6732 21.9453H12.187C11.8957 21.9453 11.6597 22.1813 11.6597 22.4726C11.6597 22.7639 11.8957 22.9999 12.187 22.9999H15.576C15.8673 22.9999 16.1034 22.7639 16.1034 22.4726C16.1034 22.1813 15.8673 21.9453 15.576 21.9453Z" fill="white"/>
</svg>
