<svg width="16" height="16" viewBox="0 0 16 16" fill="none" xmlns="http://www.w3.org/2000/svg">
<path d="M14.9571 7.89082L13.35 4.00432C13.309 3.90397 13.2404 3.81834 13.1527 3.75812C13.0651 3.69789 12.9623 3.66573 12.8571 3.66564H11.25V2.55521C11.25 2.40796 11.1936 2.26674 11.0931 2.16262C10.9926 2.0585 10.8564 2 10.7143 2H0.535714C0.393634 2 0.257373 2.0585 0.156907 2.16262C0.0564411 2.26674 0 2.40796 0 2.55521V11.9938C0 12.1411 0.0564411 12.2823 0.156907 12.3864C0.257373 12.4906 0.393634 12.5491 0.535714 12.5491H1.68214C1.80551 13.0195 2.07482 13.4349 2.44853 13.731C2.82225 14.0271 3.27959 14.1875 3.75 14.1875C4.22041 14.1875 4.67775 14.0271 5.05147 13.731C5.42518 13.4349 5.69449 13.0195 5.81786 12.5491H9.18214C9.30551 13.0195 9.57482 13.4349 9.94853 13.731C10.3222 14.0271 10.7796 14.1875 11.25 14.1875C11.7204 14.1875 12.1778 14.0271 12.5515 13.731C12.9252 13.4349 13.1945 13.0195 13.3179 12.5491H14.4643C14.6064 12.5491 14.7426 12.4906 14.8431 12.3864C14.9436 12.2823 15 12.1411 15 11.9938V8.10735C14.9999 8.03293 14.9853 7.95929 14.9571 7.89082ZM11.25 4.77607H12.5036L13.65 7.55214H11.25V4.77607ZM3.75 13.1043C3.53809 13.1043 3.33094 13.0392 3.15475 12.9171C2.97855 12.7951 2.84122 12.6217 2.76013 12.4188C2.67903 12.2159 2.65782 11.9926 2.69916 11.7772C2.7405 11.5618 2.84254 11.364 2.99239 11.2087C3.14223 11.0534 3.33314 10.9476 3.54097 10.9048C3.74881 10.8619 3.96424 10.8839 4.16002 10.9679C4.3558 11.052 4.52313 11.1943 4.64086 11.3769C4.75859 11.5595 4.82143 11.7742 4.82143 11.9938C4.82143 12.2884 4.70855 12.5708 4.50761 12.779C4.30668 12.9873 4.03416 13.1043 3.75 13.1043ZM9.18214 11.4386H5.81786C5.69449 10.9682 5.42518 10.5528 5.05147 10.2567C4.67775 9.96063 4.22041 9.8002 3.75 9.8002C3.27959 9.8002 2.82225 9.96063 2.44853 10.2567C2.07482 10.5528 1.80551 10.9682 1.68214 11.4386H1.07143V3.11043H10.1786V10.0839C9.93463 10.2306 9.72104 10.4259 9.55005 10.6583C9.37906 10.8908 9.25403 11.156 9.18214 11.4386ZM11.25 13.1043C11.0381 13.1043 10.8309 13.0392 10.6547 12.9171C10.4785 12.7951 10.3412 12.6217 10.2601 12.4188C10.179 12.2159 10.1578 11.9926 10.1992 11.7772C10.2405 11.5618 10.3425 11.364 10.4924 11.2087C10.6422 11.0534 10.8331 10.9476 11.041 10.9048C11.2488 10.8619 11.4642 10.8839 11.66 10.9679C11.8558 11.052 12.0231 11.1943 12.1409 11.3769C12.2586 11.5595 12.3214 11.7742 12.3214 11.9938C12.3214 12.2884 12.2085 12.5708 12.0076 12.779C11.8067 12.9873 11.5342 13.1043 11.25 13.1043ZM13.9286 11.4386H13.3179C13.1994 10.9631 12.9322 10.5417 12.558 10.2403C12.1839 9.93893 11.7239 9.77459 11.25 9.77299V8.66257H13.9286V11.4386Z" fill="#333333"/>
</svg>
