<svg width="28" height="28" viewBox="0 0 28 28" fill="none" xmlns="http://www.w3.org/2000/svg">
<circle cx="14" cy="14" r="14" fill="#5290CA"/>
<path d="M5 12.1716C5 12.4628 5.23611 12.6989 5.52734 12.6989H6.24935C6.43269 10.8816 7.17969 9.18684 8.40485 7.82031C6.44731 8.30174 5 10.0671 5 12.1716Z" fill="white"/>
<path d="M7.25928 13.5836C7.25928 17.698 10.5243 21.038 14.6023 21.1671V18.9776C12.9779 18.8528 11.703 17.4966 11.703 15.8429C11.703 14.1862 12.9807 12.833 14.6023 12.7082V6C10.5195 6.12916 7.25928 9.47404 7.25928 13.5836Z" fill="white"/>
<path d="M18.3295 16.3133C18.1233 16.1071 17.789 16.1071 17.5829 16.3133L15.6567 18.2394V21.9195L17.5829 23.8456C17.789 24.0518 18.1233 24.0518 18.3295 23.8456C19.2807 22.8943 19.5201 21.303 18.646 20.0795C19.5201 18.8559 19.2807 17.2646 18.3295 16.3133Z" fill="white"/>
<path d="M15.6567 6.01294V12.6989H17.3888C18.99 12.6989 21.3052 12.7344 21.3052 10.477C21.3052 8.60948 19.0855 6.23636 15.6567 6.01294ZM17.3888 9.87468C17.0977 9.87468 16.8614 9.63843 16.8614 9.34733C16.8614 9.05624 17.0977 8.81999 17.3888 8.81999C17.6799 8.81999 17.9161 9.05624 17.9161 9.34733C17.9161 9.63843 17.6799 9.87468 17.3888 9.87468Z" fill="white"/>
</svg>
