<svg width="117" height="116" viewBox="0 0 117 116" fill="none" xmlns="http://www.w3.org/2000/svg">
<rect x="7.50517" y="7.00517" width="59.9384" height="87.4712" rx="12.7612" fill="white" stroke="#FFCC80" stroke-width="2.01034"/>
<rect x="45.556" y="22.677" width="59.9384" height="87.4712" rx="12.7612" fill="white" stroke="#FFCC80" stroke-width="2.01034"/>
<path fill-rule="evenodd" clip-rule="evenodd" d="M105.292 82.6368L98.5747 75.9199L82.8661 91.6105C82.5437 91.9509 82.3467 92.3987 82.3467 92.8823V97.0736C82.3467 98.0588 83.1527 98.8648 84.1379 98.8648H88.3292C88.7949 98.8648 89.2606 98.6857 89.583 98.3453L105.292 82.6368ZM100.491 74.0033L107.208 80.7202L110.486 77.4424C111.185 76.7438 111.185 75.6154 110.486 74.9168L106.295 70.7255C106.129 70.5594 105.932 70.4277 105.715 70.3378C105.499 70.2479 105.266 70.2017 105.032 70.2017C104.797 70.2017 104.565 70.2479 104.348 70.3378C104.132 70.4277 103.935 70.5594 103.769 70.7255L100.491 74.0033Z" fill="#FF9900"/>
</svg>
