<svg width="79" height="78" viewBox="0 0 79 78" fill="none" xmlns="http://www.w3.org/2000/svg">
<circle cx="39.5" cy="39" r="38.0625" stroke="#AD0426" stroke-width="1.125" stroke-dasharray="1.29 1.29"/>
<g clip-path="url(#clip0)">
<path d="M59.3403 36.1762V30.2732C59.3403 28.2715 57.7877 26.6437 55.8261 26.4858L50.3441 16.9107C49.8361 16.0251 49.0158 15.3922 48.0342 15.1294C47.0572 14.8683 46.0357 15.0054 45.1613 15.5143L26.3687 26.455H23.0681C20.9624 26.455 19.25 28.1674 19.25 30.2732V53.1819C19.25 55.2876 20.9623 57.0001 23.0681 57.0001H55.5222C57.6279 57.0001 59.3403 55.2877 59.3403 53.1819V47.2789C60.449 46.8835 61.2494 45.8339 61.2494 44.5911V38.864C61.2494 37.6212 60.449 36.5716 59.3403 36.1762ZM53.6078 26.455H45.2881L51.5279 22.8222L53.6078 26.455ZM50.5795 21.1655L41.4939 26.455H37.7253L49.6372 19.5198L50.5795 21.1655ZM46.1223 17.1642C46.5539 16.9116 47.0581 16.8445 47.5401 16.9732C48.0276 17.1036 48.4341 17.4187 48.6867 17.8596L48.6887 17.8631L33.9314 26.455H30.163L46.1223 17.1642ZM57.4312 53.1819C57.4312 54.2343 56.5746 55.0909 55.5222 55.0909H23.0681C22.0158 55.0909 21.1591 54.2343 21.1591 53.1819V30.2732C21.1591 29.2208 22.0158 28.3642 23.0681 28.3642H55.5222C56.5746 28.3642 57.4312 29.2208 57.4312 30.2732V36.0004H51.704C48.5459 36.0004 45.9769 38.5694 45.9769 41.7275C45.9769 44.8857 48.5459 47.4547 51.704 47.4547H57.4312V53.1819ZM59.3403 44.5911C59.3403 45.1178 58.9125 45.5457 58.3858 45.5457H51.704C49.5983 45.5457 47.8859 43.8334 47.8859 41.7275C47.8859 39.6218 49.5982 37.9094 51.704 37.9094H58.3858C58.9124 37.9094 59.3403 38.3372 59.3403 38.864V44.5911Z" fill="#AD0426"/>
<path d="M51.704 39.8185C50.6516 39.8185 49.7949 40.6752 49.7949 41.7276C49.7949 42.7799 50.6516 43.6366 51.704 43.6366C52.7563 43.6366 53.613 42.7799 53.613 41.7276C53.6131 40.6752 52.7564 39.8185 51.704 39.8185Z" fill="#AD0426"/>
</g>
<defs>
<clipPath id="clip0">
<rect width="42" height="42" fill="white" transform="translate(19.25 15)"/>
</clipPath>
</defs>
</svg>
