<svg width="9" height="8" viewBox="0 0 9 8" fill="none" xmlns="http://www.w3.org/2000/svg">
<path d="M7.03505 0.999537C7.17676 0.864628 7.36533 0.790045 7.56098 0.791526C7.75663 0.793006 7.94405 0.870434 8.0837 1.00747C8.22335 1.14451 8.3043 1.33044 8.30947 1.52603C8.31464 1.72161 8.24363 1.91156 8.11142 2.05579L4.09768 7.07548C4.02866 7.14982 3.94536 7.20948 3.85276 7.25089C3.76016 7.29229 3.66016 7.31461 3.55874 7.31648C3.45732 7.31836 3.35656 7.29977 3.26249 7.26182C3.16842 7.22386 3.08297 7.16733 3.01125 7.0956L0.349504 4.43385C0.275379 4.36478 0.215925 4.28149 0.174689 4.18894C0.133453 4.0964 0.11128 3.99649 0.109492 3.89519C0.107705 3.79389 0.12634 3.69326 0.164286 3.59932C0.202231 3.50538 0.25871 3.42004 0.330352 3.34839C0.401995 3.27675 0.487334 3.22027 0.581277 3.18233C0.675221 3.14438 0.775846 3.12575 0.877148 3.12753C0.97845 3.12932 1.07835 3.15149 1.1709 3.19273C1.26345 3.23397 1.34674 3.29342 1.41581 3.36755L3.52227 5.473L7.01594 1.02167C7.02223 1.01392 7.02895 1.00654 7.03606 0.999537H7.03505Z" fill="white"/>
</svg>
