<svg width="29" height="28" viewBox="0 0 29 28" fill="none" xmlns="http://www.w3.org/2000/svg">
<circle cx="14.3975" cy="14" r="14" fill="#C94C4C"/>
<g clip-path="url(#clip0)">
<path d="M19.8848 8.54217C18.9799 7.63726 17.7768 7.13892 16.4971 7.13892C15.2174 7.13892 14.0143 7.63726 13.1094 8.54213C10.4922 11.1594 8.75971 13.6918 7.96013 16.069C7.35593 17.8652 7.51652 18.9326 7.55487 19.1283C7.71282 19.9352 7.81466 20.07 8.08581 20.3412C8.41984 20.6752 8.86514 20.8592 9.33958 20.8592C9.81403 20.8592 10.2593 20.6752 10.5934 20.3412C13.8162 17.1183 15.6345 16.9128 17.0955 16.7477C18.0511 16.6397 18.6279 16.5745 19.8849 15.3175C20.7897 14.4126 21.2881 13.2095 21.2881 11.9298C21.2881 10.6501 20.7897 9.44704 19.8848 8.54217ZM18.7446 13.336C18.332 13.7485 17.7835 13.9758 17.2 13.9758C16.6165 13.9758 16.068 13.7486 15.6554 13.336C14.8037 12.4843 14.8037 11.0984 15.6554 10.2467C16.068 9.83412 16.6166 9.60689 17.2 9.60689C17.7835 9.60689 18.3321 9.83412 18.7446 10.2467C19.1572 10.6593 19.3844 11.2078 19.3844 11.7913C19.3844 12.3748 19.1572 12.9234 18.7446 13.336Z" fill="white"/>
<path d="M21.3764 7.0508C20.0732 5.74753 18.3404 5.02979 16.4973 5.02979C14.6541 5.02979 12.9213 5.74753 11.6181 7.0508C8.76864 9.90023 6.86532 12.7082 5.96108 15.3967C5.22741 17.5778 5.38374 19.0164 5.48502 19.5337C5.6771 20.5148 5.90142 21.1398 6.59449 21.8328C7.32773 22.5661 8.3027 22.9699 9.33972 22.9699C10.3767 22.9699 11.3517 22.5661 12.0849 21.8328C14.7862 19.1316 16.0807 18.9853 17.3325 18.8438C18.4463 18.7179 19.5978 18.5877 21.3764 16.8091C22.6797 15.5059 23.3975 13.7731 23.3975 11.93C23.3975 10.0869 22.6797 8.35408 21.3764 7.0508ZM20.6307 16.0634C19.1129 17.5812 18.2749 17.6759 17.2141 17.7958C15.8487 17.9501 14.3013 18.125 11.3392 21.0871C10.2367 22.1896 8.44276 22.1896 7.34021 21.0871C6.8696 20.6164 6.70097 20.2554 6.52003 19.3311C6.45359 18.9918 6.2891 17.7296 6.96069 15.7329C7.81258 13.2001 9.63048 10.5299 12.3638 7.79653C13.4679 6.69244 14.9359 6.08441 16.4973 6.08441C18.0586 6.08441 19.5266 6.69244 20.6307 7.79653C21.7348 8.90062 22.3428 10.3686 22.3428 11.93C22.3428 13.4914 21.7348 14.9593 20.6307 16.0634Z" fill="white"/>
<path d="M17.2001 10.6616C16.8983 10.6616 16.6146 10.7791 16.4012 10.9926C15.9607 11.4331 15.9607 12.1498 16.4012 12.5904C16.6145 12.8038 16.8983 12.9213 17.2001 12.9213C17.5019 12.9213 17.7856 12.8038 17.999 12.5904C18.2124 12.377 18.3299 12.0932 18.3299 11.7915C18.3299 11.4897 18.2124 11.206 17.999 10.9926C17.7856 10.7791 17.5019 10.6616 17.2001 10.6616Z" fill="white"/>
</g>
<defs>
<clipPath id="clip0">
<rect width="18" height="18" fill="white" transform="translate(5.39746 5)"/>
</clipPath>
</defs>
</svg>
