<svg width="116" height="116" viewBox="0 0 116 116" fill="none" xmlns="http://www.w3.org/2000/svg">
<path d="M104.757 89.6742C101.65 86.9042 98.9292 83.7287 96.669 80.2331C94.2015 75.408 92.7225 70.1386 92.319 64.7342V48.8165C92.3403 40.3279 89.2611 32.1237 83.66 25.7453C78.0589 19.3669 70.3214 15.2533 61.9012 14.1776V10.0209C61.9012 8.88003 61.448 7.78589 60.6413 6.97917C59.8345 6.17245 58.7404 5.71924 57.5995 5.71924C56.4586 5.71924 55.3645 6.17245 54.5578 6.97917C53.7511 7.78589 53.2979 8.88003 53.2979 10.0209V14.242C44.9531 15.3953 37.3091 19.5337 31.7816 25.8907C26.254 32.2477 23.2175 40.3924 23.2345 48.8165V64.7342C22.831 70.1386 21.352 75.408 18.8845 80.2331C16.664 83.7207 13.9874 86.8958 10.9256 89.6742C10.5819 89.9762 10.3065 90.3479 10.1176 90.7646C9.92866 91.1813 9.83066 91.6334 9.83008 92.0909V96.4731C9.83008 97.3277 10.1696 98.1473 10.7738 98.7516C11.3781 99.3559 12.1977 99.6954 13.0523 99.6954H102.63C103.485 99.6954 104.304 99.3559 104.909 98.7516C105.513 98.1473 105.852 97.3277 105.852 96.4731V92.0909C105.852 91.6334 105.754 91.1813 105.565 90.7646C105.376 90.3479 105.1 89.9762 104.757 89.6742ZM16.5323 93.2509C19.5303 90.3548 22.1699 87.1094 24.3945 83.5842C27.5027 77.7568 29.3162 71.327 29.7112 64.7342V48.8165C29.5834 45.0401 30.2168 41.2767 31.5738 37.7503C32.9307 34.2238 34.9834 31.0065 37.6097 28.2899C40.2359 25.5733 43.3819 23.413 46.8604 21.9376C50.339 20.4621 54.0788 19.7018 57.8573 19.7018C61.6358 19.7018 65.3756 20.4621 68.8542 21.9376C72.3327 23.413 75.4787 25.5733 78.1049 28.2899C80.7312 31.0065 82.7839 34.2238 84.1408 37.7503C85.4978 41.2767 86.1312 45.0401 86.0034 48.8165V64.7342C86.3984 71.327 88.2119 77.7568 91.3201 83.5842C93.5447 87.1094 96.1843 90.3548 99.1823 93.2509H16.5323Z" fill="#FFCC80"/>
<path d="M58.0008 110.458C60.0306 110.411 61.9784 109.648 63.4998 108.304C65.0212 106.959 66.0181 105.12 66.3141 103.111H49.3652C49.6696 105.175 50.7132 107.057 52.3017 108.408C53.8901 109.76 55.9154 110.488 58.0008 110.458Z" fill="#FFCC80"/>
</svg>
