<svg width="18" height="18" viewBox="0 0 18 18" fill="none" xmlns="http://www.w3.org/2000/svg">
<path d="M11.8853 18C11.5973 18 11.3085 17.9392 11.0423 17.8177L9.5333 17.1315C9.1958 16.9785 8.8073 16.9777 8.46905 17.1315L6.96005 17.817C6.44705 18.0495 5.8568 18.0592 5.3378 17.8447C4.8188 17.6295 4.4078 17.2042 4.2098 16.6785L3.6278 15.126C3.4973 14.778 3.2228 14.5035 2.87555 14.3737L1.32305 13.7917C0.796546 13.5937 0.372047 13.1827 0.156797 12.6637C-0.0584535 12.1447 -0.0479535 11.5537 0.184547 11.0415L0.870796 9.53248C1.0238 9.19423 1.0238 8.80648 0.870796 8.46824L0.183797 6.95923C-0.0487035 6.44773 -0.0592035 5.85599 0.156047 5.33699C0.371297 4.81799 0.796546 4.40699 1.3223 4.20899L2.8748 3.62699C3.2228 3.49649 3.4973 3.22199 3.62705 2.87474L4.20905 1.32224C4.40705 0.795735 4.81805 0.371235 5.33705 0.155985C5.8568 -0.0592645 6.44705 -0.0487645 6.9593 0.183735L8.4683 0.869985C8.8058 1.02299 9.1943 1.02374 9.53255 0.869985L11.0415 0.184485C11.553 -0.0487645 12.1448 -0.0585145 12.6638 0.156735C13.1828 0.371985 13.5938 0.797235 13.7918 1.32299L14.3738 2.87549C14.5043 3.22349 14.7788 3.49799 15.126 3.62774L16.6785 4.20974C17.205 4.40774 17.6295 4.81874 17.8448 5.33774C18.06 5.85674 18.0495 6.44773 17.817 6.95998L17.1308 8.46898C16.9778 8.80723 16.9778 9.19498 17.1308 9.53323L17.8163 11.0422C18.0488 11.5537 18.0593 12.1455 17.844 12.6645C17.6288 13.1835 17.2035 13.5945 16.6778 13.7925L15.1253 14.3745C14.7773 14.505 14.5028 14.7795 14.373 15.1267L13.791 16.6792C13.593 17.2057 13.182 17.6302 12.663 17.8455C12.4155 17.9482 12.15 18 11.8853 18ZM9.0008 16.2667C9.28805 16.2667 9.5753 16.3275 9.84305 16.449L11.3528 17.1352C11.6813 17.2852 12.045 17.2912 12.3773 17.1525C12.7103 17.0145 12.963 16.7527 13.0898 16.416L13.6718 14.8635C13.878 14.313 14.3123 13.8787 14.8628 13.6725L16.4153 13.0905C16.7528 12.9645 17.0145 12.711 17.1518 12.378C17.2898 12.045 17.2838 11.6812 17.1345 11.3535L16.4483 9.84448C16.2053 9.30898 16.2053 8.69473 16.4483 8.15924L17.1345 6.64948C17.2838 6.32173 17.2898 5.95799 17.1518 5.62499C17.0138 5.29199 16.752 5.03924 16.4153 4.91249L14.8628 4.33049C14.3123 4.12424 13.878 3.68999 13.6718 3.13949L13.0898 1.58699C12.9638 1.24949 12.7103 0.987735 12.3773 0.850485C12.0443 0.711735 11.6813 0.718485 11.3528 0.867735L9.8438 1.55399C9.3083 1.79624 8.6948 1.79624 8.1593 1.55399L6.6488 0.866235C6.3203 0.716985 5.9573 0.710985 5.6243 0.848985C5.2913 0.986985 5.03855 1.24874 4.9118 1.58549L4.3298 3.13799C4.12355 3.68849 3.68855 4.12349 3.1388 4.32974L1.5863 4.91174C1.2488 5.03773 0.987046 5.29124 0.849796 5.62424C0.711046 5.95724 0.717797 6.32098 0.866297 6.64874L1.55255 8.15773C1.79555 8.69323 1.79555 9.30748 1.55255 9.84298L0.866297 11.3527C0.717046 11.6805 0.711047 12.0442 0.849047 12.3772C0.987047 12.7102 1.2488 12.963 1.58555 13.0897L3.13805 13.6717C3.68855 13.878 4.1228 14.3122 4.32905 14.8627L4.91105 16.4152C5.03705 16.7527 5.29055 17.0145 5.62355 17.1517C5.95655 17.2897 6.31955 17.2837 6.64805 17.1345L8.15705 16.4482C8.4263 16.3275 8.71355 16.2667 9.0008 16.2667ZM9.68855 1.21124H9.69605H9.68855Z" fill="black"/>
<path d="M6.375 7.5C5.3415 7.5 4.5 6.6585 4.5 5.625C4.5 4.5915 5.3415 3.75 6.375 3.75C7.4085 3.75 8.25 4.5915 8.25 5.625C8.25 6.6585 7.4085 7.5 6.375 7.5ZM6.375 4.5C5.75475 4.5 5.25 5.00475 5.25 5.625C5.25 6.24525 5.75475 6.75 6.375 6.75C6.99525 6.75 7.5 6.24525 7.5 5.625C7.5 5.00475 6.99525 4.5 6.375 4.5Z" fill="black"/>
<path d="M11.625 14.25C10.5915 14.25 9.75 13.4085 9.75 12.375C9.75 11.3415 10.5915 10.5 11.625 10.5C12.6585 10.5 13.5 11.3415 13.5 12.375C13.5 13.4085 12.6585 14.25 11.625 14.25ZM11.625 11.25C11.0048 11.25 10.5 11.7548 10.5 12.375C10.5 12.9952 11.0048 13.5 11.625 13.5C12.2452 13.5 12.75 12.9952 12.75 12.375C12.75 11.7548 12.2452 11.25 11.625 11.25Z" fill="black"/>
<path d="M6.37501 13.5C6.30601 13.5 6.23626 13.4813 6.17401 13.4415C5.99926 13.3305 5.94751 13.098 6.05926 12.924L11.3093 4.67401C11.421 4.50001 11.652 4.44826 11.8268 4.55926C12.0015 4.67026 12.0533 4.90276 11.9415 5.07676L6.69151 13.3268C6.62026 13.4385 6.49876 13.5 6.37501 13.5Z" fill="black"/>
</svg>
