<svg width="18" height="18" viewBox="0 0 18 18" fill="none" xmlns="http://www.w3.org/2000/svg">
<g clip-path="url(#clip0)">
<path d="M16.5 2.25H1.50001C0.673102 2.25 0 2.92271 0 3.75001V9.37501C0 9.58229 0.16773 9.75002 0.375012 9.75002C1.03271 9.75002 1.38575 9.50502 1.66922 9.308C1.91679 9.13588 2.11307 9.00004 2.53568 9.00004C2.95829 9.00004 3.15457 9.13591 3.40214 9.308C3.68561 9.50502 4.03861 9.75002 4.69561 9.75002C5.35261 9.75002 5.70561 9.50467 5.98834 9.30765C6.23591 9.13591 6.43145 9.00004 6.85259 9.00004C7.27372 9.00004 7.4693 9.13591 7.71683 9.308C7.76573 9.34207 7.82079 9.37782 7.87504 9.41323V13.2173L5.52175 13.8893C5.36133 13.9354 5.25002 14.0826 5.25002 14.25V15.375C5.25002 15.5823 5.41775 15.75 5.62504 15.75H12.375C12.5823 15.75 12.75 15.5823 12.75 15.375V14.25C12.75 14.0826 12.6387 13.9354 12.4783 13.8893L10.125 13.2173V9.4249C10.1861 9.38559 10.2464 9.34583 10.3008 9.30797C10.5484 9.13584 10.7439 9 11.165 9C11.5854 9 11.7803 9.13588 12.0271 9.30762C12.3106 9.50463 12.6628 9.74999 13.3191 9.74999C13.9746 9.74999 14.3262 9.50463 14.6089 9.30762C14.855 9.13588 15.0498 9 15.4695 9C15.8914 9 16.0862 9.13588 16.3337 9.30797C16.6165 9.50498 16.9688 9.74999 17.625 9.74999C17.8323 9.74999 18 9.58226 18 9.37498V3.74998C18 2.92271 17.3269 2.25 16.5 2.25ZM12 14.5327V15H6.00001V14.5327L8.3533 13.8607C8.51372 13.8145 8.62502 13.6673 8.62502 13.5V9.71385C8.74188 9.73417 8.86532 9.75002 9.00882 9.75002C9.14576 9.75002 9.26244 9.73413 9.37505 9.7155V13.5C9.37505 13.6673 9.48639 13.8146 9.64677 13.8607L12 14.5327ZM17.25 8.95314C17.0588 8.89931 16.9212 8.80337 16.7622 8.69238C16.4788 8.49537 16.1265 8.25001 15.4695 8.25001C14.814 8.25001 14.4624 8.49537 14.1797 8.69238C13.9336 8.86412 13.7387 9 13.3191 9C12.8979 9 12.7031 8.86412 12.4563 8.69203C12.1728 8.49502 11.8213 8.25001 11.165 8.25001C10.508 8.25001 10.1558 8.49502 9.87304 8.69203C9.62547 8.86416 9.42993 9 9.00879 9C8.58765 9 8.39208 8.86412 8.14454 8.69203C7.86182 8.49502 7.50952 8.25001 6.85255 8.25001C6.19629 8.25001 5.84329 8.49502 5.56056 8.69203C5.31299 8.86416 5.11745 9 4.69557 9C4.27296 9 4.07742 8.86412 3.82985 8.69203C3.54639 8.49502 3.19338 8.25001 2.53564 8.25001C1.87791 8.25001 1.5249 8.49502 1.24144 8.69203C1.08102 8.80337 0.942609 8.89966 0.749988 8.95352V3.75005C0.749988 3.33661 1.08619 3.00006 1.49998 3.00006H16.5C16.9138 3.00006 17.25 3.33661 17.25 3.75005V8.95314H17.25Z" fill="black"/>
</g>
<defs>
<clipPath id="clip0">
<rect width="18" height="18" fill="white"/>
</clipPath>
</defs>
</svg>
