<svg width="16" height="16" viewBox="0 0 16 16" fill="none" xmlns="http://www.w3.org/2000/svg">
<path d="M5.15791 2.91226L3.63159 4.94735V12.0702C3.63159 12.34 3.7388 12.5988 3.92962 12.7897C4.12045 12.9805 4.37927 13.0877 4.64914 13.0877H11.7719C12.0418 13.0877 12.3006 12.9805 12.4915 12.7897C12.6823 12.5988 12.7895 12.34 12.7895 12.0702V4.94735L11.2632 2.91226H5.15791Z" stroke="#333333" stroke-width="1.01754" stroke-linecap="round" stroke-linejoin="round"/>
<path d="M3.63159 4.94736H12.7895" stroke="#333333" stroke-width="1.01754" stroke-linecap="round" stroke-linejoin="round"/>
<path d="M10.2456 6.98248C10.2456 7.52222 10.0312 8.03985 9.64953 8.42151C9.26787 8.80316 8.75024 9.01757 8.2105 9.01757C7.67076 9.01757 7.15313 8.80316 6.77148 8.42151C6.38983 8.03985 6.17542 7.52222 6.17542 6.98248" stroke="#333333" stroke-width="1.01754" stroke-linecap="round" stroke-linejoin="round"/>
</svg>
