<svg width="29" height="28" viewBox="0 0 29 28" fill="none" xmlns="http://www.w3.org/2000/svg">
<circle cx="14.3975" cy="14" r="14" fill="#F45F4C"/>
<path d="M23.3742 7.00662C22.9967 6.63906 22.3932 6.64651 22.0256 7.02401C21.6581 7.40147 21.6656 8.00498 22.043 8.37254C22.0461 8.37565 22.3585 8.73823 22.3287 9.43174C22.3155 9.73804 22.2243 10.1894 21.9321 10.7722C22.2376 10.9418 22.5206 11.1454 22.7689 11.3888C22.9936 11.6091 23.1873 11.8597 23.3535 12.1317C23.8936 11.2333 24.198 10.3578 24.2341 9.51309C24.3011 7.95656 23.4692 7.09913 23.3742 7.00662Z" fill="white"/>
<path d="M19.7696 11.501C18.5012 11.501 17.1539 12.1343 16.4188 13.1587C12.6524 18.4119 8.8416 18.6814 6.83746 18.6814C6.6083 18.6814 6.4028 18.6777 6.224 18.6777C5.52676 18.6777 5.22875 18.731 5.49262 19.252C6.11778 20.4875 8.96951 21.9999 12.4724 21.9999C15.2937 21.9999 18.5371 21.0183 21.3777 18.1201C22.8106 16.6586 23.3396 13.7287 21.8787 12.2963C21.3174 11.7462 20.5587 11.501 19.7696 11.501Z" fill="white"/>
<path d="M7.84256 16.1612C7.77097 15.2335 7.94404 13.1288 10.7093 11.9437C10.7093 11.9437 9.68272 14.4266 11.0732 15.6828C12.082 14.8955 12.7916 13.6096 12.8644 12.3659C13.0736 8.7785 10.569 6.89042 8.94286 6.04916C8.77652 5.96284 8.57345 5.99201 8.43878 6.12242C8.30343 6.25219 8.26678 6.45393 8.34627 6.62347C8.97454 7.95714 9.39735 10.3431 6.70964 13.1202C5.88905 13.9676 6.55769 15.5264 7.84256 16.1612Z" fill="white"/>
</svg>
