<svg width="16" height="16" viewBox="0 0 16 16" fill="none" xmlns="http://www.w3.org/2000/svg">
<path d="M13.3334 3.99999H10.6667V2.66666C10.6667 1.92666 10.0734 1.33333 9.33337 1.33333H6.66671C5.92671 1.33333 5.33337 1.92666 5.33337 2.66666V3.99999H2.66671C1.92671 3.99999 1.34004 4.59333 1.34004 5.33333L1.33337 12.6667C1.33337 13.4067 1.92671 14 2.66671 14H13.3334C14.0734 14 14.6667 13.4067 14.6667 12.6667V5.33333C14.6667 4.59333 14.0734 3.99999 13.3334 3.99999ZM6.66671 2.66666H9.33337V3.99999H6.66671V2.66666ZM13.3334 12.6667H2.66671V5.33333H13.3334V12.6667Z" fill="#333333"/>
</svg>
