<svg width="28" height="28" viewBox="0 0 28 28" fill="none" xmlns="http://www.w3.org/2000/svg">
<circle cx="14" cy="14" r="14" fill="#8AC84D"/>
<g clip-path="url(#clip0)">
<path d="M6.17941 9.9382C6.83418 11.4611 7.93955 12.9674 9.48634 13.6167C9.6629 13.6902 9.86338 13.7454 10.0694 13.7914C10.4814 13.1771 10.954 12.6786 11.5076 12.2704C11.984 11.9209 12.4824 11.6469 12.9956 11.4316C12.8484 11.3287 12.6939 11.2349 12.5321 11.1502C11.8883 10.8137 11.1913 10.5176 10.5126 10.1994C11.1508 10.3723 11.8828 10.4366 12.4935 10.6592C12.8742 10.799 13.2255 10.9921 13.5528 11.222C14.5295 10.8891 15.5503 10.7291 16.5692 10.6077C15.7434 9.23563 13.9814 8.13393 12.6535 7.6355C11.2667 7.11499 9.69599 7.05061 8.15288 6.89062C7.20752 6.79312 6.17939 6.44001 5.42715 6.02802C5.2561 5.93422 5.07402 6.09056 5.13287 6.28C5.50258 7.4626 5.69018 8.80155 6.17941 9.9382Z" fill="white"/>
<path d="M22.4839 9.75777C20.744 10.7031 18.7485 10.819 16.7934 11.0434C15.8388 11.1537 14.8935 11.2898 13.9941 11.562C13.7991 11.6209 13.6042 11.6871 13.4129 11.7607C12.8445 11.9777 12.2965 12.2628 11.7796 12.6435C11.2941 13.0003 10.8968 13.4233 10.5621 13.8887C10.0287 14.6317 9.65717 15.4869 9.35186 16.3753C8.79457 17.9883 8.53892 19.7024 8.58858 21.4074C8.60881 22.099 8.61985 22.8181 8.79089 23.4931C8.82952 23.6421 8.8663 23.8315 8.98217 23.9419C9.13299 24.0872 9.40336 23.9382 9.34266 23.7267C8.90493 22.2351 9.17713 20.4915 9.78224 19.0661C10.4775 17.4273 11.8201 16.4525 13.4607 15.8585C13.8966 15.7003 14.3417 15.5624 14.7941 15.4318C14.8033 15.4281 14.8125 15.4281 14.8217 15.4281C14.9118 15.4281 14.9505 15.5605 14.8567 15.6028C14.3233 15.8438 13.7936 16.0866 13.2896 16.3496C10.8214 17.637 9.74359 20.635 10.6687 20.635C10.7442 20.635 10.8324 20.6147 10.9336 20.5724C12.3608 19.982 14.0566 19.9765 15.6254 19.6859C16.1772 19.5848 16.7143 19.4468 17.2182 19.2372C19.2193 18.4022 20.6502 16.7689 21.5018 14.8046C22.1363 13.3388 22.3827 11.6081 22.8628 10.0852C22.9253 9.89021 22.7874 9.72286 22.6182 9.72286C22.5759 9.72098 22.5299 9.73204 22.4839 9.75777Z" fill="white"/>
</g>
<defs>
<clipPath id="clip0">
<rect width="18" height="18" fill="white" transform="translate(5 6)"/>
</clipPath>
</defs>
</svg>
